<?xml version="1.0" ?><svg viewBox="0 0 64 64" xmlns="http://www.w3.org/2000/svg" xmlns:xlink="http://www.w3.org/1999/xlink"><defs><style>.cls-1{isolation:isolate;}.cls-2{fill:url(#linear-gradient);}.cls-3{fill:url(#linear-gradient-2);}.cls-4{fill:url(#linear-gradient-3);}.cls-5{fill:url(#linear-gradient-4);}.cls-6{fill:url(#linear-gradient-5);}.cls-7{fill:url(#linear-gradient-6);}.cls-8{fill:url(#linear-gradient-7);}.cls-9{fill:url(#linear-gradient-8);}.cls-10{fill:url(#linear-gradient-9);}.cls-11{fill:url(#linear-gradient-10);}.cls-12{fill:url(#linear-gradient-11);}.cls-13{fill:url(#linear-gradient-12);}.cls-14{fill:url(#linear-gradient-13);}.cls-15{fill:url(#linear-gradient-14);}.cls-16{fill:url(#linear-gradient-15);}.cls-17{fill:url(#linear-gradient-16);}.cls-18{fill:url(#linear-gradient-17);}.cls-19{fill:url(#linear-gradient-18);}.cls-20{fill:url(#linear-gradient-19);}.cls-21{fill:url(#linear-gradient-20);}.cls-22{fill:url(#linear-gradient-21);}.cls-23{fill:url(#linear-gradient-22);}.cls-24{fill:url(#linear-gradient-23);}.cls-25{fill:url(#linear-gradient-24);}.cls-26{fill:url(#linear-gradient-25);}.cls-27{fill:url(#linear-gradient-26);}.cls-28{fill:url(#linear-gradient-27);}.cls-29{fill:url(#linear-gradient-28);}.cls-30{fill:url(#linear-gradient-29);}.cls-31{fill:url(#linear-gradient-30);}.cls-32{fill:url(#linear-gradient-31);}.cls-33{fill:url(#linear-gradient-32);}.cls-34{fill:url(#linear-gradient-33);}.cls-35{fill:url(#linear-gradient-34);}.cls-36{fill:url(#linear-gradient-35);}.cls-37{fill:url(#linear-gradient-36);}.cls-38{fill:url(#linear-gradient-37);}.cls-39{fill:url(#linear-gradient-38);}.cls-40{fill:url(#linear-gradient-39);}.cls-41{fill:url(#linear-gradient-40);}.cls-42{fill:url(#linear-gradient-41);}.cls-43{fill:url(#linear-gradient-42);}.cls-44{fill:url(#linear-gradient-43);}.cls-45{fill:url(#linear-gradient-44);}.cls-46{fill:url(#linear-gradient-45);}.cls-47{fill:url(#linear-gradient-46);}.cls-48{fill:url(#linear-gradient-47);}.cls-49{fill:url(#linear-gradient-48);}.cls-50{fill:url(#linear-gradient-49);}.cls-51{fill:url(#linear-gradient-50);}.cls-52{fill:url(#linear-gradient-51);}.cls-53{fill:url(#linear-gradient-52);}.cls-54{fill:url(#linear-gradient-53);}.cls-55{fill:url(#linear-gradient-54);}.cls-56{fill:url(#linear-gradient-55);}.cls-57{fill:url(#linear-gradient-56);}.cls-58{fill:url(#linear-gradient-57);}.cls-59{fill:url(#linear-gradient-58);}.cls-60{fill:url(#linear-gradient-59);}.cls-61{fill:url(#linear-gradient-60);}.cls-62{fill:url(#linear-gradient-61);}.cls-63{fill:url(#linear-gradient-62);}.cls-64{fill:url(#linear-gradient-63);}.cls-65{fill:url(#linear-gradient-64);}.cls-66{fill:url(#linear-gradient-65);}.cls-67{fill:url(#linear-gradient-66);}.cls-68{fill:url(#linear-gradient-67);}.cls-69{fill:url(#linear-gradient-68);}.cls-70{fill:url(#linear-gradient-69);}.cls-71{fill:url(#linear-gradient-70);}.cls-72{fill:url(#linear-gradient-71);}.cls-73{fill:url(#linear-gradient-72);}.cls-74{fill:url(#linear-gradient-73);}.cls-75{fill:url(#linear-gradient-74);}.cls-76{fill:url(#linear-gradient-75);}.cls-77{fill:url(#linear-gradient-76);}.cls-78{fill:url(#linear-gradient-77);}.cls-79{fill:url(#linear-gradient-78);}.cls-80{fill:url(#linear-gradient-79);}.cls-81{fill:url(#linear-gradient-80);}.cls-82{fill:url(#linear-gradient-81);}.cls-83{fill:url(#linear-gradient-82);}.cls-84{fill:url(#linear-gradient-83);}.cls-85{fill:url(#linear-gradient-84);}.cls-86{fill:url(#linear-gradient-85);}.cls-87,.cls-92{opacity:0.16;mix-blend-mode:color-burn;}.cls-87{fill:url(#linear-gradient-86);}.cls-88{fill:url(#linear-gradient-87);}.cls-89{fill:url(#linear-gradient-88);}.cls-90{fill:url(#linear-gradient-89);}.cls-91{fill:url(#linear-gradient-90);}.cls-92{fill:url(#linear-gradient-91);}.cls-93{fill:url(#linear-gradient-92);}.cls-94{fill:url(#linear-gradient-93);}.cls-95{fill:url(#linear-gradient-94);}.cls-96{fill:url(#linear-gradient-95);}.cls-97{fill:url(#linear-gradient-96);}.cls-98{fill:url(#linear-gradient-97);}.cls-99{fill:url(#linear-gradient-98);}.cls-100{fill:url(#linear-gradient-99);}.cls-101{fill:url(#linear-gradient-100);}.cls-102{fill:url(#linear-gradient-101);}.cls-103{fill:url(#linear-gradient-102);}.cls-104{fill:url(#linear-gradient-103);}.cls-105{fill:url(#linear-gradient-104);}.cls-106{fill:url(#linear-gradient-105);}.cls-107{fill:url(#linear-gradient-106);}.cls-108{fill:url(#linear-gradient-107);}.cls-109{fill:url(#linear-gradient-108);}.cls-110{fill:url(#linear-gradient-109);}.cls-111{fill:url(#linear-gradient-110);}.cls-112{fill:url(#linear-gradient-111);}.cls-113{fill:url(#linear-gradient-112);}.cls-114{fill:url(#linear-gradient-113);}.cls-115{fill:url(#linear-gradient-114);}.cls-116{fill:url(#linear-gradient-115);}.cls-117{fill:url(#linear-gradient-116);}.cls-118{fill:url(#linear-gradient-117);}.cls-119{fill:url(#linear-gradient-118);}.cls-120{fill:url(#linear-gradient-119);}.cls-121{fill:url(#linear-gradient-120);}.cls-122{fill:url(#linear-gradient-121);}.cls-123{fill:url(#linear-gradient-122);}.cls-124{fill:url(#linear-gradient-123);}.cls-125{fill:url(#linear-gradient-124);}.cls-126{fill:url(#linear-gradient-125);}.cls-127{fill:url(#linear-gradient-126);}.cls-128{fill:url(#linear-gradient-127);}.cls-129{fill:url(#linear-gradient-128);}.cls-130{fill:url(#linear-gradient-129);}.cls-131{fill:url(#linear-gradient-130);}.cls-132{fill:url(#linear-gradient-131);}.cls-133{fill:url(#linear-gradient-132);}.cls-134{fill:url(#linear-gradient-133);}.cls-135{fill:url(#linear-gradient-134);}.cls-136{fill:url(#linear-gradient-135);}.cls-137{fill:url(#linear-gradient-136);}.cls-138{fill:url(#linear-gradient-137);}.cls-139{fill:url(#linear-gradient-138);}.cls-140{fill:url(#linear-gradient-139);}.cls-141{fill:url(#linear-gradient-140);}.cls-142{fill:url(#linear-gradient-141);}.cls-143{fill:url(#linear-gradient-142);}.cls-144{fill:url(#linear-gradient-143);}.cls-145{fill:url(#linear-gradient-144);}.cls-146{fill:url(#linear-gradient-145);}.cls-147{fill:url(#linear-gradient-146);}.cls-148{fill:url(#linear-gradient-147);}.cls-149{fill:url(#linear-gradient-148);}.cls-150{fill:url(#linear-gradient-149);}.cls-151{fill:url(#linear-gradient-150);}.cls-152{fill:url(#linear-gradient-151);}.cls-153{fill:url(#linear-gradient-152);}.cls-154{fill:url(#linear-gradient-153);}.cls-155{fill:url(#linear-gradient-154);}.cls-156{fill:url(#linear-gradient-155);}.cls-157{fill:url(#linear-gradient-156);}.cls-158{fill:url(#linear-gradient-157);}.cls-159{fill:url(#linear-gradient-158);}.cls-160{fill:url(#linear-gradient-159);}.cls-161{fill:url(#linear-gradient-160);}.cls-162{fill:url(#linear-gradient-161);}.cls-163{fill:url(#linear-gradient-162);}.cls-164{fill:url(#linear-gradient-163);}.cls-165{fill:url(#linear-gradient-164);}.cls-166{fill:url(#linear-gradient-165);}.cls-167{fill:url(#linear-gradient-166);}.cls-168{fill:url(#linear-gradient-167);}.cls-169{fill:url(#linear-gradient-168);}.cls-170{fill:url(#linear-gradient-169);}.cls-171{fill:url(#linear-gradient-170);}.cls-172{fill:url(#linear-gradient-171);}.cls-173{fill:url(#linear-gradient-172);}.cls-174{fill:url(#linear-gradient-173);}.cls-175{fill:url(#linear-gradient-175);}.cls-176{fill:url(#linear-gradient-177);}.cls-177{fill:url(#linear-gradient-179);}.cls-178{fill:url(#linear-gradient-181);}.cls-179{fill:url(#linear-gradient-183);}.cls-180{fill:url(#linear-gradient-185);}.cls-181{fill:url(#linear-gradient-187);}.cls-182{fill:url(#linear-gradient-189);}.cls-183{fill:url(#linear-gradient-191);}.cls-184{fill:url(#linear-gradient-193);}.cls-185{fill:url(#linear-gradient-195);}.cls-186{fill:url(#linear-gradient-196);}.cls-187{fill:url(#linear-gradient-197);}.cls-188{fill:url(#linear-gradient-199);}.cls-189{fill:url(#linear-gradient-201);}.cls-190{fill:url(#linear-gradient-203);}.cls-191{fill:url(#linear-gradient-205);}.cls-192{fill:url(#linear-gradient-207);}.cls-193{fill:url(#linear-gradient-209);}.cls-194{fill:url(#linear-gradient-211);}.cls-195{fill:url(#linear-gradient-213);}.cls-196{fill:url(#linear-gradient-215);}.cls-197{fill:url(#linear-gradient-217);}.cls-198{fill:url(#linear-gradient-219);}.cls-199{fill:url(#linear-gradient-220);}.cls-200{fill:url(#linear-gradient-221);}.cls-201{fill:url(#linear-gradient-222);}.cls-202{fill:url(#linear-gradient-223);}.cls-203{fill:url(#linear-gradient-224);}.cls-204{fill:url(#linear-gradient-225);}.cls-205{fill:url(#linear-gradient-226);}.cls-206{fill:url(#linear-gradient-227);}.cls-207{fill:url(#linear-gradient-228);}.cls-208{fill:url(#linear-gradient-229);}.cls-209{fill:url(#linear-gradient-230);}.cls-210{fill:url(#linear-gradient-231);}.cls-211{fill:url(#linear-gradient-232);}.cls-212{fill:url(#linear-gradient-233);}.cls-213{fill:url(#linear-gradient-234);}.cls-214{fill:url(#linear-gradient-235);}.cls-215{fill:url(#linear-gradient-236);}.cls-216{fill:url(#linear-gradient-237);}.cls-217{fill:url(#linear-gradient-238);}.cls-218{fill:url(#linear-gradient-239);}.cls-219{fill:url(#linear-gradient-240);}.cls-220{fill:url(#linear-gradient-241);}.cls-221{fill:url(#linear-gradient-242);}.cls-222{fill:url(#linear-gradient-243);}.cls-223{fill:url(#linear-gradient-244);}.cls-224{fill:url(#linear-gradient-245);}.cls-225{fill:url(#linear-gradient-246);}.cls-226{fill:url(#linear-gradient-247);}.cls-227{fill:url(#linear-gradient-248);}.cls-228{fill:url(#linear-gradient-249);}.cls-229{fill:url(#linear-gradient-250);}.cls-230{fill:url(#linear-gradient-251);}.cls-231{fill:url(#linear-gradient-252);}.cls-232{fill:url(#linear-gradient-253);}.cls-233{fill:url(#linear-gradient-254);}.cls-234{fill:url(#linear-gradient-255);}.cls-235{fill:url(#linear-gradient-256);}.cls-236{fill:url(#linear-gradient-257);}.cls-237{fill:url(#linear-gradient-258);}.cls-238{fill:url(#linear-gradient-259);}.cls-239{fill:url(#linear-gradient-260);}.cls-240{fill:url(#linear-gradient-261);}.cls-241{fill:url(#linear-gradient-262);}.cls-242{fill:url(#linear-gradient-263);}.cls-243{fill:url(#linear-gradient-265);}.cls-244{fill:url(#linear-gradient-267);}.cls-245{fill:url(#linear-gradient-269);}.cls-246{fill:url(#linear-gradient-271);}.cls-247{fill:url(#linear-gradient-273);}.cls-248{fill:url(#linear-gradient-275);}.cls-249{fill:url(#linear-gradient-277);}.cls-250{fill:url(#linear-gradient-279);}.cls-251{fill:url(#linear-gradient-281);}.cls-252{fill:url(#linear-gradient-283);}.cls-253{fill:url(#linear-gradient-285);}.cls-254{fill:url(#linear-gradient-286);}.cls-255{fill:url(#linear-gradient-287);}.cls-256{fill:url(#linear-gradient-288);}.cls-257{fill:url(#linear-gradient-289);}.cls-258{fill:url(#linear-gradient-290);}.cls-259{fill:url(#linear-gradient-291);}.cls-260{fill:url(#linear-gradient-292);}.cls-261{fill:url(#linear-gradient-293);}.cls-262{fill:url(#linear-gradient-294);}.cls-263{fill:url(#linear-gradient-295);}.cls-264{fill:#141528;}.cls-265{fill:url(#linear-gradient-296);}.cls-266{fill:url(#linear-gradient-297);}.cls-267{fill:url(#linear-gradient-298);}.cls-268{fill:url(#linear-gradient-299);}.cls-269{fill:url(#linear-gradient-300);}.cls-270{fill:url(#linear-gradient-301);}.cls-271{fill:url(#linear-gradient-302);}.cls-272{fill:url(#linear-gradient-303);}.cls-273{fill:url(#linear-gradient-304);}.cls-274{fill:url(#linear-gradient-305);}.cls-275{fill:url(#linear-gradient-306);}.cls-276{fill:url(#linear-gradient-307);}.cls-277{fill:url(#linear-gradient-308);}.cls-278{fill:url(#linear-gradient-309);}.cls-279{fill:#f9aa8f;}.cls-280{fill:url(#linear-gradient-310);}.cls-281{fill:url(#linear-gradient-311);}.cls-282{fill:url(#linear-gradient-312);}.cls-283{fill:url(#linear-gradient-313);}</style><linearGradient gradientUnits="userSpaceOnUse" id="linear-gradient" x1="32" x2="32" y1="97.25" y2="9.14"><stop offset="0" stop-color="#d1efe7"/><stop offset="0.53" stop-color="#97efe7"/><stop offset="1" stop-color="#3ccbe3"/></linearGradient><linearGradient gradientTransform="translate(-7366.47)" id="linear-gradient-2" x1="7407.27" x2="7407.27" xlink:href="#linear-gradient" y1="39.88" y2="-1.97"/><linearGradient gradientTransform="translate(-7366.47)" id="linear-gradient-3" x1="7408.69" x2="7408.69" xlink:href="#linear-gradient" y1="39.87" y2="-1.97"/><linearGradient gradientTransform="translate(-7366.47)" id="linear-gradient-4" x1="7411.92" x2="7377.56" xlink:href="#linear-gradient" y1="30.83" y2="-19.8"/><linearGradient gradientTransform="translate(-7366.47)" id="linear-gradient-5" x1="7405.97" x2="7371.38" xlink:href="#linear-gradient" y1="55.93" y2="6.75"/><linearGradient gradientTransform="translate(-7366.47)" id="linear-gradient-6" x1="7392.17" x2="7392.17" xlink:href="#linear-gradient" y1="39.87" y2="-1.97"/><linearGradient gradientTransform="translate(-7366.47)" id="linear-gradient-7" x1="7406.05" x2="7371.45" xlink:href="#linear-gradient" y1="55.88" y2="6.7"/><linearGradient gradientTransform="translate(-7366.47)" id="linear-gradient-8" x1="7411.81" x2="7411.81" xlink:href="#linear-gradient" y1="39.87" y2="-1.97"/><linearGradient gradientTransform="translate(-7366.47)" id="linear-gradient-9" x1="7409.08" x2="7374.72" xlink:href="#linear-gradient" y1="32.76" y2="-17.87"/><linearGradient gradientTransform="translate(-7366.47)" id="linear-gradient-10" x1="7418.89" x2="7384.29" xlink:href="#linear-gradient" y1="46.85" y2="-2.33"/><linearGradient gradientTransform="translate(-7366.47)" id="linear-gradient-11" x1="7399.56" x2="7399.56" xlink:href="#linear-gradient" y1="39.87" y2="-1.97"/><linearGradient gradientTransform="translate(-7366.47)" id="linear-gradient-12" x1="7402.3" x2="7367.95" xlink:href="#linear-gradient" y1="37.36" y2="-13.27"/><linearGradient gradientTransform="translate(-7366.47)" id="linear-gradient-13" x1="7412.33" x2="7377.73" xlink:href="#linear-gradient" y1="51.46" y2="2.28"/><linearGradient id="linear-gradient-14" x1="38.57" x2="38.57" xlink:href="#linear-gradient" y1="60.25" y2="23.9"/><linearGradient gradientTransform="translate(-7366.47)" id="linear-gradient-15" x1="7405.04" x2="7405.04" xlink:href="#linear-gradient" y1="39.87" y2="-1.96"/><linearGradient gradientTransform="translate(-7366.47)" id="linear-gradient-16" x1="7405.18" x2="7370.83" xlink:href="#linear-gradient" y1="35.4" y2="-15.22"/><linearGradient gradientTransform="translate(-7366.47)" id="linear-gradient-17" x1="7415.11" x2="7380.51" xlink:href="#linear-gradient" y1="49.51" y2="0.33"/><linearGradient id="linear-gradient-18" x1="38.57" x2="38.57" xlink:href="#linear-gradient" y1="60.25" y2="23.91"/><linearGradient id="linear-gradient-19" x1="40.69" x2="40.69" xlink:href="#linear-gradient" y1="54" y2="30.75"/><linearGradient gradientTransform="translate(-7366.47)" id="linear-gradient-20" x1="7408.06" x2="7408.06" xlink:href="#linear-gradient" y1="39.87" y2="-1.96"/><linearGradient gradientTransform="translate(-7366.47)" id="linear-gradient-21" x1="7407.86" x2="7373.51" xlink:href="#linear-gradient" y1="33.58" y2="-17.04"/><linearGradient id="linear-gradient-22" x1="41.59" x2="41.59" xlink:href="#linear-gradient" y1="54" y2="30.75"/><linearGradient gradientTransform="translate(-7366.47)" id="linear-gradient-23" x1="7407.16" x2="7407.16" xlink:href="#linear-gradient" y1="39.87" y2="-1.96"/><linearGradient gradientTransform="translate(-7366.47)" id="linear-gradient-24" x1="7406.53" x2="7372.17" xlink:href="#linear-gradient" y1="34.49" y2="-16.14"/><linearGradient gradientTransform="translate(-7366.47)" id="linear-gradient-25" x1="7416.42" x2="7381.83" xlink:href="#linear-gradient" y1="48.58" y2="-0.6"/><linearGradient id="linear-gradient-26" x1="40.69" x2="40.69" xlink:href="#linear-gradient" y1="54" y2="30.75"/><linearGradient gradientTransform="translate(-7366.47)" id="linear-gradient-27" x1="7425.63" x2="7425.63" xlink:href="#linear-gradient" y1="39.87" y2="-1.96"/><linearGradient id="linear-gradient-28" x1="59.16" x2="59.16" xlink:href="#linear-gradient" y1="48.58" y2="22.08"/><linearGradient gradientTransform="translate(-7366.47)" id="linear-gradient-29" x1="7419.62" x2="7419.62" xlink:href="#linear-gradient" y1="39.87" y2="-1.97"/><linearGradient gradientTransform="translate(-7366.47)" id="linear-gradient-30" x1="7417" x2="7382.65" xlink:href="#linear-gradient" y1="27.38" y2="-23.25"/><linearGradient id="linear-gradient-31" x1="53.15" x2="53.15" xlink:href="#linear-gradient" y1="48.58" y2="22.08"/><linearGradient gradientTransform="translate(-7366.47)" id="linear-gradient-32" x1="7424.76" x2="7424.76" xlink:href="#linear-gradient" y1="39.87" y2="-1.97"/><linearGradient gradientTransform="translate(-7366.47)" id="linear-gradient-33" x1="7428.17" x2="7393.58" xlink:href="#linear-gradient" y1="40.32" y2="-8.86"/><linearGradient id="linear-gradient-34" x1="58.3" x2="58.3" xlink:href="#linear-gradient" y1="48.58" y2="22.08"/><linearGradient gradientTransform="translate(-7366.47)" id="linear-gradient-35" x1="7418.79" x2="7418.79" xlink:href="#linear-gradient" y1="39.87" y2="-1.97"/><linearGradient gradientTransform="translate(-7366.47)" id="linear-gradient-36" x1="7414.89" x2="7380.54" xlink:href="#linear-gradient" y1="28.81" y2="-21.82"/><linearGradient gradientTransform="translate(-7366.47)" id="linear-gradient-37" x1="7424.6" x2="7390.01" xlink:href="#linear-gradient" y1="42.83" y2="-6.35"/><linearGradient id="linear-gradient-38" x1="52.32" x2="52.32" xlink:href="#linear-gradient" y1="48.58" y2="22.08"/><linearGradient gradientTransform="translate(-7366.47)" id="linear-gradient-39" x1="7417.85" x2="7417.85" xlink:href="#linear-gradient" y1="39.88" y2="-1.97"/><linearGradient gradientTransform="translate(-7366.47)" id="linear-gradient-40" x1="7416.64" x2="7382.34" xlink:href="#linear-gradient" y1="27.63" y2="-22.91"/><linearGradient id="linear-gradient-41" x1="51.38" x2="51.38" xlink:href="#linear-gradient" y1="34.46" y2="22.58"/><linearGradient gradientTransform="translate(-7366.47)" id="linear-gradient-42" x1="7416.81" x2="7416.81" xlink:href="#linear-gradient" y1="39.87" y2="-1.96"/><linearGradient gradientTransform="translate(-7366.47)" id="linear-gradient-43" x1="7415.63" x2="7381.27" xlink:href="#linear-gradient" y1="28.31" y2="-22.33"/><linearGradient id="linear-gradient-44" x1="50.34" x2="50.34" xlink:href="#linear-gradient" y1="34.46" y2="22.58"/><linearGradient gradientTransform="translate(-7366.47)" id="linear-gradient-45" x1="7418.5" x2="7418.5" xlink:href="#linear-gradient" y1="39.88" y2="-1.97"/><linearGradient gradientTransform="translate(-7366.47)" id="linear-gradient-46" x1="7416.83" x2="7382.48" xlink:href="#linear-gradient" y1="27.49" y2="-23.13"/><linearGradient id="linear-gradient-47" x1="52.04" x2="52.04" xlink:href="#linear-gradient" y1="48.58" y2="22.08"/><linearGradient id="linear-gradient-48" x1="52.04" x2="52.04" xlink:href="#linear-gradient" y1="34.46" y2="22.58"/><linearGradient gradientTransform="translate(-7366.47)" id="linear-gradient-49" x1="7379.39" x2="7379.39" xlink:href="#linear-gradient" y1="39.88" y2="-1.97"/><linearGradient gradientTransform="translate(-7366.47)" id="linear-gradient-50" x1="7386.69" x2="7386.69" xlink:href="#linear-gradient" y1="30.58" y2="-0.04"/><linearGradient gradientTransform="translate(-7366.47)" id="linear-gradient-51" x1="7378.29" x2="7378.29" xlink:href="#linear-gradient" y1="39.89" y2="-2.11"/><linearGradient gradientTransform="translate(-7366.47)" id="linear-gradient-52" x1="7378.29" x2="7378.29" xlink:href="#linear-gradient" y1="30.56" y2="-0.18"/><linearGradient gradientTransform="translate(-7366.47)" id="linear-gradient-53" x1="7375.46" x2="7375.46" xlink:href="#linear-gradient" y1="39.87" y2="-1.97"/><linearGradient gradientTransform="translate(-7366.47)" id="linear-gradient-54" x1="7375.46" x2="7375.46" xlink:href="#linear-gradient" y1="30.58" y2="-0.04"/><linearGradient gradientTransform="translate(-7366.47)" id="linear-gradient-55" x1="7384.74" x2="7384.74" xlink:href="#linear-gradient" y1="39.87" y2="-1.97"/><linearGradient gradientTransform="translate(-7366.47)" id="linear-gradient-56" x1="7384.74" x2="7384.74" xlink:href="#linear-gradient" y1="30.58" y2="-0.04"/><linearGradient gradientTransform="translate(-7366.47)" id="linear-gradient-57" x1="7381.15" x2="7381.15" xlink:href="#linear-gradient" y1="39.87" y2="-1.97"/><linearGradient id="linear-gradient-58" x1="14.68" x2="14.68" xlink:href="#linear-gradient" y1="29.87" y2="21.11"/><linearGradient gradientTransform="translate(-7366.47)" id="linear-gradient-59" x1="7375.11" x2="7375.11" xlink:href="#linear-gradient" y1="39.87" y2="-1.97"/><linearGradient gradientTransform="translate(-7366.47)" id="linear-gradient-60" x1="7375.11" x2="7375.11" xlink:href="#linear-gradient" y1="30.58" y2="-0.04"/><linearGradient gradientTransform="translate(-7366.47)" id="linear-gradient-61" x1="7375.11" x2="7375.11" xlink:href="#linear-gradient" y1="34.05" y2="21.11"/><linearGradient gradientTransform="translate(-7366.47)" id="linear-gradient-62" x1="7373.03" x2="7373.03" xlink:href="#linear-gradient" y1="39.87" y2="-1.96"/><linearGradient id="linear-gradient-63" x1="6.56" x2="6.56" xlink:href="#linear-gradient" y1="5.5" y2="-22.81"/><linearGradient gradientTransform="translate(-7366.47)" id="linear-gradient-64" x1="7374.42" x2="7374.42" xlink:href="#linear-gradient" y1="39.87" y2="-1.97"/><linearGradient id="linear-gradient-65" x1="7.95" x2="7.95" xlink:href="#linear-gradient" y1="5.5" y2="-22.81"/><linearGradient gradientTransform="translate(-7366.47)" id="linear-gradient-66" x1="7398.18" x2="7398.18" xlink:href="#linear-gradient" y1="39.87" y2="-1.97"/><linearGradient id="linear-gradient-67" x1="31.71" x2="31.71" xlink:href="#linear-gradient" y1="5.5" y2="-22.81"/><linearGradient gradientTransform="translate(-7366.47)" id="linear-gradient-68" x1="7403.97" x2="7403.97" xlink:href="#linear-gradient" y1="39.88" y2="-1.97"/><linearGradient id="linear-gradient-69" x1="37.5" x2="37.5" xlink:href="#linear-gradient" y1="5.5" y2="-22.81"/><linearGradient gradientTransform="translate(-7366.47)" id="linear-gradient-70" x1="7381.27" x2="7381.27" xlink:href="#linear-gradient" y1="39.88" y2="-1.97"/><linearGradient id="linear-gradient-71" x1="14.8" x2="14.8" xlink:href="#linear-gradient" y1="42.5" y2="21.8"/><linearGradient gradientTransform="translate(-7366.47)" id="linear-gradient-72" x1="7386.72" x2="7386.72" xlink:href="#linear-gradient" y1="30.58" y2="-0.04"/><linearGradient id="linear-gradient-73" x1="20.25" x2="20.25" xlink:href="#linear-gradient" y1="42.5" y2="21.8"/><linearGradient gradientTransform="translate(-7366.47)" id="linear-gradient-74" x1="7380.96" x2="7380.96" xlink:href="#linear-gradient" y1="39.88" y2="-1.97"/><linearGradient gradientTransform="translate(-7366.47)" id="linear-gradient-75" x1="7380.96" x2="7380.96" xlink:href="#linear-gradient" y1="30.58" y2="-0.04"/><linearGradient id="linear-gradient-76" x1="14.49" x2="14.49" xlink:href="#linear-gradient" y1="42.5" y2="21.8"/><linearGradient gradientTransform="translate(-7366.47)" id="linear-gradient-77" x1="7384.95" x2="7384.95" xlink:href="#linear-gradient" y1="39.87" y2="-1.97"/><linearGradient gradientTransform="translate(-7366.47)" id="linear-gradient-78" x1="7384.95" x2="7384.95" xlink:href="#linear-gradient" y1="30.58" y2="-0.04"/><linearGradient id="linear-gradient-79" x1="18.49" x2="18.49" xlink:href="#linear-gradient" y1="42.5" y2="21.8"/><linearGradient gradientTransform="translate(-7366.47)" id="linear-gradient-80" x1="7377.37" x2="7377.37" xlink:href="#linear-gradient" y1="39.87" y2="-1.97"/><linearGradient gradientTransform="translate(-7366.47)" id="linear-gradient-81" x1="7377.37" x2="7377.37" xlink:href="#linear-gradient" y1="30.58" y2="-0.04"/><linearGradient gradientTransform="translate(-7366.47)" id="linear-gradient-82" x1="7377.37" x2="7377.37" xlink:href="#linear-gradient" y1="34.05" y2="21.11"/><linearGradient id="linear-gradient-83" x1="10.9" x2="10.9" xlink:href="#linear-gradient" y1="42.5" y2="21.8"/><linearGradient gradientTransform="translate(-7366.47)" id="linear-gradient-84" x1="7382.5" x2="7382.5" xlink:href="#linear-gradient" y1="39.87" y2="-1.96"/><linearGradient gradientTransform="translate(-7366.47)" id="linear-gradient-85" x1="7382.5" x2="7382.5" xlink:href="#linear-gradient" y1="30.58" y2="-0.04"/><linearGradient gradientTransform="translate(-7366.47)" id="linear-gradient-86" x1="7384.51" x2="7381.77" xlink:href="#linear-gradient" y1="31.59" y2="31.05"/><linearGradient id="linear-gradient-87" x1="16.04" x2="16.04" xlink:href="#linear-gradient" y1="42.5" y2="21.8"/><linearGradient gradientTransform="translate(-7366.47)" id="linear-gradient-88" x1="7381.97" x2="7381.97" xlink:href="#linear-gradient" y1="39.87" y2="-1.95"/><linearGradient gradientTransform="translate(-7366.47)" id="linear-gradient-89" x1="7381.97" x2="7381.97" xlink:href="#linear-gradient" y1="30.58" y2="-0.03"/><linearGradient gradientTransform="translate(-7366.47)" id="linear-gradient-90" x1="7381.97" x2="7381.97" xlink:href="#linear-gradient" y1="34.05" y2="21.11"/><linearGradient gradientTransform="translate(-7366.47)" id="linear-gradient-91" x1="7384.22" x2="7381.48" xlink:href="#linear-gradient" y1="33.06" y2="32.52"/><linearGradient id="linear-gradient-92" x1="15.5" x2="15.5" xlink:href="#linear-gradient" y1="42.5" y2="21.81"/><linearGradient gradientTransform="translate(-7366.47)" id="linear-gradient-93" x1="7380.59" x2="7380.59" xlink:href="#linear-gradient" y1="39.87" y2="-1.97"/><linearGradient id="linear-gradient-94" x1="14.12" x2="14.12" xlink:href="#linear-gradient" y1="42.5" y2="21.8"/><linearGradient gradientTransform="translate(-7366.47)" id="linear-gradient-95" x1="7380.59" x2="7380.59" xlink:href="#linear-gradient" y1="25.43" y2="19.03"/><linearGradient gradientTransform="translate(-7366.47)" id="linear-gradient-96" x1="7381.58" x2="7381.58" xlink:href="#linear-gradient" y1="39.87" y2="-1.97"/><linearGradient id="linear-gradient-97" x1="15.11" x2="15.11" xlink:href="#linear-gradient" y1="42.5" y2="21.8"/><linearGradient gradientTransform="translate(-7366.47)" id="linear-gradient-98" x1="7381.58" x2="7381.58" xlink:href="#linear-gradient" y1="25.43" y2="19.03"/><linearGradient gradientTransform="translate(-7366.47)" id="linear-gradient-99" x1="7379.3" x2="7379.3" xlink:href="#linear-gradient" y1="39.87" y2="-1.97"/><linearGradient gradientTransform="translate(-7366.47)" id="linear-gradient-100" x1="7379.3" x2="7379.3" xlink:href="#linear-gradient" y1="25.43" y2="19.03"/><linearGradient gradientTransform="translate(-7366.47)" id="linear-gradient-101" x1="7379.69" x2="7379.69" xlink:href="#linear-gradient" y1="39.87" y2="-1.97"/><linearGradient id="linear-gradient-102" x1="13.22" x2="13.22" xlink:href="#linear-gradient" y1="42.5" y2="21.8"/><linearGradient gradientTransform="translate(-7366.47)" id="linear-gradient-103" x1="7379.69" x2="7379.69" xlink:href="#linear-gradient" y1="25.43" y2="19.03"/><linearGradient gradientTransform="translate(-7366.47)" id="linear-gradient-104" x1="7382.48" x2="7382.48" xlink:href="#linear-gradient" y1="39.87" y2="-1.97"/><linearGradient id="linear-gradient-105" x1="16.01" x2="16.01" xlink:href="#linear-gradient" y1="42.5" y2="21.8"/><linearGradient gradientTransform="translate(-7366.47)" id="linear-gradient-106" x1="7382.48" x2="7382.48" xlink:href="#linear-gradient" y1="25.43" y2="19.03"/><linearGradient gradientTransform="translate(-7366.47)" id="linear-gradient-107" x1="7380.08" x2="7380.08" xlink:href="#linear-gradient" y1="39.87" y2="-1.96"/><linearGradient gradientTransform="translate(-7366.47)" id="linear-gradient-108" x1="7380.08" x2="7380.08" xlink:href="#linear-gradient" y1="24.96" y2="20.79"/><linearGradient gradientTransform="translate(-7366.47)" id="linear-gradient-109" x1="7382.15" x2="7382.15" xlink:href="#linear-gradient" y1="39.87" y2="-1.96"/><linearGradient gradientTransform="translate(-7366.47)" id="linear-gradient-110" x1="7382.15" x2="7382.15" xlink:href="#linear-gradient" y1="24.96" y2="20.79"/><linearGradient gradientTransform="translate(-7366.47)" id="linear-gradient-111" x1="7381.15" x2="7381.15" xlink:href="#linear-gradient" y1="39.87" y2="-1.96"/><linearGradient id="linear-gradient-112" x1="14.68" x2="14.68" xlink:href="#linear-gradient" y1="29.87" y2="21.11"/><linearGradient gradientTransform="translate(-7366.47)" id="linear-gradient-113" x1="7381.15" x2="7381.15" xlink:href="#linear-gradient" y1="24.96" y2="20.79"/><linearGradient gradientTransform="translate(-7366.47)" id="linear-gradient-114" x1="7418.82" x2="7418.82" xlink:href="#linear-gradient" y1="39.88" y2="-1.97"/><linearGradient gradientTransform="matrix(-1, 0, 0, 1, 465.99, 0)" gradientUnits="userSpaceOnUse" id="linear-gradient-115" x1="413.64" x2="413.64" y1="29.19" y2="16.05"><stop offset="0" stop-color="#fff"/><stop offset="0.84" stop-color="#cddfec"/></linearGradient><linearGradient gradientTransform="translate(-7366.47)" id="linear-gradient-116" x1="7420.72" x2="7420.72" xlink:href="#linear-gradient" y1="39.87" y2="-1.96"/><linearGradient gradientTransform="translate(-7366.47)" id="linear-gradient-117" x1="7420.79" x2="7386.44" xlink:href="#linear-gradient" y1="24.81" y2="-25.81"/><linearGradient id="linear-gradient-118" x1="411.74" x2="411.74" xlink:href="#linear-gradient-115" y1="29.19" y2="16.05"/><linearGradient gradientTransform="translate(-7366.47)" id="linear-gradient-119" x1="7419" x2="7419" xlink:href="#linear-gradient" y1="39.88" y2="-1.97"/><linearGradient gradientTransform="translate(-7366.47)" id="linear-gradient-120" x1="7419.88" x2="7385.53" xlink:href="#linear-gradient" y1="25.42" y2="-25.2"/><linearGradient id="linear-gradient-121" x1="413.46" x2="413.46" xlink:href="#linear-gradient-115" y1="29.19" y2="16.05"/><linearGradient gradientTransform="translate(-7366.47)" id="linear-gradient-122" x1="7420.82" x2="7420.82" xlink:href="#linear-gradient" y1="39.88" y2="-1.97"/><linearGradient gradientTransform="translate(-7366.47)" id="linear-gradient-123" x1="7421.2" x2="7386.84" xlink:href="#linear-gradient" y1="24.53" y2="-26.1"/><linearGradient id="linear-gradient-124" x1="413.2" x2="408.41" xlink:href="#linear-gradient-115" y1="24.69" y2="23.06"/><linearGradient gradientTransform="translate(-7366.47)" id="linear-gradient-125" x1="7419.26" x2="7419.26" xlink:href="#linear-gradient" y1="25.37" y2="23.77"/><linearGradient gradientTransform="translate(-7366.47)" id="linear-gradient-126" x1="7419.88" x2="7417.88" xlink:href="#linear-gradient" y1="25.49" y2="22.53"/><linearGradient id="linear-gradient-127" x1="413.24" x2="410.15" xlink:href="#linear-gradient-115" y1="24.58" y2="23.52"/><linearGradient gradientTransform="translate(-7366.47)" id="linear-gradient-128" x1="7419.98" x2="7419.98" xlink:href="#linear-gradient" y1="39.87" y2="-1.97"/><linearGradient gradientTransform="translate(-7366.47)" id="linear-gradient-129" x1="7420.36" x2="7386.01" xlink:href="#linear-gradient" y1="25.1" y2="-25.52"/><linearGradient id="linear-gradient-130" x1="412.48" x2="412.48" xlink:href="#linear-gradient-115" y1="29.19" y2="16.05"/><linearGradient id="linear-gradient-131" x1="413.15" x2="408.35" xlink:href="#linear-gradient-115" y1="24.84" y2="23.2"/><linearGradient gradientTransform="translate(-7366.47)" id="linear-gradient-132" x1="7411.29" x2="7411.29" xlink:href="#linear-gradient" y1="39.87" y2="-1.97"/><linearGradient id="linear-gradient-133" x1="421.17" x2="421.17" xlink:href="#linear-gradient-115" y1="24.51" y2="11.38"/><linearGradient gradientTransform="translate(-7366.47)" id="linear-gradient-134" x1="7413.42" x2="7413.42" xlink:href="#linear-gradient" y1="39.87" y2="-1.96"/><linearGradient id="linear-gradient-135" x1="419.04" x2="419.04" xlink:href="#linear-gradient-115" y1="24.51" y2="11.38"/><linearGradient gradientTransform="translate(-7366.47)" id="linear-gradient-136" x1="7413.04" x2="7413.04" xlink:href="#linear-gradient" y1="39.88" y2="-1.97"/><linearGradient id="linear-gradient-137" x1="420.98" x2="416.18" xlink:href="#linear-gradient-115" y1="20.01" y2="18.38"/><linearGradient gradientTransform="translate(-7366.47)" id="linear-gradient-138" x1="7412.44" x2="7412.44" xlink:href="#linear-gradient" y1="39.98" y2="-2.08"/><linearGradient id="linear-gradient-139" x1="420.82" x2="416.04" xlink:href="#linear-gradient-115" y1="20.48" y2="18.85"/><linearGradient gradientTransform="translate(-7366.47)" id="linear-gradient-140" x1="7412.2" x2="7412.2" xlink:href="#linear-gradient" y1="39.88" y2="-1.97"/><linearGradient id="linear-gradient-141" x1="420.26" x2="420.26" xlink:href="#linear-gradient-115" y1="24.51" y2="11.37"/><linearGradient id="linear-gradient-142" x1="420.93" x2="416.13" xlink:href="#linear-gradient-115" y1="20.16" y2="18.53"/><linearGradient id="linear-gradient-143" x1="33.38" x2="33.38" xlink:href="#linear-gradient" y1="54.58" y2="44.12"/><linearGradient gradientUnits="userSpaceOnUse" id="linear-gradient-144" x1="41.75" x2="41.75" y1="52.17" y2="25.33"><stop offset="0" stop-color="#7ff1a4"/><stop offset="0.52" stop-color="#2fbca4"/><stop offset="1" stop-color="#2f7da4"/></linearGradient><linearGradient id="linear-gradient-145" x1="38.14" x2="38.14" xlink:href="#linear-gradient-144" y1="60.67" y2="-10.86"/><linearGradient gradientUnits="userSpaceOnUse" id="linear-gradient-146" x1="38.14" x2="38.14" y1="41.12" y2="21.49"><stop offset="0" stop-color="#182ebd"/><stop offset="0.58" stop-color="#0d1226"/></linearGradient><linearGradient id="linear-gradient-147" x1="24.12" x2="24.12" xlink:href="#linear-gradient-144" y1="12.3" y2="10.36"/><linearGradient id="linear-gradient-148" x1="24.12" x2="24.12" xlink:href="#linear-gradient-144" y1="12.3" y2="10.36"/><linearGradient gradientUnits="userSpaceOnUse" id="linear-gradient-149" x1="26.67" x2="26.67" y1="18.25" y2="8.85"><stop offset="0" stop-color="#13beb0"/><stop offset="0.5" stop-color="#136690"/><stop offset="0.92" stop-color="#0d1226"/></linearGradient><linearGradient id="linear-gradient-150" x1="26.67" x2="26.67" xlink:href="#linear-gradient-149" y1="18.25" y2="8.85"/><linearGradient id="linear-gradient-151" x1="29.22" x2="29.22" xlink:href="#linear-gradient-149" y1="18.25" y2="8.85"/><linearGradient id="linear-gradient-152" x1="29.22" x2="29.22" xlink:href="#linear-gradient-149" y1="18.25" y2="8.85"/><linearGradient id="linear-gradient-153" x1="31.76" x2="31.76" xlink:href="#linear-gradient-149" y1="18.25" y2="8.85"/><linearGradient id="linear-gradient-154" x1="31.76" x2="31.76" xlink:href="#linear-gradient-149" y1="18.25" y2="8.85"/><linearGradient id="linear-gradient-155" x1="34.31" x2="34.31" xlink:href="#linear-gradient-149" y1="18.25" y2="8.85"/><linearGradient id="linear-gradient-156" x1="34.31" x2="34.31" xlink:href="#linear-gradient-149" y1="18.25" y2="8.85"/><linearGradient id="linear-gradient-157" x1="36.86" x2="36.86" xlink:href="#linear-gradient-149" y1="18.25" y2="8.85"/><linearGradient id="linear-gradient-158" x1="36.86" x2="36.86" xlink:href="#linear-gradient-149" y1="18.25" y2="8.85"/><linearGradient id="linear-gradient-159" x1="39.41" x2="39.41" xlink:href="#linear-gradient-149" y1="18.25" y2="8.85"/><linearGradient id="linear-gradient-160" x1="39.41" x2="39.41" xlink:href="#linear-gradient-149" y1="18.25" y2="8.85"/><linearGradient id="linear-gradient-161" x1="41.96" x2="41.96" xlink:href="#linear-gradient-149" y1="18.25" y2="8.85"/><linearGradient id="linear-gradient-162" x1="41.96" x2="41.96" xlink:href="#linear-gradient-149" y1="18.25" y2="8.85"/><linearGradient id="linear-gradient-163" x1="44.51" x2="44.51" xlink:href="#linear-gradient-149" y1="18.25" y2="8.85"/><linearGradient id="linear-gradient-164" x1="44.51" x2="44.51" xlink:href="#linear-gradient-149" y1="18.25" y2="8.85"/><linearGradient id="linear-gradient-165" x1="47.06" x2="47.06" xlink:href="#linear-gradient-149" y1="18.25" y2="8.85"/><linearGradient id="linear-gradient-166" x1="47.06" x2="47.06" xlink:href="#linear-gradient-149" y1="18.25" y2="8.85"/><linearGradient id="linear-gradient-167" x1="49.61" x2="49.61" xlink:href="#linear-gradient-149" y1="18.25" y2="8.85"/><linearGradient id="linear-gradient-168" x1="49.61" x2="49.61" xlink:href="#linear-gradient-149" y1="18.25" y2="8.85"/><linearGradient id="linear-gradient-169" x1="52.16" x2="52.16" xlink:href="#linear-gradient-149" y1="18.25" y2="8.85"/><linearGradient id="linear-gradient-170" x1="52.16" x2="52.16" xlink:href="#linear-gradient-149" y1="18.25" y2="8.85"/><linearGradient id="linear-gradient-171" x1="24.12" x2="24.12" xlink:href="#linear-gradient-149" y1="17.75" y2="8.37"/><linearGradient id="linear-gradient-172" x1="24.12" x2="24.12" xlink:href="#linear-gradient-149" y1="15.93" y2="14"/><linearGradient id="linear-gradient-173" x1="26.67" x2="26.67" xlink:href="#linear-gradient-149" y1="21.89" y2="12.49"/><linearGradient id="linear-gradient-175" x1="29.22" x2="29.22" xlink:href="#linear-gradient-149" y1="21.89" y2="12.49"/><linearGradient id="linear-gradient-177" x1="31.76" x2="31.76" xlink:href="#linear-gradient-149" y1="21.89" y2="12.49"/><linearGradient id="linear-gradient-179" x1="34.31" x2="34.31" xlink:href="#linear-gradient-149" y1="21.89" y2="12.49"/><linearGradient id="linear-gradient-181" x1="36.86" x2="36.86" xlink:href="#linear-gradient-149" y1="21.89" y2="12.49"/><linearGradient id="linear-gradient-183" x1="39.41" x2="39.41" xlink:href="#linear-gradient-149" y1="21.89" y2="12.49"/><linearGradient id="linear-gradient-185" x1="41.96" x2="41.96" xlink:href="#linear-gradient-149" y1="21.89" y2="12.49"/><linearGradient id="linear-gradient-187" x1="44.51" x2="44.51" xlink:href="#linear-gradient-149" y1="21.89" y2="12.49"/><linearGradient id="linear-gradient-189" x1="47.06" x2="47.06" xlink:href="#linear-gradient-149" y1="21.89" y2="12.49"/><linearGradient id="linear-gradient-191" x1="49.61" x2="49.61" xlink:href="#linear-gradient-149" y1="21.89" y2="12.49"/><linearGradient id="linear-gradient-193" x1="52.16" x2="52.16" xlink:href="#linear-gradient-149" y1="21.89" y2="12.49"/><linearGradient id="linear-gradient-195" x1="24.12" x2="24.12" xlink:href="#linear-gradient-149" y1="21.75" y2="10.25"/><linearGradient id="linear-gradient-196" x1="24.12" x2="24.12" xlink:href="#linear-gradient-149" y1="19.57" y2="17.64"/><linearGradient id="linear-gradient-197" x1="26.67" x2="26.67" xlink:href="#linear-gradient-149" y1="25.53" y2="16.13"/><linearGradient id="linear-gradient-199" x1="29.22" x2="29.22" xlink:href="#linear-gradient-149" y1="25.53" y2="16.13"/><linearGradient id="linear-gradient-201" x1="31.76" x2="31.76" xlink:href="#linear-gradient-149" y1="25.53" y2="16.13"/><linearGradient id="linear-gradient-203" x1="34.31" x2="34.31" xlink:href="#linear-gradient-149" y1="25.53" y2="16.13"/><linearGradient id="linear-gradient-205" x1="36.86" x2="36.86" xlink:href="#linear-gradient-149" y1="25.53" y2="16.13"/><linearGradient id="linear-gradient-207" x1="39.41" x2="39.41" xlink:href="#linear-gradient-149" y1="25.53" y2="16.13"/><linearGradient id="linear-gradient-209" x1="41.96" x2="41.96" xlink:href="#linear-gradient-149" y1="25.53" y2="16.13"/><linearGradient id="linear-gradient-211" x1="44.51" x2="44.51" xlink:href="#linear-gradient-149" y1="25.53" y2="16.13"/><linearGradient id="linear-gradient-213" x1="47.06" x2="47.06" xlink:href="#linear-gradient-149" y1="25.53" y2="16.13"/><linearGradient id="linear-gradient-215" x1="49.61" x2="49.61" xlink:href="#linear-gradient-149" y1="25.53" y2="16.13"/><linearGradient id="linear-gradient-217" x1="52.16" x2="52.16" xlink:href="#linear-gradient-149" y1="25.53" y2="16.13"/><linearGradient id="linear-gradient-219" x1="26.67" x2="26.67" xlink:href="#linear-gradient-149" y1="29.17" y2="19.77"/><linearGradient id="linear-gradient-220" x1="26.67" x2="26.67" xlink:href="#linear-gradient-149" y1="29.17" y2="19.77"/><linearGradient id="linear-gradient-221" x1="29.22" x2="29.22" xlink:href="#linear-gradient-149" y1="29.17" y2="19.77"/><linearGradient id="linear-gradient-222" x1="29.22" x2="29.22" xlink:href="#linear-gradient-149" y1="29.17" y2="19.77"/><linearGradient id="linear-gradient-223" x1="31.76" x2="31.76" xlink:href="#linear-gradient-149" y1="29.17" y2="19.77"/><linearGradient id="linear-gradient-224" x1="31.76" x2="31.76" xlink:href="#linear-gradient-149" y1="29.17" y2="19.77"/><linearGradient id="linear-gradient-225" x1="34.31" x2="34.31" xlink:href="#linear-gradient-149" y1="29.17" y2="19.77"/><linearGradient id="linear-gradient-226" x1="34.31" x2="34.31" xlink:href="#linear-gradient-149" y1="29.17" y2="19.77"/><linearGradient id="linear-gradient-227" x1="36.86" x2="36.86" xlink:href="#linear-gradient-149" y1="29.17" y2="19.77"/><linearGradient id="linear-gradient-228" x1="36.86" x2="36.86" xlink:href="#linear-gradient-149" y1="29.17" y2="19.77"/><linearGradient id="linear-gradient-229" x1="39.41" x2="39.41" xlink:href="#linear-gradient-149" y1="29.17" y2="19.77"/><linearGradient id="linear-gradient-230" x1="39.41" x2="39.41" xlink:href="#linear-gradient-149" y1="29.17" y2="19.77"/><linearGradient id="linear-gradient-231" x1="41.96" x2="41.96" xlink:href="#linear-gradient-149" y1="29.17" y2="19.77"/><linearGradient id="linear-gradient-232" x1="41.96" x2="41.96" xlink:href="#linear-gradient-149" y1="29.17" y2="19.77"/><linearGradient id="linear-gradient-233" x1="44.51" x2="44.51" xlink:href="#linear-gradient-149" y1="29.17" y2="19.77"/><linearGradient id="linear-gradient-234" x1="44.51" x2="44.51" xlink:href="#linear-gradient-149" y1="29.17" y2="19.77"/><linearGradient id="linear-gradient-235" x1="47.06" x2="47.06" xlink:href="#linear-gradient-149" y1="29.17" y2="19.77"/><linearGradient id="linear-gradient-236" x1="47.06" x2="47.06" xlink:href="#linear-gradient-149" y1="29.17" y2="19.77"/><linearGradient id="linear-gradient-237" x1="49.61" x2="49.61" xlink:href="#linear-gradient-149" y1="29.17" y2="19.77"/><linearGradient id="linear-gradient-238" x1="49.61" x2="49.61" xlink:href="#linear-gradient-149" y1="29.17" y2="19.77"/><linearGradient id="linear-gradient-239" x1="52.16" x2="52.16" xlink:href="#linear-gradient-149" y1="29.17" y2="19.77"/><linearGradient id="linear-gradient-240" x1="52.16" x2="52.16" xlink:href="#linear-gradient-149" y1="29.17" y2="19.77"/><linearGradient id="linear-gradient-241" x1="26.67" x2="26.67" xlink:href="#linear-gradient-149" y1="32.81" y2="23.41"/><linearGradient id="linear-gradient-242" x1="26.67" x2="26.67" xlink:href="#linear-gradient-149" y1="32.81" y2="23.41"/><linearGradient id="linear-gradient-243" x1="29.22" x2="29.22" xlink:href="#linear-gradient-149" y1="32.81" y2="23.41"/><linearGradient id="linear-gradient-244" x1="29.22" x2="29.22" xlink:href="#linear-gradient-149" y1="32.81" y2="23.41"/><linearGradient id="linear-gradient-245" x1="31.76" x2="31.76" xlink:href="#linear-gradient-149" y1="32.81" y2="23.41"/><linearGradient id="linear-gradient-246" x1="31.76" x2="31.76" xlink:href="#linear-gradient-149" y1="32.81" y2="23.41"/><linearGradient id="linear-gradient-247" x1="34.31" x2="34.31" xlink:href="#linear-gradient-149" y1="32.81" y2="23.41"/><linearGradient id="linear-gradient-248" x1="34.31" x2="34.31" xlink:href="#linear-gradient-149" y1="32.81" y2="23.41"/><linearGradient id="linear-gradient-249" x1="36.86" x2="36.86" xlink:href="#linear-gradient-149" y1="32.81" y2="23.41"/><linearGradient id="linear-gradient-250" x1="36.86" x2="36.86" xlink:href="#linear-gradient-149" y1="32.81" y2="23.41"/><linearGradient id="linear-gradient-251" x1="39.41" x2="39.41" xlink:href="#linear-gradient-149" y1="32.81" y2="23.41"/><linearGradient id="linear-gradient-252" x1="39.41" x2="39.41" xlink:href="#linear-gradient-149" y1="32.81" y2="23.41"/><linearGradient id="linear-gradient-253" x1="41.96" x2="41.96" xlink:href="#linear-gradient-149" y1="32.81" y2="23.41"/><linearGradient id="linear-gradient-254" x1="41.96" x2="41.96" xlink:href="#linear-gradient-149" y1="32.81" y2="23.41"/><linearGradient id="linear-gradient-255" x1="44.51" x2="44.51" xlink:href="#linear-gradient-149" y1="32.81" y2="23.41"/><linearGradient id="linear-gradient-256" x1="44.51" x2="44.51" xlink:href="#linear-gradient-149" y1="32.81" y2="23.41"/><linearGradient id="linear-gradient-257" x1="47.06" x2="47.06" xlink:href="#linear-gradient-149" y1="32.81" y2="23.41"/><linearGradient id="linear-gradient-258" x1="47.06" x2="47.06" xlink:href="#linear-gradient-149" y1="32.81" y2="23.41"/><linearGradient id="linear-gradient-259" x1="49.61" x2="49.61" xlink:href="#linear-gradient-149" y1="32.81" y2="23.41"/><linearGradient id="linear-gradient-260" x1="49.61" x2="49.61" xlink:href="#linear-gradient-149" y1="32.81" y2="23.41"/><linearGradient id="linear-gradient-261" x1="52.16" x2="52.16" xlink:href="#linear-gradient-149" y1="32.81" y2="23.41"/><linearGradient id="linear-gradient-262" x1="52.16" x2="52.16" xlink:href="#linear-gradient-149" y1="32.81" y2="23.41"/><linearGradient id="linear-gradient-263" x1="26.67" x2="26.67" xlink:href="#linear-gradient-149" y1="36.45" y2="27.05"/><linearGradient id="linear-gradient-265" x1="29.22" x2="29.22" xlink:href="#linear-gradient-149" y1="36.45" y2="27.05"/><linearGradient id="linear-gradient-267" x1="31.76" x2="31.76" xlink:href="#linear-gradient-149" y1="36.45" y2="27.05"/><linearGradient id="linear-gradient-269" x1="34.31" x2="34.31" xlink:href="#linear-gradient-149" y1="36.45" y2="27.05"/><linearGradient id="linear-gradient-271" x1="36.86" x2="36.86" xlink:href="#linear-gradient-149" y1="36.45" y2="27.05"/><linearGradient id="linear-gradient-273" x1="39.41" x2="39.41" xlink:href="#linear-gradient-149" y1="36.45" y2="27.05"/><linearGradient id="linear-gradient-275" x1="41.96" x2="41.96" xlink:href="#linear-gradient-149" y1="36.45" y2="27.05"/><linearGradient id="linear-gradient-277" x1="44.51" x2="44.51" xlink:href="#linear-gradient-149" y1="36.45" y2="27.05"/><linearGradient id="linear-gradient-279" x1="47.06" x2="47.06" xlink:href="#linear-gradient-149" y1="36.45" y2="27.05"/><linearGradient id="linear-gradient-281" x1="49.61" x2="49.61" xlink:href="#linear-gradient-149" y1="36.45" y2="27.05"/><linearGradient id="linear-gradient-283" x1="52.16" x2="52.16" xlink:href="#linear-gradient-149" y1="36.45" y2="27.05"/><linearGradient gradientTransform="translate(58.18 -70.71) rotate(24.43)" id="linear-gradient-285" x1="25.51" x2="32.47" xlink:href="#linear-gradient-144" y1="111.69" y2="136.67"/><linearGradient gradientTransform="translate(58.18 -70.71) rotate(24.43)" id="linear-gradient-286" x1="24.98" x2="33.8" xlink:href="#linear-gradient-144" y1="112.12" y2="129.5"/><linearGradient gradientTransform="matrix(-0.91, -0.41, -0.41, 0.91, 435.08, 100.51)" id="linear-gradient-287" x1="391.57" x2="381.62" xlink:href="#linear-gradient-144" y1="112.8" y2="125.57"/><linearGradient gradientTransform="matrix(-1, 0, 0, 1, 413.96, 0)" id="linear-gradient-288" x1="377.54" x2="381.53" xlink:href="#linear-gradient-144" y1="49.82" y2="64.12"/><linearGradient gradientTransform="matrix(-1, 0, 0, 1, 413.96, 0)" id="linear-gradient-289" x1="377.31" x2="382.36" xlink:href="#linear-gradient-144" y1="50.03" y2="59.98"/><linearGradient id="linear-gradient-290" x1="37.98" x2="34.08" xlink:href="#linear-gradient-144" y1="51" y2="56"/><linearGradient id="linear-gradient-291" x1="37.28" x2="33.72" xlink:href="#linear-gradient-144" y1="51.15" y2="55.72"/><linearGradient gradientTransform="matrix(0.99, 0.1, -0.1, 0.99, -24.28, -22.1)" id="linear-gradient-292" x1="62.03" x2="66.93" xlink:href="#linear-gradient-144" y1="63.79" y2="81.39"/><linearGradient gradientTransform="matrix(0.99, 0.1, -0.1, 0.99, -24.28, -22.1)" id="linear-gradient-293" x1="61.71" x2="67.93" xlink:href="#linear-gradient-144" y1="64.07" y2="76.31"/><linearGradient gradientTransform="matrix(-0.99, -0.1, -0.1, 0.99, 387.42, 21.13)" id="linear-gradient-294" x1="354.05" x2="347.04" xlink:href="#linear-gradient-144" y1="64.51" y2="73.5"/><linearGradient gradientUnits="userSpaceOnUse" id="linear-gradient-295" x1="40.7" x2="21.13" y1="33.89" y2="44.14"><stop offset="0" stop-color="#f9d5c5"/><stop offset="1" stop-color="#f78e6b"/></linearGradient><linearGradient id="linear-gradient-296" x1="27.36" x2="29.36" xlink:href="#linear-gradient-144" y1="49.18" y2="38.68"/><linearGradient id="linear-gradient-297" x1="40.42" x2="20.86" xlink:href="#linear-gradient-295" y1="33.36" y2="43.61"/><linearGradient gradientUnits="userSpaceOnUse" id="linear-gradient-298" x1="31.59" x2="21.21" y1="40.83" y2="40.58"><stop offset="0" stop-color="#3db6d3"/><stop offset="0.5" stop-color="#3d6fd3"/><stop offset="1" stop-color="#252784"/></linearGradient><linearGradient id="linear-gradient-299" x1="47.12" x2="-5.38" xlink:href="#linear-gradient-146" y1="29.32" y2="40.45"/><linearGradient id="linear-gradient-300" x1="32.14" x2="12.57" xlink:href="#linear-gradient-295" y1="17.55" y2="27.8"/><linearGradient gradientUnits="userSpaceOnUse" id="linear-gradient-301" x1="28.18" x2="13.49" y1="20.51" y2="24.88"><stop offset="0.04" stop-color="#b0462a"/><stop offset="0.51" stop-color="#70462a"/><stop offset="0.99" stop-color="#4d2c2a"/></linearGradient><linearGradient id="linear-gradient-302" x1="14.79" x2="21.35" xlink:href="#linear-gradient-301" y1="28.82" y2="20.63"/><linearGradient id="linear-gradient-303" x1="45.6" x2="-6.9" xlink:href="#linear-gradient-146" y1="22.12" y2="33.25"/><linearGradient id="linear-gradient-304" x1="16.05" x2="16.05" xlink:href="#linear-gradient" y1="97.25" y2="9.14"/><linearGradient id="linear-gradient-305" x1="14.06" x2="19.06" xlink:href="#linear-gradient-146" y1="58.07" y2="45.15"/><linearGradient id="linear-gradient-306" x1="21.33" x2="21.33" xlink:href="#linear-gradient" y1="97.25" y2="9.14"/><linearGradient id="linear-gradient-307" x1="18.72" x2="18.72" xlink:href="#linear-gradient" y1="97.25" y2="9.14"/><linearGradient id="linear-gradient-308" x1="13.82" x2="18.82" xlink:href="#linear-gradient-146" y1="64.45" y2="51.53"/><linearGradient id="linear-gradient-309" x1="23.41" x2="21.09" xlink:href="#linear-gradient-146" y1="62.29" y2="45.64"/><linearGradient id="linear-gradient-310" x1="24.27" x2="27.18" xlink:href="#linear-gradient-298" y1="60.09" y2="51.25"/><linearGradient id="linear-gradient-311" x1="47.34" x2="-3.48" xlink:href="#linear-gradient-146" y1="33.55" y2="44.32"/><linearGradient id="linear-gradient-312" x1="2.84" x2="22.99" xlink:href="#linear-gradient-146" y1="47.98" y2="38.81"/><linearGradient id="linear-gradient-313" x1="48.61" x2="-3.89" xlink:href="#linear-gradient-146" y1="36.35" y2="47.47"/></defs><title/><g class="cls-1"><g data-name="Layer 1" id="Layer_1"><circle class="cls-2" cx="32" cy="32" r="28"/><path class="cls-3" d="M24.75,17.21v8.33a7.62,7.62,0,0,1,2.86,1.06,7.67,7.67,0,0,1,13.2.46,7.7,7.7,0,0,1,4,.09,7.66,7.66,0,0,1,6.38-3.41c.15,0,.29,0,.43,0h.68a.9.9,0,0,1,.38.08l.35.15c.19,0,.38.08.56.14a7.66,7.66,0,0,1,3.23-5,28,28,0,0,0-2.43-3.88H26.75A2,2,0,0,0,24.75,17.21ZM43.88,19.1h.67a.9.9,0,0,1,.38.08l.88.39L47,19a.35.35,0,0,1,.25,0,.08.08,0,0,1,0,.13l-.85.69.82.36a.22.22,0,0,0,.19,0l.19-.1a.19.19,0,0,1,.17,0l.06,0a.08.08,0,0,1,0,.13l-.4.39a.21.21,0,0,1-.22,0l-.84-.3L46,20.21h0l-.89-.3-1.25-.45a.18.18,0,0,1,.06-.36ZM35.48,19h0a.3.3,0,0,0,.25-.13,1.86,1.86,0,0,1,2.62-.5.65.65,0,0,0,.45.11H39a1.42,1.42,0,0,1,1.42,1.42H34.59A.89.89,0,0,1,35.48,19Zm-5.79,1.87h0a.3.3,0,0,0,.25-.13,1.86,1.86,0,0,1,2.62-.5.65.65,0,0,0,.45.11h.17a1.42,1.42,0,0,1,1.42,1.42H28.8A.89.89,0,0,1,29.69,20.85Z"/><path class="cls-4" d="M53.62,24.13c-.18-.06-.37-.09-.56-.14l.53.23,1.23-.53a.35.35,0,0,1,.25,0,.08.08,0,0,1,0,.13l-.85.69.82.36a.22.22,0,0,0,.19,0l.19-.1a.19.19,0,0,1,.17,0l.06,0a.08.08,0,0,1,0,.13l-.4.39a.21.21,0,0,1-.22,0l-.84-.3-1.39-.47-.05,0h0l-1.19-.43a.18.18,0,0,1,.05-.35c-.15,0-.29,0-.43,0a7.66,7.66,0,0,0-6.38,3.41,7.7,7.7,0,0,0-4-.09,7.67,7.67,0,0,0-13.2-.46,7.62,7.62,0,0,0-2.86-1.06V28.1h1.72V31.4h1.21v.66h6.65v1.25H37V29.63a.91.91,0,0,1,.91-.91,3.57,3.57,0,0,1,3.57,3.57v1.31h.31v.56H46.3a2.64,2.64,0,0,1,.23-1.09A4.62,4.62,0,0,1,49,30.68l.55-.23.31-.14a7.72,7.72,0,0,0,1-.53l1.1-.72h0l.61-.4a5,5,0,0,1,2.75-.82h4.4a27.79,27.79,0,0,0-2.85-8.76A7.66,7.66,0,0,0,53.62,24.13Z"/><path class="cls-5" d="M53.62,24.13c-.18-.06-.37-.09-.56-.14l.53.23,1.23-.53a.35.35,0,0,1,.25,0,.08.08,0,0,1,0,.13l-.85.69.82.36a.22.22,0,0,0,.19,0l.19-.1a.19.19,0,0,1,.17,0l.06,0a.08.08,0,0,1,0,.13l-.4.39a.21.21,0,0,1-.22,0l-.84-.3-1.39-.47-.05,0h0l-1.19-.43a.18.18,0,0,1,.05-.35c-.15,0-.29,0-.43,0a7.66,7.66,0,0,0-6.38,3.41,7.7,7.7,0,0,0-4-.09,7.67,7.67,0,0,0-13.2-.46,7.62,7.62,0,0,0-2.86-1.06V28.1h1.72V31.4h1.21v.66h6.65v1.25H37V29.63a.91.91,0,0,1,.91-.91,3.57,3.57,0,0,1,3.57,3.57v1.31h.31v.56H46.3a2.64,2.64,0,0,1,.23-1.09A4.62,4.62,0,0,1,49,30.68l.55-.23.31-.14a7.72,7.72,0,0,0,1-.53l1.1-.72h0l.61-.4a5,5,0,0,1,2.75-.82h4.4a27.79,27.79,0,0,0-2.85-8.76A7.66,7.66,0,0,0,53.62,24.13Z"/><path class="cls-6" d="M24.75,35v.28a1.54,1.54,0,0,0,1.54,1.54h.28A1.82,1.82,0,0,1,24.75,35Z"/><path class="cls-7" d="M24.75,34.87V35a1.82,1.82,0,0,0,1.82,1.82h.09A1.91,1.91,0,0,1,24.75,34.87Z"/><path class="cls-8" d="M24.75,34.87V35a1.82,1.82,0,0,0,1.82,1.82h.09A1.91,1.91,0,0,1,24.75,34.87Z"/><path class="cls-9" d="M46.54,35.25a2.64,2.64,0,0,1-.24-1.09H41.75v2.62h7.19A2.64,2.64,0,0,1,46.54,35.25Z"/><path class="cls-10" d="M46.54,35.25a2.64,2.64,0,0,1-.24-1.09H41.75v2.62h7.19A2.64,2.64,0,0,1,46.54,35.25Z"/><path class="cls-11" d="M46.54,35.25a2.64,2.64,0,0,1-.24-1.09H41.75v2.62h7.19A2.64,2.64,0,0,1,46.54,35.25Z"/><path class="cls-12" d="M39.63,33.59h1.81V32.29a3.57,3.57,0,0,0-3.57-3.57.91.91,0,0,0-.91.91v3.69H34.34V32.06H27.68V31.4H26.48V28.1H24.75v6.77a1.91,1.91,0,0,0,1.91,1.91H37.51V33.59Z"/><path class="cls-13" d="M39.63,33.59h1.81V32.29a3.57,3.57,0,0,0-3.57-3.57.91.91,0,0,0-.91.91v3.69H34.34V32.06H27.68V31.4H26.48V28.1H24.75v6.77a1.91,1.91,0,0,0,1.91,1.91H37.51V33.59Z"/><path class="cls-14" d="M39.63,33.59h1.81V32.29a3.57,3.57,0,0,0-3.57-3.57.91.91,0,0,0-.91.91v3.69H34.34V32.06H27.68V31.4H26.48V28.1H24.75v6.77a1.91,1.91,0,0,0,1.91,1.91H37.51V33.59Z"/><path class="cls-15" d="M37.51,36.78V59.46c.72-.14,1.42-.32,2.12-.52V36.78Z"/><rect class="cls-16" height="3.19" width="2.12" x="37.51" y="33.59"/><rect class="cls-17" height="3.19" width="2.12" x="37.51" y="33.59"/><rect class="cls-18" height="3.19" width="2.12" x="37.51" y="33.59"/><rect class="cls-19" height="3.19" width="2.12" x="37.51" y="33.59"/><path class="cls-20" d="M39.63,36.78V58.94c.72-.2,1.43-.43,2.12-.69V36.78Z"/><rect class="cls-21" height="0.56" width="0.31" x="41.44" y="33.59"/><rect class="cls-22" height="0.56" width="0.31" x="41.44" y="33.59"/><rect class="cls-23" height="0.56" width="0.31" x="41.44" y="33.59"/><polygon class="cls-24" points="41.44 34.16 41.44 33.59 39.63 33.59 39.63 36.78 41.75 36.78 41.75 34.16 41.44 34.16"/><polygon class="cls-25" points="41.44 34.16 41.44 33.59 39.63 33.59 39.63 36.78 41.75 36.78 41.75 34.16 41.44 34.16"/><polygon class="cls-26" points="41.44 34.16 41.44 33.59 39.63 33.59 39.63 36.78 41.75 36.78 41.75 34.16 41.44 34.16"/><polygon class="cls-27" points="41.44 34.16 41.44 33.59 39.63 33.59 39.63 36.78 41.75 36.78 41.75 34.16 41.44 34.16"/><path class="cls-28" d="M58.35,34.16h1.56q0-.58.07-1.18a7.62,7.62,0,0,1-1.2-.29A7.56,7.56,0,0,1,58.35,34.16Z"/><path class="cls-29" d="M58.35,34.16h1.56q0-.58.07-1.18a7.62,7.62,0,0,1-1.2-.29A7.56,7.56,0,0,1,58.35,34.16Z"/><path class="cls-30" d="M52.54,28.66l-.61.4h1.68a.71.71,0,0,1,0,1.41h-3.5a.7.7,0,0,1-.37-.1l.1-.05-.31.14-.55.23a4.62,4.62,0,0,0-2.46,2.38,2.64,2.64,0,0,0-.23,1.09H58.35a7.56,7.56,0,0,0,.42-1.46A7.62,7.62,0,0,0,60,33c0-.33,0-.65,0-1a28.21,28.21,0,0,0-.31-4.15h-4.4A5,5,0,0,0,52.54,28.66Z"/><path class="cls-31" d="M52.54,28.66l-.61.4h1.68a.71.71,0,0,1,0,1.41h-3.5a.7.7,0,0,1-.37-.1l.1-.05-.31.14-.55.23a4.62,4.62,0,0,0-2.46,2.38,2.64,2.64,0,0,0-.23,1.09H58.35a7.56,7.56,0,0,0,.42-1.46A7.62,7.62,0,0,0,60,33c0-.33,0-.65,0-1a28.21,28.21,0,0,0-.31-4.15h-4.4A5,5,0,0,0,52.54,28.66Z"/><path class="cls-32" d="M52.54,28.66l-.61.4h1.68a.71.71,0,0,1,0,1.41h-3.5a.7.7,0,0,1-.37-.1l.1-.05-.31.14-.55.23a4.62,4.62,0,0,0-2.46,2.38,2.64,2.64,0,0,0-.23,1.09H58.35a7.56,7.56,0,0,0,.42-1.46A7.62,7.62,0,0,0,60,33c0-.33,0-.65,0-1a28.21,28.21,0,0,0-.31-4.15h-4.4A5,5,0,0,0,52.54,28.66Z"/><path class="cls-33" d="M56.68,36.78h2.9q.22-1.29.32-2.62H58.35A7.67,7.67,0,0,1,56.68,36.78Z"/><path class="cls-34" d="M56.68,36.78h2.9q.22-1.29.32-2.62H58.35A7.67,7.67,0,0,1,56.68,36.78Z"/><path class="cls-35" d="M56.68,36.78h2.9q.22-1.29.32-2.62H58.35A7.67,7.67,0,0,1,56.68,36.78Z"/><path class="cls-36" d="M46.3,34.16a2.64,2.64,0,0,0,2.64,2.62h7.75a7.67,7.67,0,0,0,1.67-2.62Z"/><path class="cls-37" d="M46.3,34.16a2.64,2.64,0,0,0,2.64,2.62h7.75a7.67,7.67,0,0,0,1.67-2.62Z"/><path class="cls-38" d="M46.3,34.16a2.64,2.64,0,0,0,2.64,2.62h7.75a7.67,7.67,0,0,0,1.67-2.62Z"/><path class="cls-39" d="M46.3,34.16a2.64,2.64,0,0,0,2.64,2.62h7.75a7.67,7.67,0,0,0,1.67-2.62Z"/><polygon class="cls-40" points="51.93 29.06 50.83 29.78 51.93 29.06 51.93 29.06"/><polygon class="cls-41" points="51.93 29.06 50.83 29.78 51.93 29.06 51.93 29.06"/><polygon class="cls-42" points="51.93 29.06 50.83 29.78 51.93 29.06 51.93 29.06"/><path class="cls-43" d="M49.85,30.31a7.7,7.7,0,0,0,1-.53A7.72,7.72,0,0,1,49.85,30.31Z"/><path class="cls-44" d="M49.85,30.31a7.7,7.7,0,0,0,1-.53A7.72,7.72,0,0,1,49.85,30.31Z"/><path class="cls-45" d="M49.85,30.31a7.7,7.7,0,0,0,1-.53A7.72,7.72,0,0,1,49.85,30.31Z"/><path class="cls-46" d="M50.12,30.47h3.5a.71.71,0,0,0,0-1.41H51.93l-1.1.72a7.7,7.7,0,0,1-1,.53l-.1.05A.7.7,0,0,0,50.12,30.47Z"/><path class="cls-47" d="M50.12,30.47h3.5a.71.71,0,0,0,0-1.41H51.93l-1.1.72a7.7,7.7,0,0,1-1,.53l-.1.05A.7.7,0,0,0,50.12,30.47Z"/><path class="cls-48" d="M50.12,30.47h3.5a.71.71,0,0,0,0-1.41H51.93l-1.1.72a7.7,7.7,0,0,1-1,.53l-.1.05A.7.7,0,0,0,50.12,30.47Z"/><path class="cls-49" d="M50.12,30.47h3.5a.71.71,0,0,0,0-1.41H51.93l-1.1.72a7.7,7.7,0,0,1-1,.53l-.1.05A.7.7,0,0,0,50.12,30.47Z"/><path class="cls-50" d="M6.21,28.48h.38a7.66,7.66,0,0,1,6.62-4.41.64.64,0,0,1-.06-.12L13,23.46h0l-.37-1.29h0a.08.08,0,0,1-.08-.08v-.16a.33.33,0,0,1,.33-.33h1.41l.35-3.94a0,0,0,0,1,.09,0l.35,3.94h1.29a.33.33,0,0,1,.33.33v.16a.08.08,0,0,1-.08.08h0L16.07,24a.64.64,0,0,1-.37.41,7.64,7.64,0,0,1,2.71,1.43,7.66,7.66,0,0,1,2.3-.35l.57,0V17.35a2.13,2.13,0,0,0-2.13-2.13H9.58a28,28,0,0,0-3.06,5.17.48.48,0,0,1,.26.42H6.33a27.77,27.77,0,0,0-1.78,5.66A7.69,7.69,0,0,1,6.21,28.48Zm1-7h.08a.31.31,0,0,0,.22-.05.89.89,0,0,1,1.26.24.14.14,0,0,0,.12.06h0a.43.43,0,0,1,.43.43H6.55A.68.68,0,0,1,7.24,21.49Z"/><path class="cls-51" d="M21.27,36.78h0V34.66c0,.07,0,.13,0,.2Z"/><path class="cls-52" d="M19.23,36.78h0Z"/><path class="cls-53" d="M19.23,36.78h0Z"/><path class="cls-54" d="M5.35,32.17h0A1.49,1.49,0,0,1,7,31.94l1.71.85a1.13,1.13,0,0,0,1.16-.1l1.67-1.21a1.15,1.15,0,0,1,1.13-.12l.59.26.69-7a.2.2,0,0,0-.2-.22.63.63,0,0,1-.56-.34,7.66,7.66,0,0,0-6.62,4.41H6.21a7.69,7.69,0,0,0-1.67-2A28.12,28.12,0,0,0,4,32c0,.07,0,.13,0,.2l.16.09A1,1,0,0,0,5.35,32.17Z"/><path class="cls-55" d="M5.35,32.17h0A1.49,1.49,0,0,1,7,31.94l1.71.85a1.13,1.13,0,0,0,1.16-.1l1.67-1.21a1.15,1.15,0,0,1,1.13-.12l.59.26.69-7a.2.2,0,0,0-.2-.22.63.63,0,0,1-.56-.34,7.66,7.66,0,0,0-6.62,4.41H6.21a7.69,7.69,0,0,0-1.67-2A28.12,28.12,0,0,0,4,32c0,.07,0,.13,0,.2l.16.09A1,1,0,0,0,5.35,32.17Z"/><path class="cls-56" d="M18.42,25.81a7.64,7.64,0,0,0-2.71-1.43.63.63,0,0,1-.25.05.2.2,0,0,0-.2.22l.51,5.14h1.91V32H19v.68H20V28.1h1.29v6.76c0-.07,0-.13,0-.2V25.48l-.57,0A7.66,7.66,0,0,0,18.42,25.81Z"/><path class="cls-57" d="M18.42,25.81a7.64,7.64,0,0,0-2.71-1.43.63.63,0,0,1-.25.05.2.2,0,0,0-.2.22l.51,5.14h1.91V32H19v.68H20V28.1h1.29v6.76c0-.07,0-.13,0-.2V25.48l-.57,0A7.66,7.66,0,0,0,18.42,25.81Z"/><path class="cls-58" d="M14.72,17.67a0,0,0,0,0-.09,0l-.35,3.94h.78Z"/><path class="cls-59" d="M14.72,17.67a0,0,0,0,0-.09,0l-.35,3.94h.78Z"/><path class="cls-60" d="M10.41,33.6a2.69,2.69,0,0,1,1.9-.79h.86l.12-1.19-.59-.26a1.15,1.15,0,0,0-1.13.12L9.9,32.7a1.13,1.13,0,0,1-1.16.1L7,31.94a1.49,1.49,0,0,0-1.66.23h0a1,1,0,0,1-1.19.12L4,32.2c0,.67,0,1.34.09,2H9.8Z"/><path class="cls-61" d="M10.41,33.6a2.69,2.69,0,0,1,1.9-.79h.86l.12-1.19-.59-.26a1.15,1.15,0,0,0-1.13.12L9.9,32.7a1.13,1.13,0,0,1-1.16.1L7,31.94a1.49,1.49,0,0,0-1.66.23h0a1,1,0,0,1-1.19.12L4,32.2c0,.67,0,1.34.09,2H9.8Z"/><path class="cls-62" d="M10.41,33.6a2.69,2.69,0,0,1,1.9-.79h.86l.12-1.19-.59-.26a1.15,1.15,0,0,0-1.13.12L9.9,32.7a1.13,1.13,0,0,1-1.16.1L7,31.94a1.49,1.49,0,0,0-1.66.23h0a1,1,0,0,1-1.19.12L4,32.2c0,.67,0,1.34.09,2H9.8Z"/><path class="cls-63" d="M6.78,20.81a.48.48,0,0,0-.26-.42l-.19.42h.45Z"/><path class="cls-64" d="M6.78,20.81a.48.48,0,0,0-.26-.42l-.19.42h.45Z"/><path class="cls-65" d="M7.92,22.17H9.34a.43.43,0,0,0-.43-.43h0a.14.14,0,0,1-.12-.06.89.89,0,0,0-1.26-.24.31.31,0,0,1-.22.05H7.24a.68.68,0,0,0-.68.68H7.92Z"/><path class="cls-66" d="M7.92,22.17H9.34a.43.43,0,0,0-.43-.43h0a.14.14,0,0,1-.12-.06.89.89,0,0,0-1.26-.24.31.31,0,0,1-.22.05H7.24a.68.68,0,0,0-.68.68H7.92Z"/><path class="cls-67" d="M30.58,21.74h4a1.42,1.42,0,0,0-1.42-1.42H33a.65.65,0,0,1-.45-.11,1.86,1.86,0,0,0-2.62.5.3.3,0,0,1-.25.13h0a.89.89,0,0,0-.89.89h1.78Z"/><path class="cls-68" d="M30.58,21.74h4a1.42,1.42,0,0,0-1.42-1.42H33a.65.65,0,0,1-.45-.11,1.86,1.86,0,0,0-2.62.5.3.3,0,0,1-.25.13h0a.89.89,0,0,0-.89.89h1.78Z"/><path class="cls-69" d="M36.37,19.87h4A1.42,1.42,0,0,0,39,18.44h-.17a.65.65,0,0,1-.45-.11,1.86,1.86,0,0,0-2.62.5.3.3,0,0,1-.25.13h0a.89.89,0,0,0-.89.89h1.78Z"/><path class="cls-70" d="M36.37,19.87h4A1.42,1.42,0,0,0,39,18.44h-.17a.65.65,0,0,1-.45-.11,1.86,1.86,0,0,0-2.62.5.3.3,0,0,1-.25.13h0a.89.89,0,0,0-.89.89h1.78Z"/><path class="cls-71" d="M15.7,24.37a.64.64,0,0,0,.37-.41l.51-1.8-.37,1.29h-.79l.24-1.29h-.12l-.24,1.29h-.63V22.17h-.12v1.29h-.63l-.24-1.29h-.12l.24,1.29H13l.15.51a.64.64,0,0,0,.06.12l.33,0A7.65,7.65,0,0,1,15.7,24.37Z"/><path class="cls-72" d="M15.7,24.37a.64.64,0,0,0,.37-.41l.51-1.8-.37,1.29h-.79l.24-1.29h-.12l-.24,1.29h-.63V22.17h-.12v1.29h-.63l-.24-1.29h-.12l.24,1.29H13l.15.51a.64.64,0,0,0,.06.12l.33,0A7.65,7.65,0,0,1,15.7,24.37Z"/><path class="cls-73" d="M21.27,34.86a2.12,2.12,0,0,1-2,1.92h2Z"/><path class="cls-74" d="M21.27,34.86a2.12,2.12,0,0,1-2,1.92h2Z"/><path class="cls-75" d="M15.76,29.8l-.51-5.14a.2.2,0,0,1,.2-.22.63.63,0,0,0,.25-.05,7.65,7.65,0,0,0-2.16-.31l-.33,0a.63.63,0,0,0,.56.34.2.2,0,0,1,.2.22l-.69,7,2,.87V29.8Z"/><path class="cls-76" d="M15.76,29.8l-.51-5.14a.2.2,0,0,1,.2-.22.63.63,0,0,0,.25-.05,7.65,7.65,0,0,0-2.16-.31l-.33,0a.63.63,0,0,0,.56.34.2.2,0,0,1,.2.22l-.69,7,2,.87V29.8Z"/><path class="cls-77" d="M15.76,29.8l-.51-5.14a.2.2,0,0,1,.2-.22.63.63,0,0,0,.25-.05,7.65,7.65,0,0,0-2.16-.31l-.33,0a.63.63,0,0,0,.56.34.2.2,0,0,1,.2.22l-.69,7,2,.87V29.8Z"/><path class="cls-78" d="M21.27,34.86V28.1H20v4.58H19V32H17.68V29.8h-.91l-.68,2.87H15.7l2,.87-.43,3.25h1.95A2.12,2.12,0,0,0,21.27,34.86Z"/><path class="cls-79" d="M21.27,34.86V28.1H20v4.58H19V32H17.68V29.8h-.91l-.68,2.87H15.7l2,.87-.43,3.25h1.95A2.12,2.12,0,0,0,21.27,34.86Z"/><path class="cls-80" d="M21.27,34.86V28.1H20v4.58H19V32H17.68V29.8h-.91l-.68,2.87H15.7l2,.87-.43,3.25h1.95A2.12,2.12,0,0,0,21.27,34.86Z"/><path class="cls-81" d="M17.71,33.53l-2-.87h-.4V32.5l-2-.87-.12,1.19h-.86a2.69,2.69,0,0,0-1.9.79l-.6.6H4.09q.1,1.31.32,2.58H17.28Z"/><path class="cls-82" d="M17.71,33.53l-2-.87h-.4V32.5l-2-.87-.12,1.19h-.86a2.69,2.69,0,0,0-1.9.79l-.6.6H4.09q.1,1.31.32,2.58H17.28Z"/><path class="cls-83" d="M17.71,33.53l-2-.87h-.4V32.5l-2-.87-.12,1.19h-.86a2.69,2.69,0,0,0-1.9.79l-.6.6H4.09q.1,1.31.32,2.58H17.28Z"/><path class="cls-84" d="M17.71,33.53l-2-.87h-.4V32.5l-2-.87-.12,1.19h-.86a2.69,2.69,0,0,0-1.9.79l-.6.6H4.09q.1,1.31.32,2.58H17.28Z"/><polygon class="cls-85" points="16.77 29.8 15.77 29.8 15.31 29.8 15.31 32.5 15.7 32.67 16.08 32.67 16.77 29.8"/><polygon class="cls-86" points="16.77 29.8 15.77 29.8 15.31 29.8 15.31 32.5 15.7 32.67 16.08 32.67 16.77 29.8"/><polygon class="cls-87" points="16.77 29.8 15.77 29.8 15.31 29.8 15.31 32.5 15.7 32.67 16.08 32.67 16.77 29.8"/><polygon class="cls-88" points="16.77 29.8 15.77 29.8 15.31 29.8 15.31 32.5 15.7 32.67 16.08 32.67 16.77 29.8"/><polygon class="cls-89" points="15.31 32.67 15.7 32.67 15.31 32.5 15.31 32.67"/><polygon class="cls-90" points="15.31 32.67 15.7 32.67 15.31 32.5 15.31 32.67"/><polygon class="cls-91" points="15.31 32.67 15.7 32.67 15.31 32.5 15.31 32.67"/><polygon class="cls-92" points="15.31 32.67 15.7 32.67 15.31 32.5 15.31 32.67"/><polygon class="cls-93" points="15.31 32.67 15.7 32.67 15.31 32.5 15.31 32.67"/><polygon class="cls-94" points="13.93 23.46 14.55 23.46 14.55 22.17 13.69 22.17 13.93 23.46"/><polygon class="cls-95" points="13.93 23.46 14.55 23.46 14.55 22.17 13.69 22.17 13.93 23.46"/><polygon class="cls-96" points="13.93 23.46 14.55 23.46 14.55 22.17 13.69 22.17 13.93 23.46"/><polygon class="cls-97" points="14.68 23.46 15.3 23.46 15.54 22.17 14.68 22.17 14.68 23.46"/><polygon class="cls-98" points="14.68 23.46 15.3 23.46 15.54 22.17 14.68 22.17 14.68 23.46"/><polygon class="cls-99" points="14.68 23.46 15.3 23.46 15.54 22.17 14.68 22.17 14.68 23.46"/><polygon class="cls-100" points="13.01 23.46 13.01 23.46 12.64 22.17 13.01 23.46"/><polygon class="cls-101" points="13.01 23.46 13.01 23.46 12.64 22.17 13.01 23.46"/><polygon class="cls-102" points="13.56 22.17 12.64 22.17 13.01 23.46 13.8 23.46 13.56 22.17"/><polygon class="cls-103" points="13.56 22.17 12.64 22.17 13.01 23.46 13.8 23.46 13.56 22.17"/><polygon class="cls-104" points="13.56 22.17 12.64 22.17 13.01 23.46 13.8 23.46 13.56 22.17"/><polygon class="cls-105" points="15.43 23.46 16.22 23.46 16.59 22.17 15.67 22.17 15.43 23.46"/><polygon class="cls-106" points="15.43 23.46 16.22 23.46 16.59 22.17 15.67 22.17 15.43 23.46"/><polygon class="cls-107" points="15.43 23.46 16.22 23.46 16.59 22.17 15.67 22.17 15.43 23.46"/><path class="cls-108" d="M13.69,22.17h1l-.4-.4V21.6H12.87a.33.33,0,0,0-.33.33v.16a.08.08,0,0,0,.08.08h1.07Z"/><path class="cls-109" d="M13.69,22.17h1l-.4-.4V21.6H12.87a.33.33,0,0,0-.33.33v.16a.08.08,0,0,0,.08.08h1.07Z"/><path class="cls-110" d="M14.68,22.17h1.93a.08.08,0,0,0,.08-.08v-.16a.33.33,0,0,0-.33-.33H15.07v.16Z"/><path class="cls-111" d="M14.68,22.17h1.93a.08.08,0,0,0,.08-.08v-.16a.33.33,0,0,0-.33-.33H15.07v.16Z"/><polygon class="cls-112" points="14.68 22.17 15.08 21.77 15.06 21.6 14.29 21.6 14.28 21.77 14.68 22.17"/><polygon class="cls-113" points="14.68 22.17 15.08 21.77 15.06 21.6 14.29 21.6 14.28 21.77 14.68 22.17"/><polygon class="cls-114" points="14.68 22.17 15.08 21.77 15.06 21.6 14.29 21.6 14.28 21.77 14.68 22.17"/><path class="cls-115" d="M52.71,23.84a.9.9,0,0,0-.38-.08h-.68a7.63,7.63,0,0,1,1.41.21Z"/><path class="cls-116" d="M52.71,23.84a.9.9,0,0,0-.38-.08h-.68a7.63,7.63,0,0,1,1.41.21Z"/><path class="cls-117" d="M52.79,24.57l.05,0,1.39.47.84.3a.21.21,0,0,0,.22,0l.4-.39a.08.08,0,0,0,0-.13l-.06,0a.19.19,0,0,0-.17,0l-.19.1a.22.22,0,0,1-.19,0l-.82-.36-.48.38Z"/><path class="cls-118" d="M52.79,24.57l.05,0,1.39.47.84.3a.21.21,0,0,0,.22,0l.4-.39a.08.08,0,0,0,0-.13l-.06,0a.19.19,0,0,0-.17,0l-.19.1a.22.22,0,0,1-.19,0l-.82-.36-.48.38Z"/><path class="cls-119" d="M52.79,24.57l.05,0,1.39.47.84.3a.21.21,0,0,0,.22,0l.4-.39a.08.08,0,0,0,0-.13l-.06,0a.19.19,0,0,0-.17,0l-.19.1a.22.22,0,0,1-.19,0l-.82-.36-.48.38Z"/><path class="cls-120" d="M51.49,23.9a.18.18,0,0,0,.11.24l1.19.43.79-.34L53.06,24a7.63,7.63,0,0,0-1.41-.21A.18.18,0,0,0,51.49,23.9Z"/><path class="cls-121" d="M51.49,23.9a.18.18,0,0,0,.11.24l1.19.43.79-.34L53.06,24a7.63,7.63,0,0,0-1.41-.21A.18.18,0,0,0,51.49,23.9Z"/><path class="cls-122" d="M51.49,23.9a.18.18,0,0,0,.11.24l1.19.43.79-.34L53.06,24a7.63,7.63,0,0,0-1.41-.21A.18.18,0,0,0,51.49,23.9Z"/><path class="cls-123" d="M55.09,23.82a.08.08,0,0,0,0-.13.35.35,0,0,0-.25,0l-1.23.53.65.29Z"/><path class="cls-124" d="M55.09,23.82a.08.08,0,0,0,0-.13.35.35,0,0,0-.25,0l-1.23.53.65.29Z"/><path class="cls-125" d="M55.09,23.82a.08.08,0,0,0,0-.13.35.35,0,0,0-.25,0l-1.23.53.65.29Z"/><polygon class="cls-126" points="52.79 24.57 52.79 24.57 52.79 24.57 52.79 24.57"/><polygon class="cls-127" points="52.79 24.57 52.79 24.57 52.79 24.57 52.79 24.57"/><polygon class="cls-128" points="52.79 24.57 52.79 24.57 52.79 24.57 52.79 24.57"/><polygon class="cls-129" points="52.79 24.57 53.76 24.89 54.23 24.51 53.58 24.22 52.79 24.57 52.79 24.57"/><polygon class="cls-130" points="52.79 24.57 53.76 24.89 54.23 24.51 53.58 24.22 52.79 24.57 52.79 24.57"/><polygon class="cls-131" points="52.79 24.57 53.76 24.89 54.23 24.51 53.58 24.22 52.79 24.57 52.79 24.57"/><polygon class="cls-132" points="52.79 24.57 53.76 24.89 54.23 24.51 53.58 24.22 52.79 24.57 52.79 24.57"/><path class="cls-133" d="M43.82,19.45l1.25.45.89.3L45,19.89l.79-.34-.88-.39a.9.9,0,0,0-.38-.08h-.67a.18.18,0,0,0-.06.36Z"/><path class="cls-134" d="M43.82,19.45l1.25.45.89.3L45,19.89l.79-.34-.88-.39a.9.9,0,0,0-.38-.08h-.67a.18.18,0,0,0-.06.36Z"/><path class="cls-135" d="M46.45,20.37l.84.3a.21.21,0,0,0,.22,0l.4-.39a.08.08,0,0,0,0-.13l-.06,0a.19.19,0,0,0-.17,0l-.19.1a.22.22,0,0,1-.19,0l-.82-.36-.48.38Z"/><path class="cls-136" d="M46.45,20.37l.84.3a.21.21,0,0,0,.22,0l.4-.39a.08.08,0,0,0,0-.13l-.06,0a.19.19,0,0,0-.17,0l-.19.1a.22.22,0,0,1-.19,0l-.82-.36-.48.38Z"/><path class="cls-137" d="M47.31,19.14a.08.08,0,0,0,0-.13A.35.35,0,0,0,47,19l-1.23.53.65.29Z"/><path class="cls-138" d="M47.31,19.14a.08.08,0,0,0,0-.13A.35.35,0,0,0,47,19l-1.23.53.65.29Z"/><polygon class="cls-139" points="45.98 20.21 45.98 20.21 45.95 20.21 45.98 20.21"/><polygon class="cls-140" points="45.98 20.21 45.98 20.21 45.95 20.21 45.98 20.21"/><polygon class="cls-141" points="45.95 20.21 45.98 20.21 46.45 19.83 45.8 19.54 45.01 19.89 45.95 20.21"/><polygon class="cls-142" points="45.95 20.21 45.98 20.21 46.45 19.83 45.8 19.54 45.01 19.89 45.95 20.21"/><polygon class="cls-143" points="45.95 20.21 45.98 20.21 46.45 19.83 45.8 19.54 45.01 19.89 45.95 20.21"/><path class="cls-144" d="M37.07,56.79a.67.67,0,0,0-.67-.57H30.35a.67.67,0,0,0-.67.57,9.86,9.86,0,0,0-.11,1.46,5.64,5.64,0,0,0,.29,1.66c.71.05,1.42.09,2.13.09a28.13,28.13,0,0,0,5-.45,5.21,5.21,0,0,0,.19-1.3A9.86,9.86,0,0,0,37.07,56.79Z"/><rect class="cls-145" height="26.92" rx="1.18" ry="1.18" width="36.5" x="23.5" y="6.68"/><rect class="cls-146" height="26.92" rx="1.18" ry="1.18" width="36.5" x="19.89" y="6.68"/><rect class="cls-147" height="23.57" rx="0.78" ry="0.78" width="32.66" x="21.81" y="8.35"/><path class="cls-148" d="M25.05,11V10a.24.24,0,0,0-.24-.24H23.42a.24.24,0,0,0-.24.24V11Z"/><path class="cls-149" d="M23.18,11.12v.94a.24.24,0,0,0,.24.24h1.39a.24.24,0,0,0,.24-.24v-.94Z"/><path class="cls-150" d="M27.6,11V10a.24.24,0,0,0-.24-.24H26a.24.24,0,0,0-.24.24V11Z"/><path class="cls-151" d="M25.73,11.12v.94a.24.24,0,0,0,.24.24h1.39a.24.24,0,0,0,.24-.24v-.94Z"/><path class="cls-152" d="M30.15,11V10a.24.24,0,0,0-.24-.24H28.52a.24.24,0,0,0-.24.24V11Z"/><path class="cls-153" d="M28.28,11.12v.94a.24.24,0,0,0,.24.24h1.39a.24.24,0,0,0,.24-.24v-.94Z"/><path class="cls-154" d="M32.7,11V10a.24.24,0,0,0-.24-.24H31.07a.24.24,0,0,0-.24.24V11Z"/><path class="cls-155" d="M30.83,11.12v.94a.24.24,0,0,0,.24.24h1.39a.24.24,0,0,0,.24-.24v-.94Z"/><path class="cls-156" d="M35.25,11V10A.24.24,0,0,0,35,9.77H33.62a.24.24,0,0,0-.24.24V11Z"/><path class="cls-157" d="M33.38,11.12v.94a.24.24,0,0,0,.24.24H35a.24.24,0,0,0,.24-.24v-.94Z"/><path class="cls-158" d="M37.8,11V10a.24.24,0,0,0-.24-.24H36.17a.24.24,0,0,0-.24.24V11Z"/><path class="cls-159" d="M35.93,11.12v.94a.24.24,0,0,0,.24.24h1.39a.24.24,0,0,0,.24-.24v-.94Z"/><path class="cls-160" d="M40.35,11V10a.24.24,0,0,0-.24-.24H38.72a.24.24,0,0,0-.24.24V11Z"/><path class="cls-161" d="M38.48,11.12v.94a.24.24,0,0,0,.24.24h1.39a.24.24,0,0,0,.24-.24v-.94Z"/><path class="cls-162" d="M42.9,11V10a.24.24,0,0,0-.24-.24H41.27A.24.24,0,0,0,41,10V11Z"/><path class="cls-163" d="M41,11.12v.94a.24.24,0,0,0,.24.24h1.39a.24.24,0,0,0,.24-.24v-.94Z"/><path class="cls-164" d="M45.45,11V10a.24.24,0,0,0-.24-.24H43.82a.24.24,0,0,0-.24.24V11Z"/><path class="cls-165" d="M43.58,11.12v.94a.24.24,0,0,0,.24.24h1.39a.24.24,0,0,0,.24-.24v-.94Z"/><path class="cls-166" d="M48,11V10a.24.24,0,0,0-.24-.24H46.37a.24.24,0,0,0-.24.24V11Z"/><path class="cls-167" d="M46.13,11.12v.94a.24.24,0,0,0,.24.24h1.39a.24.24,0,0,0,.24-.24v-.94Z"/><path class="cls-168" d="M50.55,11V10a.24.24,0,0,0-.24-.24H48.92a.24.24,0,0,0-.24.24V11Z"/><path class="cls-169" d="M48.68,11.12v.94a.24.24,0,0,0,.24.24h1.39a.24.24,0,0,0,.24-.24v-.94Z"/><path class="cls-170" d="M53.1,11V10a.24.24,0,0,0-.24-.24H51.47a.24.24,0,0,0-.24.24V11Z"/><path class="cls-171" d="M51.23,11.12v.94a.24.24,0,0,0,.24.24h1.39a.24.24,0,0,0,.24-.24v-.94Z"/><path class="cls-172" d="M25.05,14.59v-.94a.24.24,0,0,0-.24-.24H23.42a.24.24,0,0,0-.24.24v.94Z"/><path class="cls-173" d="M23.18,14.76v.94a.24.24,0,0,0,.24.24h1.39a.24.24,0,0,0,.24-.24v-.94Z"/><path class="cls-174" d="M27.6,14.59v-.94a.24.24,0,0,0-.24-.24H26a.24.24,0,0,0-.24.24v.94Z"/><path class="cls-174" d="M25.73,14.76v.94a.24.24,0,0,0,.24.24h1.39a.24.24,0,0,0,.24-.24v-.94Z"/><path class="cls-175" d="M30.15,14.59v-.94a.24.24,0,0,0-.24-.24H28.52a.24.24,0,0,0-.24.24v.94Z"/><path class="cls-175" d="M28.28,14.76v.94a.24.24,0,0,0,.24.24h1.39a.24.24,0,0,0,.24-.24v-.94Z"/><path class="cls-176" d="M32.7,14.59v-.94a.24.24,0,0,0-.24-.24H31.07a.24.24,0,0,0-.24.24v.94Z"/><path class="cls-176" d="M30.83,14.76v.94a.24.24,0,0,0,.24.24h1.39a.24.24,0,0,0,.24-.24v-.94Z"/><path class="cls-177" d="M35.25,14.59v-.94a.24.24,0,0,0-.24-.24H33.62a.24.24,0,0,0-.24.24v.94Z"/><path class="cls-177" d="M33.38,14.76v.94a.24.24,0,0,0,.24.24H35a.24.24,0,0,0,.24-.24v-.94Z"/><path class="cls-178" d="M37.8,14.59v-.94a.24.24,0,0,0-.24-.24H36.17a.24.24,0,0,0-.24.24v.94Z"/><path class="cls-178" d="M35.93,14.76v.94a.24.24,0,0,0,.24.24h1.39a.24.24,0,0,0,.24-.24v-.94Z"/><path class="cls-179" d="M40.35,14.59v-.94a.24.24,0,0,0-.24-.24H38.72a.24.24,0,0,0-.24.24v.94Z"/><path class="cls-179" d="M38.48,14.76v.94a.24.24,0,0,0,.24.24h1.39a.24.24,0,0,0,.24-.24v-.94Z"/><path class="cls-180" d="M42.9,14.59v-.94a.24.24,0,0,0-.24-.24H41.27a.24.24,0,0,0-.24.24v.94Z"/><path class="cls-180" d="M41,14.76v.94a.24.24,0,0,0,.24.24h1.39a.24.24,0,0,0,.24-.24v-.94Z"/><path class="cls-181" d="M45.45,14.59v-.94a.24.24,0,0,0-.24-.24H43.82a.24.24,0,0,0-.24.24v.94Z"/><path class="cls-181" d="M43.58,14.76v.94a.24.24,0,0,0,.24.24h1.39a.24.24,0,0,0,.24-.24v-.94Z"/><path class="cls-182" d="M48,14.59v-.94a.24.24,0,0,0-.24-.24H46.37a.24.24,0,0,0-.24.24v.94Z"/><path class="cls-182" d="M46.13,14.76v.94a.24.24,0,0,0,.24.24h1.39A.24.24,0,0,0,48,15.7v-.94Z"/><path class="cls-183" d="M50.55,14.59v-.94a.24.24,0,0,0-.24-.24H48.92a.24.24,0,0,0-.24.24v.94Z"/><path class="cls-183" d="M48.68,14.76v.94a.24.24,0,0,0,.24.24h1.39a.24.24,0,0,0,.24-.24v-.94Z"/><path class="cls-184" d="M53.1,14.59v-.94a.24.24,0,0,0-.24-.24H51.47a.24.24,0,0,0-.24.24v.94Z"/><path class="cls-184" d="M51.23,14.76v.94a.24.24,0,0,0,.24.24h1.39a.24.24,0,0,0,.24-.24v-.94Z"/><path class="cls-185" d="M25.05,18.23v-.94a.24.24,0,0,0-.24-.24H23.42a.24.24,0,0,0-.24.24v.94Z"/><path class="cls-186" d="M23.18,18.4v.94a.24.24,0,0,0,.24.24h1.39a.24.24,0,0,0,.24-.24V18.4Z"/><path class="cls-187" d="M27.6,18.23v-.94a.24.24,0,0,0-.24-.24H26a.24.24,0,0,0-.24.24v.94Z"/><path class="cls-187" d="M25.73,18.4v.94a.24.24,0,0,0,.24.24h1.39a.24.24,0,0,0,.24-.24V18.4Z"/><path class="cls-188" d="M30.15,18.23v-.94a.24.24,0,0,0-.24-.24H28.52a.24.24,0,0,0-.24.24v.94Z"/><path class="cls-188" d="M28.28,18.4v.94a.24.24,0,0,0,.24.24h1.39a.24.24,0,0,0,.24-.24V18.4Z"/><path class="cls-189" d="M32.7,18.23v-.94a.24.24,0,0,0-.24-.24H31.07a.24.24,0,0,0-.24.24v.94Z"/><path class="cls-189" d="M30.83,18.4v.94a.24.24,0,0,0,.24.24h1.39a.24.24,0,0,0,.24-.24V18.4Z"/><path class="cls-190" d="M35.25,18.23v-.94A.24.24,0,0,0,35,17H33.62a.24.24,0,0,0-.24.24v.94Z"/><path class="cls-190" d="M33.38,18.4v.94a.24.24,0,0,0,.24.24H35a.24.24,0,0,0,.24-.24V18.4Z"/><path class="cls-191" d="M37.8,18.23v-.94a.24.24,0,0,0-.24-.24H36.17a.24.24,0,0,0-.24.24v.94Z"/><path class="cls-191" d="M35.93,18.4v.94a.24.24,0,0,0,.24.24h1.39a.24.24,0,0,0,.24-.24V18.4Z"/><path class="cls-192" d="M40.35,18.23v-.94a.24.24,0,0,0-.24-.24H38.72a.24.24,0,0,0-.24.24v.94Z"/><path class="cls-192" d="M38.48,18.4v.94a.24.24,0,0,0,.24.24h1.39a.24.24,0,0,0,.24-.24V18.4Z"/><path class="cls-193" d="M42.9,18.23v-.94a.24.24,0,0,0-.24-.24H41.27a.24.24,0,0,0-.24.24v.94Z"/><path class="cls-193" d="M41,18.4v.94a.24.24,0,0,0,.24.24h1.39a.24.24,0,0,0,.24-.24V18.4Z"/><path class="cls-194" d="M45.45,18.23v-.94a.24.24,0,0,0-.24-.24H43.82a.24.24,0,0,0-.24.24v.94Z"/><path class="cls-194" d="M43.58,18.4v.94a.24.24,0,0,0,.24.24h1.39a.24.24,0,0,0,.24-.24V18.4Z"/><path class="cls-195" d="M48,18.23v-.94a.24.24,0,0,0-.24-.24H46.37a.24.24,0,0,0-.24.24v.94Z"/><path class="cls-195" d="M46.13,18.4v.94a.24.24,0,0,0,.24.24h1.39a.24.24,0,0,0,.24-.24V18.4Z"/><path class="cls-196" d="M50.55,18.23v-.94a.24.24,0,0,0-.24-.24H48.92a.24.24,0,0,0-.24.24v.94Z"/><path class="cls-196" d="M48.68,18.4v.94a.24.24,0,0,0,.24.24h1.39a.24.24,0,0,0,.24-.24V18.4Z"/><path class="cls-197" d="M53.1,18.23v-.94a.24.24,0,0,0-.24-.24H51.47a.24.24,0,0,0-.24.24v.94Z"/><path class="cls-197" d="M51.23,18.4v.94a.24.24,0,0,0,.24.24h1.39a.24.24,0,0,0,.24-.24V18.4Z"/><path class="cls-198" d="M27.6,21.87v-.94a.24.24,0,0,0-.24-.24H26a.24.24,0,0,0-.24.24v.94Z"/><path class="cls-199" d="M25.73,22V23a.24.24,0,0,0,.24.24h1.39A.24.24,0,0,0,27.6,23V22Z"/><path class="cls-200" d="M30.15,21.87v-.94a.24.24,0,0,0-.24-.24H28.52a.24.24,0,0,0-.24.24v.94Z"/><path class="cls-201" d="M28.28,22V23a.24.24,0,0,0,.24.24h1.39a.24.24,0,0,0,.24-.24V22Z"/><path class="cls-202" d="M32.7,21.87v-.94a.24.24,0,0,0-.24-.24H31.07a.24.24,0,0,0-.24.24v.94Z"/><path class="cls-203" d="M30.83,22V23a.24.24,0,0,0,.24.24h1.39A.24.24,0,0,0,32.7,23V22Z"/><path class="cls-204" d="M35.25,21.87v-.94a.24.24,0,0,0-.24-.24H33.62a.24.24,0,0,0-.24.24v.94Z"/><path class="cls-205" d="M33.38,22V23a.24.24,0,0,0,.24.24H35a.24.24,0,0,0,.24-.24V22Z"/><path class="cls-206" d="M37.8,21.87v-.94a.24.24,0,0,0-.24-.24H36.17a.24.24,0,0,0-.24.24v.94Z"/><path class="cls-207" d="M35.93,22V23a.24.24,0,0,0,.24.24h1.39A.24.24,0,0,0,37.8,23V22Z"/><path class="cls-208" d="M40.35,21.87v-.94a.24.24,0,0,0-.24-.24H38.72a.24.24,0,0,0-.24.24v.94Z"/><path class="cls-209" d="M38.48,22V23a.24.24,0,0,0,.24.24h1.39a.24.24,0,0,0,.24-.24V22Z"/><path class="cls-210" d="M42.9,21.87v-.94a.24.24,0,0,0-.24-.24H41.27a.24.24,0,0,0-.24.24v.94Z"/><path class="cls-211" d="M41,22V23a.24.24,0,0,0,.24.24h1.39A.24.24,0,0,0,42.9,23V22Z"/><path class="cls-212" d="M45.45,21.87v-.94a.24.24,0,0,0-.24-.24H43.82a.24.24,0,0,0-.24.24v.94Z"/><path class="cls-213" d="M43.58,22V23a.24.24,0,0,0,.24.24h1.39a.24.24,0,0,0,.24-.24V22Z"/><path class="cls-214" d="M48,21.87v-.94a.24.24,0,0,0-.24-.24H46.37a.24.24,0,0,0-.24.24v.94Z"/><path class="cls-215" d="M46.13,22V23a.24.24,0,0,0,.24.24h1.39A.24.24,0,0,0,48,23V22Z"/><path class="cls-216" d="M50.55,21.87v-.94a.24.24,0,0,0-.24-.24H48.92a.24.24,0,0,0-.24.24v.94Z"/><path class="cls-217" d="M48.68,22V23a.24.24,0,0,0,.24.24h1.39a.24.24,0,0,0,.24-.24V22Z"/><path class="cls-218" d="M53.1,21.87v-.94a.24.24,0,0,0-.24-.24H51.47a.24.24,0,0,0-.24.24v.94Z"/><path class="cls-219" d="M51.23,22V23a.24.24,0,0,0,.24.24h1.39A.24.24,0,0,0,53.1,23V22Z"/><path class="cls-220" d="M27.6,25.51v-.94a.24.24,0,0,0-.24-.24H26a.24.24,0,0,0-.24.24v.94Z"/><path class="cls-221" d="M25.73,25.68v.94a.24.24,0,0,0,.24.24h1.39a.24.24,0,0,0,.24-.24v-.94Z"/><path class="cls-222" d="M30.15,25.51v-.94a.24.24,0,0,0-.24-.24H28.52a.24.24,0,0,0-.24.24v.94Z"/><path class="cls-223" d="M28.28,25.68v.94a.24.24,0,0,0,.24.24h1.39a.24.24,0,0,0,.24-.24v-.94Z"/><path class="cls-224" d="M32.7,25.51v-.94a.24.24,0,0,0-.24-.24H31.07a.24.24,0,0,0-.24.24v.94Z"/><path class="cls-225" d="M30.83,25.68v.94a.24.24,0,0,0,.24.24h1.39a.24.24,0,0,0,.24-.24v-.94Z"/><path class="cls-226" d="M35.25,25.51v-.94a.24.24,0,0,0-.24-.24H33.62a.24.24,0,0,0-.24.24v.94Z"/><path class="cls-227" d="M33.38,25.68v.94a.24.24,0,0,0,.24.24H35a.24.24,0,0,0,.24-.24v-.94Z"/><path class="cls-228" d="M37.8,25.51v-.94a.24.24,0,0,0-.24-.24H36.17a.24.24,0,0,0-.24.24v.94Z"/><path class="cls-229" d="M35.93,25.68v.94a.24.24,0,0,0,.24.24h1.39a.24.24,0,0,0,.24-.24v-.94Z"/><path class="cls-230" d="M40.35,25.51v-.94a.24.24,0,0,0-.24-.24H38.72a.24.24,0,0,0-.24.24v.94Z"/><path class="cls-231" d="M38.48,25.68v.94a.24.24,0,0,0,.24.24h1.39a.24.24,0,0,0,.24-.24v-.94Z"/><path class="cls-232" d="M42.9,25.51v-.94a.24.24,0,0,0-.24-.24H41.27a.24.24,0,0,0-.24.24v.94Z"/><path class="cls-233" d="M41,25.68v.94a.24.24,0,0,0,.24.24h1.39a.24.24,0,0,0,.24-.24v-.94Z"/><path class="cls-234" d="M45.45,25.51v-.94a.24.24,0,0,0-.24-.24H43.82a.24.24,0,0,0-.24.24v.94Z"/><path class="cls-235" d="M43.58,25.68v.94a.24.24,0,0,0,.24.24h1.39a.24.24,0,0,0,.24-.24v-.94Z"/><path class="cls-236" d="M48,25.51v-.94a.24.24,0,0,0-.24-.24H46.37a.24.24,0,0,0-.24.24v.94Z"/><path class="cls-237" d="M46.13,25.68v.94a.24.24,0,0,0,.24.24h1.39a.24.24,0,0,0,.24-.24v-.94Z"/><path class="cls-238" d="M50.55,25.51v-.94a.24.24,0,0,0-.24-.24H48.92a.24.24,0,0,0-.24.24v.94Z"/><path class="cls-239" d="M48.68,25.68v.94a.24.24,0,0,0,.24.24h1.39a.24.24,0,0,0,.24-.24v-.94Z"/><path class="cls-240" d="M53.1,25.51v-.94a.24.24,0,0,0-.24-.24H51.47a.24.24,0,0,0-.24.24v.94Z"/><path class="cls-241" d="M51.23,25.68v.94a.24.24,0,0,0,.24.24h1.39a.24.24,0,0,0,.24-.24v-.94Z"/><path class="cls-242" d="M27.6,29.15V28.2a.24.24,0,0,0-.24-.24H26a.24.24,0,0,0-.24.24v.94Z"/><path class="cls-242" d="M25.73,29.32v.94a.24.24,0,0,0,.24.24h1.39a.24.24,0,0,0,.24-.24v-.94Z"/><path class="cls-243" d="M30.15,29.15V28.2a.24.24,0,0,0-.24-.24H28.52a.24.24,0,0,0-.24.24v.94Z"/><path class="cls-243" d="M28.28,29.32v.94a.24.24,0,0,0,.24.24h1.39a.24.24,0,0,0,.24-.24v-.94Z"/><path class="cls-244" d="M32.7,29.15V28.2a.24.24,0,0,0-.24-.24H31.07a.24.24,0,0,0-.24.24v.94Z"/><path class="cls-244" d="M30.83,29.32v.94a.24.24,0,0,0,.24.24h1.39a.24.24,0,0,0,.24-.24v-.94Z"/><path class="cls-245" d="M35.25,29.15V28.2A.24.24,0,0,0,35,28H33.62a.24.24,0,0,0-.24.24v.94Z"/><path class="cls-245" d="M33.38,29.32v.94a.24.24,0,0,0,.24.24H35a.24.24,0,0,0,.24-.24v-.94Z"/><path class="cls-246" d="M37.8,29.15V28.2a.24.24,0,0,0-.24-.24H36.17a.24.24,0,0,0-.24.24v.94Z"/><path class="cls-246" d="M35.93,29.32v.94a.24.24,0,0,0,.24.24h1.39a.24.24,0,0,0,.24-.24v-.94Z"/><path class="cls-247" d="M40.35,29.15V28.2a.24.24,0,0,0-.24-.24H38.72a.24.24,0,0,0-.24.24v.94Z"/><path class="cls-247" d="M38.48,29.32v.94a.24.24,0,0,0,.24.24h1.39a.24.24,0,0,0,.24-.24v-.94Z"/><path class="cls-248" d="M42.9,29.15V28.2a.24.24,0,0,0-.24-.24H41.27a.24.24,0,0,0-.24.24v.94Z"/><path class="cls-248" d="M41,29.32v.94a.24.24,0,0,0,.24.24h1.39a.24.24,0,0,0,.24-.24v-.94Z"/><path class="cls-249" d="M45.45,29.15V28.2a.24.24,0,0,0-.24-.24H43.82a.24.24,0,0,0-.24.24v.94Z"/><path class="cls-249" d="M43.58,29.32v.94a.24.24,0,0,0,.24.24h1.39a.24.24,0,0,0,.24-.24v-.94Z"/><path class="cls-250" d="M48,29.15V28.2a.24.24,0,0,0-.24-.24H46.37a.24.24,0,0,0-.24.24v.94Z"/><path class="cls-250" d="M46.13,29.32v.94a.24.24,0,0,0,.24.24h1.39a.24.24,0,0,0,.24-.24v-.94Z"/><path class="cls-251" d="M50.55,29.15V28.2a.24.24,0,0,0-.24-.24H48.92a.24.24,0,0,0-.24.24v.94Z"/><path class="cls-251" d="M48.68,29.32v.94a.24.24,0,0,0,.24.24h1.39a.24.24,0,0,0,.24-.24v-.94Z"/><path class="cls-252" d="M53.1,29.15V28.2a.24.24,0,0,0-.24-.24H51.47a.24.24,0,0,0-.24.24v.94Z"/><path class="cls-252" d="M51.23,29.32v.94a.24.24,0,0,0,.24.24h1.39a.24.24,0,0,0,.24-.24v-.94Z"/><path class="cls-253" d="M32,50.41a.92.92,0,0,1,.46,1.22l-.18.39A3.55,3.55,0,0,0,32,53.31a3.25,3.25,0,0,0,.45,1.83l.63,1.06h1.54l.9-1.63a4,4,0,0,0-.06-4,1.49,1.49,0,0,1,.18-1.77l.17-.19a2.13,2.13,0,0,0,.55-1.33l0-.32a.89.89,0,0,0-.69-.91l-.55-.12a.48.48,0,0,1-.37-.57l.15-.72a1.88,1.88,0,0,0-.81-2h0a1,1,0,0,0-1.46.42,1.55,1.55,0,0,0-.08,1l.14.53a.55.55,0,0,1,0,.37l-.29.63a.84.84,0,0,0,0,.73l.17.34a.63.63,0,0,1-.12.73l-.35.35a2.18,2.18,0,0,0-.63,1.84A1,1,0,0,0,32,50.41Z"/><path class="cls-254" d="M33.74,45.43l-.09,1a1,1,0,0,0,.27.76,1.13,1.13,0,0,1,.16,1.39,3.35,3.35,0,0,0-.34,2.74,2.08,2.08,0,0,1,.07.92l-.3,2,.08,1.91h1l.9-1.63a4,4,0,0,0-.06-4,1.5,1.5,0,0,1,.18-1.77l.17-.19a2.13,2.13,0,0,0,.55-1.33l0-.32a.89.89,0,0,0-.69-.91l-.55-.12a.48.48,0,0,1-.37-.57l.15-.72a1.88,1.88,0,0,0-.81-2h0a.4.4,0,0,0-.62.4l.26,1.81A2.37,2.37,0,0,1,33.74,45.43Z"/><path class="cls-255" d="M33.15,49.84c.15.13.29.28.44.43l.41.41a2.9,2.9,0,0,1-.05.34l-.17.76-.17.77c0,.11-.05.23-.07.34l0-.14c0-.15-.07-.29-.12-.44a3.08,3.08,0,0,0-.17-.42l-.2-.41.18.42a3.07,3.07,0,0,1,.15.43c0,.14.06.29.09.44l.07.36c0,.07,0,.14,0,.2a5.62,5.62,0,0,0,0,.79c0,.26,0,.52.05.78,0,.43.07.85.1,1.28h0c0-.43,0-.86,0-1.29,0-.26,0-.52,0-.78a5.49,5.49,0,0,1,.05-.77,7.3,7.3,0,0,1,.15-.76l.06-.23.13-.27c.07-.14.13-.27.2-.4a3.05,3.05,0,0,1,.25-.37l.28-.36-.3.34a3.1,3.1,0,0,0-.27.36c-.08.12-.15.25-.22.38l.05-.21.18-.76a3.1,3.1,0,0,0,.07-.8,4.12,4.12,0,0,0-.1-.7l.25-.51c.09-.18.18-.37.28-.55A4.12,4.12,0,0,1,35,48l.38-.49-.4.46a4.18,4.18,0,0,0-.37.49c-.11.17-.21.36-.31.54l-.2.36-.14-.66-.16-.77a3.65,3.65,0,0,1-.11-.76,6.65,6.65,0,0,1,.09-.77,7.67,7.67,0,0,0,.09-.79,4.81,4.81,0,0,0-.07-.79l-.11-.78.06.78a4.74,4.74,0,0,1,0,.78c0,.26-.07.51-.11.77a6.69,6.69,0,0,0-.11.79,2.28,2.28,0,0,0,0,.4c0,.13,0,.26.07.39l.3,1.54a4.62,4.62,0,0,1,.11.76c0,.08,0,.17,0,.25l-.35-.31c-.15-.14-.3-.28-.46-.41a4.2,4.2,0,0,0-.51-.35l-.53-.31.51.34A4.12,4.12,0,0,1,33.15,49.84Z"/><path class="cls-256" d="M35.42,56.19a2,2,0,0,0,0-.22v-.24A.53.53,0,0,1,36,55.2a.56.56,0,0,0,.48-.26,1.25,1.25,0,0,0,.11-1.11l-.1-.26a.36.36,0,0,1,.11-.41l.17-.14a.48.48,0,0,0,.18-.37v-.4A.31.31,0,0,1,37,52l.2-.24a.89.89,0,0,0,.2-.57.57.57,0,0,0-.66-.57h0a1.08,1.08,0,0,0-.89.83l-.09.41a.28.28,0,0,1-.33.21l-.31-.07a.51.51,0,0,0-.58.31l-.07.17a1.22,1.22,0,0,0,0,.82l0,.14a.86.86,0,0,1-.32,1,2.29,2.29,0,0,0-1,1.72Z"/><path class="cls-257" d="M34.48,56.19l.13-.46a1.19,1.19,0,0,1,.26-.46,1.92,1.92,0,0,0,.47-1.51.65.65,0,0,1,.41-.69.54.54,0,0,0,.32-.33l.19-.54a1.36,1.36,0,0,1,.14-.29L37,51a.23.23,0,0,0-.23-.35h0a1.08,1.08,0,0,0-.89.83l-.09.41a.28.28,0,0,1-.33.21l-.31-.07a.51.51,0,0,0-.58.31l-.07.17a1.22,1.22,0,0,0,0,.82l0,.14a.86.86,0,0,1-.33,1,2.29,2.29,0,0,0-1,1.72Z"/><path class="cls-258" d="M34.64,55.94A1.33,1.33,0,0,1,36.2,54.5c-.39.14-.88.18-1.29.28a24.63,24.63,0,0,0,1.72-3.28"/><path class="cls-259" d="M36.39,51.88a7.46,7.46,0,0,1-1.23,2.29,12.75,12.75,0,0,1-.23-1.27,3.68,3.68,0,0,1-.32,2.7c0-.25-.13-.5-.16-.75a5,5,0,0,1,.09,1.07"/><path class="cls-260" d="M29.77,50.48a.39.39,0,0,1,.06.25l-.05.49a.59.59,0,0,0,.17.48l.19.19a.44.44,0,0,1,.08.51l-.16.31a1.54,1.54,0,0,0,0,1.37.69.69,0,0,0,.55.38.65.65,0,0,1,.58.71l0,.3a2.49,2.49,0,0,0,0,.71h2.68a2.82,2.82,0,0,0-.95-2.39,1.05,1.05,0,0,1-.27-1.22l.07-.16a1.5,1.5,0,0,0,.07-1l-.06-.22a.63.63,0,0,0-.67-.46l-.39,0a.34.34,0,0,1-.37-.3L31.25,50a1.33,1.33,0,0,0-1-1.12h0a.71.71,0,0,0-.88.61,1.09,1.09,0,0,0,.18.72Z"/><path class="cls-261" d="M30.51,50.39a1.66,1.66,0,0,1,.13.37l.16.68a.67.67,0,0,0,.35.44.8.8,0,0,1,.41.89,2.36,2.36,0,0,0,.38,1.91,1.47,1.47,0,0,1,.25.6l.16.91h1.51a2.82,2.82,0,0,0-.94-2.39,1.05,1.05,0,0,1-.27-1.22l.07-.16a1.5,1.5,0,0,0,.07-1l-.06-.22a.63.63,0,0,0-.67-.46l-.39,0a.34.34,0,0,1-.37-.3L31.25,50a1.33,1.33,0,0,0-1-1.12h0a.28.28,0,0,0-.33.4Z"/><path class="cls-262" d="M30.68,50.88c0,.17.07.36.1.54a4.72,4.72,0,0,0,.1.55,1.61,1.61,0,0,0,.11.27l.13.24.27.48.27.48a3.25,3.25,0,0,1,.24.48l.06.17-.3-.13-.4-.17a3,3,0,0,0-.42-.12l-.42-.09.42.11a2.92,2.92,0,0,1,.41.14l.39.19.36.18a2,2,0,0,1,0,.24l.05.55.05.55c0,.08,0,.16,0,.24l-.05-.08-.18-.27a2.16,2.16,0,0,0-.21-.24L31.5,55l.21.24a2.16,2.16,0,0,1,.19.25c.06.09.11.18.16.28l.13.22s0,.1,0,.14l0,.09h.1s0-.08,0-.12a5.14,5.14,0,0,1-.07-.54v-.17l0-.21c0-.11,0-.21,0-.31a2.14,2.14,0,0,1,.08-.31l.11-.3-.12.3a2.17,2.17,0,0,0-.1.3c0,.1,0,.2-.06.3V55l0-.55a2.18,2.18,0,0,0-.13-.55,2.9,2.9,0,0,0-.23-.44l.05-.4c0-.14,0-.29.06-.43a2.91,2.91,0,0,1,.11-.42l.14-.41-.17.4a3,3,0,0,0-.14.41c0,.14-.06.28-.09.43l-.05.29-.24-.41-.28-.48a2.57,2.57,0,0,1-.24-.48,4.68,4.68,0,0,1-.11-.53,5.4,5.4,0,0,0-.12-.54,3.39,3.39,0,0,0-.22-.51l-.25-.49.21.51A3.34,3.34,0,0,1,30.68,50.88Z"/><path class="cls-263" d="M27.91,41.24s1.61.2,2.29-.78,1.19-3.08.44-2.55"/><path class="cls-264" d="M28.81,37.29l-1,3.55a.18.18,0,0,0,.18.23h1.71a.18.18,0,0,0,.18-.14l.86-3.55a.18.18,0,0,0-.18-.23H29A.18.18,0,0,0,28.81,37.29Z"/><path class="cls-265" d="M28.95,37.46l-.85,3.16a.14.14,0,0,0,.14.18h1.34a.14.14,0,0,0,.14-.11l.76-3.16a.14.14,0,0,0-.14-.18H29.08A.14.14,0,0,0,28.95,37.46Z"/><path class="cls-266" d="M27,39.57a.8.8,0,0,0,.71-.44,1.29,1.29,0,0,1,1-.79c.41,0,.69-.16.72,0s-.72.51-.67.68.51,1.87-.95,2.06"/><path class="cls-267" d="M25.56,39.39h1.62s1.41.91.73,2.19L26.34,42"/><path class="cls-264" d="M26.16,39s1.95,1.45.45,3"/><path class="cls-268" d="M12.93,29.07s-1.49.27-1.49,3.07S11,42.34,15.9,43.44"/><path class="cls-269" d="M23.1,20.78a1.92,1.92,0,0,1,.4,1.43,12.74,12.74,0,0,0-.07,2.68c.15,1.54-1,2.66-2.35,2.16s-4.34-1.9-4-4.63C17.3,20,21.39,18.62,23.1,20.78Z"/><path class="cls-270" d="M21.87,18.85A2.33,2.33,0,0,1,24,21.34a3.14,3.14,0,0,1-.75,1.9C22,24.59,22.37,25.07,22.1,25s.13-.92-.25-1.08-.57,1.4-.16,1.71c.19.15.18,1.86-1.76,1.36-2.11-.54-2.08.31-2.52-.67S14.47,19.68,18.75,19A12.23,12.23,0,0,1,21.87,18.85Z"/><path class="cls-271" d="M18.75,19l1-.13c2-.14,3.16,1.22,1.52,2.43s-1,4.11-.41,3.22,1-.63,1-.63c-.39-.15-.57,1.4-.16,1.71.19.15.18,1.86-1.76,1.36-2.11-.54-2.08.31-2.52-.67S14.47,19.68,18.75,19Z"/><path class="cls-272" d="M22.64,28.46a2.34,2.34,0,0,0-1.43-1.59c-1.23-.51-3.48-.51-3.88-.17a8.18,8.18,0,0,0-1.05,1.64"/><path class="cls-273" d="M16.94,49.5c-.08-.61-.13-1.14-.15-1.65l-3,1.44a34.46,34.46,0,0,0,0,4,28.05,28.05,0,0,0,4.61,3.22A60.58,60.58,0,0,1,16.94,49.5Z"/><path class="cls-274" d="M16.94,49.5c-.08-.61-.13-1.14-.15-1.65l-3,1.44a34.46,34.46,0,0,0,0,4,28.05,28.05,0,0,0,4.61,3.22A60.58,60.58,0,0,1,16.94,49.5Z"/><path class="cls-275" d="M25.84,46.09l-7.31-3.28s-2,.47-1.74,5L20.64,46s-.15,4.25-.62,11.3a27.8,27.8,0,0,0,5.66,2C26,51.09,25.84,46.09,25.84,46.09Z"/><path class="cls-276" d="M18.38,56.46q.81.45,1.65.85c.47-7,.62-11.3.62-11.3l-3.85,1.83c0,.5.07,1,.15,1.65A60.58,60.58,0,0,0,18.38,56.46Z"/><path class="cls-277" d="M18.38,56.46q.81.45,1.65.85c.47-7,.62-11.3.62-11.3l-3.85,1.83c0,.5.07,1,.15,1.65A60.58,60.58,0,0,0,18.38,56.46Z"/><path class="cls-278" d="M25.84,46.09l-7.31-3.28s-2,.47-1.74,5c0,.5.07,1,.15,1.65a60.58,60.58,0,0,0,1.44,7q.81.45,1.65.85a27.8,27.8,0,0,0,5.66,2C26,51.09,25.84,46.09,25.84,46.09Z"/><path class="cls-279" d="M25.06,54.24s.05,2.41.66,3.09l-.05,1.39a5.21,5.21,0,0,0,1.46-4.23"/><path class="cls-280" d="M24.66,54.18l.17,1.16a3.68,3.68,0,0,0,2,.25.83.83,0,0,0,.69-.89l-.08-.87"/><path class="cls-281" d="M26,29.19s-6.7-2.76-13-.12c0,0,1,13.9.46,19.37a1.72,1.72,0,0,0,1.55,1.87,22,22,0,0,0,2.85.15l.68-5.93.37,6.1s6.21.48,7.25-1C26.09,49.62,26.54,29.44,26,29.19Z"/><path class="cls-282" d="M22.41,50.66l3.47-.08c0-3-2.49-11.81-.37-13.92l.75-.75h0L24,30.14c-6,4.87-10.26.84-10.95.11,0,.41.06.93.08,1.53.28,4.72.76,14.29.16,17.65a.66.66,0,0,0,.57.76,28.48,28.48,0,0,0,4,.27l.68-5.93.37,6.1A31.23,31.23,0,0,0,22.41,50.66Z"/><path class="cls-283" d="M22.34,28.22s3.58.34,4.39,1.21.46,12.83.46,12.83l.6,12.13s-2.42.91-3.4,0c0,0-2.06-17.39-1.75-21.55"/></g></g></svg>