<?xml version="1.0" encoding="UTF-8"?>
<svg width="355px" height="360px" viewBox="0 0 355 360" version="1.1" xmlns="http://www.w3.org/2000/svg" xmlns:xlink="http://www.w3.org/1999/xlink">
    <!-- Generator: Sketch 50.2 (55047) - http://www.bohemiancoding.com/sketch -->
    <title>card copy</title>
    <desc>Created with Sketch.</desc>
    <defs>
        <rect id="path-1" x="0" y="0" width="315" height="320" rx="5"></rect>
        <filter x="-9.5%" y="-9.4%" width="119.0%" height="118.8%" filterUnits="objectBoundingBox" id="filter-2">
            <feOffset dx="0" dy="0" in="SourceAlpha" result="shadowOffsetOuter1"></feOffset>
            <feGaussianBlur stdDeviation="10" in="shadowOffsetOuter1" result="shadowBlurOuter1"></feGaussianBlur>
            <feColorMatrix values="0 0 0 0 0   0 0 0 0 0   0 0 0 0 0  0 0 0 0.1 0" type="matrix" in="shadowBlurOuter1"></feColorMatrix>
        </filter>
        <linearGradient x1="100.000012%" y1="56.4260602%" x2="0%" y2="56.4260602%" id="linearGradient-3">
            <stop stop-color="#208CA3" offset="0%"></stop>
            <stop stop-color="#3C4178" offset="42.22%"></stop>
            <stop stop-color="#241B3C" offset="100%"></stop>
        </linearGradient>
        <linearGradient x1="49.9587118%" y1="126.502749%" x2="49.9587118%" y2="-9.84507746%" id="linearGradient-4">
            <stop stop-color="#EDD7AD" offset="0%"></stop>
            <stop stop-color="#FF9661" offset="52%"></stop>
            <stop stop-color="#E74A69" offset="100%"></stop>
        </linearGradient>
        <linearGradient x1="100%" y1="50%" x2="1.56597737%" y2="65.6459263%" id="linearGradient-5">
            <stop stop-color="#7FF1A4" offset="0%"></stop>
            <stop stop-color="#2FBCA4" offset="55.4395378%"></stop>
            <stop stop-color="#2F7DA4" offset="100%"></stop>
        </linearGradient>
        <linearGradient x1="14.0559497%" y1="104.239706%" x2="62.7344097%" y2="-21.6469629%" id="linearGradient-6">
            <stop stop-color="#3D6FD3" offset="0%"></stop>
            <stop stop-color="#2D3A78" offset="54%"></stop>
            <stop stop-color="#27195D" offset="100%"></stop>
        </linearGradient>
    </defs>
    <g id="Page-1" stroke="none" stroke-width="1" fill="none" fill-rule="evenodd">
        <g id="home_1" transform="translate(-488.000000, -4061.000000)">
            <g id="card-copy" transform="translate(508.000000, 4081.000000)">
                <g id="Rectangle-12">
                    <use fill="black" fill-opacity="1" filter="url(#filter-2)" xlink:href="#path-1"></use>
                    <use fill="#FFFFFF" fill-rule="evenodd" xlink:href="#path-1"></use>
                </g>
                <g id="Group-10" transform="translate(29.000000, 30.000000)">
                    <rect id="Rectangle-13" fill-opacity="0.100401947" fill="#637282" x="0" y="0" width="257" height="48" rx="5"></rect>
                    <path d="M228.94,25.68 C229.620003,25.68 230.246664,25.5100017 230.82,25.17 C231.393336,24.8299983 231.846665,24.3733362 232.18,23.8 C232.513335,23.2266638 232.68,22.6000034 232.68,21.92 C232.68,21.2399966 232.513335,20.6133362 232.18,20.04 C231.846665,19.4666638 231.393336,19.013335 230.82,18.68 C230.246664,18.346665 229.620003,18.18 228.94,18.18 C228.259997,18.18 227.633336,18.346665 227.06,18.68 C226.486664,19.013335 226.030002,19.4666638 225.69,20.04 C225.349998,20.6133362 225.18,21.2399966 225.18,21.92 C225.18,22.6000034 225.349998,23.2266638 225.69,23.8 C226.030002,24.3733362 226.486664,24.8299983 227.06,25.17 C227.633336,25.5100017 228.259997,25.68 228.94,25.68 Z M233.94,25.68 L238.08,29.82 L236.82,31.08 L232.68,26.92 L232.68,26.26 L232.44,26.04 C231.973331,26.4533354 231.43667,26.7699989 230.83,26.99 C230.22333,27.2100011 229.593337,27.32 228.94,27.32 C227.953328,27.32 227.043338,27.0800024 226.21,26.6 C225.376663,26.1199976 224.720002,25.4733374 224.24,24.66 C223.746664,23.8199958 223.5,22.9066716 223.5,21.92 C223.5,20.9333284 223.743331,20.0233375 224.23,19.19 C224.716669,18.3566625 225.376663,17.7000024 226.21,17.22 C227.043338,16.7399976 227.953328,16.5 228.94,16.5 C229.926672,16.5 230.839996,16.7466642 231.68,17.24 C232.493337,17.7200024 233.136664,18.3733292 233.61,19.2 C234.083336,20.0266708 234.32,20.9333284 234.32,21.92 C234.32,22.58667 234.210001,23.2233303 233.99,23.83 C233.769999,24.4366697 233.453335,24.973331 233.04,25.44 L233.26,25.68 L233.94,25.68 Z" id="search---material" fill="#273D54"></path>
                    <path d="M17.5390625,31.0976562 C16.9140625,31.0976562 16.4257812,30.609375 16.4257812,29.984375 C16.4257812,29.3496094 16.9140625,28.8710938 17.5390625,28.8710938 C18.1738281,28.8710938 18.6523438,29.3496094 18.6523438,29.984375 C18.6523438,30.609375 18.1738281,31.0976562 17.5390625,31.0976562 Z M17.5390625,23.9101562 C16.9140625,23.9101562 16.4257812,23.421875 16.4257812,22.796875 C16.4257812,22.1621094 16.9140625,21.6835938 17.5390625,21.6835938 C18.1738281,21.6835938 18.6523438,22.1621094 18.6523438,22.796875 C18.6523438,23.421875 18.1738281,23.9101562 17.5390625,23.9101562 Z M21.2304688,31 L21.2304688,20.4726562 L22.8320312,20.4726562 L22.8320312,22.1816406 L22.8710938,22.1816406 C23.3691406,21.0585938 24.4921875,20.375 25.859375,20.375 C27.2851562,20.375 28.3496094,21.0976562 28.8085938,22.3671875 L28.8476562,22.3671875 C29.4433594,21.1171875 30.6835938,20.375 32.1582031,20.375 C34.2382812,20.375 35.5859375,21.7226562 35.5859375,23.8125 L35.5859375,31 L33.8867188,31 L33.8867188,24.203125 C33.8867188,22.7480469 33.0761719,21.8886719 31.6699219,21.8886719 C30.2636719,21.8886719 29.2578125,22.9335938 29.2578125,24.3789062 L29.2578125,31 L27.5585938,31 L27.5585938,23.9980469 C27.5585938,22.7285156 26.6894531,21.8886719 25.3710938,21.8886719 C23.9648438,21.8886719 22.9296875,22.9921875 22.9296875,24.4667969 L22.9296875,31 L21.2304688,31 Z M41.2792969,29.6230469 C42.9980469,29.6230469 44.2578125,28.5097656 44.2578125,26.9960938 L44.2578125,26.1464844 L41.5039062,26.3222656 C39.921875,26.4199219 39.1015625,26.9960938 39.1015625,28.0117188 C39.1015625,28.9882812 39.9511719,29.6230469 41.2792969,29.6230469 Z M40.9179688,31.0976562 C38.7792969,31.0976562 37.3632812,29.8671875 37.3632812,28.0019531 C37.3632812,26.1953125 38.75,25.1308594 41.3085938,24.9746094 L44.2578125,24.7988281 L44.2578125,23.9199219 C44.2578125,22.6113281 43.3984375,21.8886719 41.8457031,21.8886719 C40.625,21.8886719 39.7167969,22.5136719 39.5117188,23.5097656 L37.8808594,23.5097656 C37.9296875,21.7324219 39.6582031,20.375 41.8652344,20.375 C44.3554688,20.375 45.9570312,21.703125 45.9570312,23.7734375 L45.9570312,31 L44.3457031,31 L44.3457031,29.1738281 L44.3066406,29.1738281 C43.7109375,30.3457031 42.3925781,31.0976562 40.9179688,31.0976562 Z M48.2128906,31 L48.2128906,20.4726562 L49.8144531,20.4726562 L49.8144531,22.1816406 L49.8535156,22.1816406 C50.1660156,21.078125 51.171875,20.375 52.4023438,20.375 C52.7050781,20.375 52.9589844,20.4042969 53.1054688,20.4335938 L53.1054688,22.1035156 C52.96875,22.0546875 52.5976562,22.0058594 52.1777344,22.0058594 C50.8105469,22.0058594 49.9121094,23.0019531 49.9121094,24.4863281 L49.9121094,31 L48.2128906,31 Z M56.3476562,25.1796875 L61.0644531,20.4726562 L63.1347656,20.4726562 L58.5351562,25.0234375 L63.2714844,31 L61.2988281,31 L57.34375,26.0683594 L56.3476562,27.0058594 L56.3476562,31 L54.6484375,31 L54.6484375,16.2929688 L56.3476562,16.2929688 L56.3476562,25.1796875 Z" id=":mark" fill="#273D54"></path>
                </g>
                <g id="Group-26" transform="translate(30.000000, 98.000000)">
                    <g id="Group-14" transform="translate(0.000000, 36.000000)">
                        <g id="Group-8">
                            <path d="M36.2851562,17.0878906 C35.7226562,17.0878906 35.2832031,16.6484375 35.2832031,16.0859375 C35.2832031,15.5146484 35.7226562,15.0839844 36.2851562,15.0839844 C36.8564453,15.0839844 37.2871094,15.5146484 37.2871094,16.0859375 C37.2871094,16.6484375 36.8564453,17.0878906 36.2851562,17.0878906 Z M36.2851562,10.6191406 C35.7226562,10.6191406 35.2832031,10.1796875 35.2832031,9.6171875 C35.2832031,9.04589844 35.7226562,8.61523438 36.2851562,8.61523438 C36.8564453,8.61523438 37.2871094,9.04589844 37.2871094,9.6171875 C37.2871094,10.1796875 36.8564453,10.6191406 36.2851562,10.6191406 Z M39.6074219,17 L39.6074219,7.52539062 L41.0488281,7.52539062 L41.0488281,9.06347656 L41.0839844,9.06347656 C41.5322266,8.05273438 42.5429688,7.4375 43.7734375,7.4375 C45.0566406,7.4375 46.0146484,8.08789062 46.4277344,9.23046875 L46.4628906,9.23046875 C46.9990234,8.10546875 48.1152344,7.4375 49.4423828,7.4375 C51.3144531,7.4375 52.5273438,8.65039062 52.5273438,10.53125 L52.5273438,17 L50.9980469,17 L50.9980469,10.8828125 C50.9980469,9.57324219 50.2685547,8.79980469 49.0029297,8.79980469 C47.7373047,8.79980469 46.8320312,9.74023438 46.8320312,11.0410156 L46.8320312,17 L45.3027344,17 L45.3027344,10.6982422 C45.3027344,9.55566406 44.5205078,8.79980469 43.3339844,8.79980469 C42.0683594,8.79980469 41.1367188,9.79296875 41.1367188,11.1201172 L41.1367188,17 L39.6074219,17 Z M57.6513672,15.7607422 C59.1982422,15.7607422 60.3320312,14.7587891 60.3320312,13.3964844 L60.3320312,12.6318359 L57.8535156,12.7900391 C56.4296875,12.8779297 55.6914062,13.3964844 55.6914062,14.3105469 C55.6914062,15.1894531 56.4560547,15.7607422 57.6513672,15.7607422 Z M57.3261719,17.0878906 C55.4013672,17.0878906 54.1269531,15.9804688 54.1269531,14.3017578 C54.1269531,12.6757812 55.375,11.7177734 57.6777344,11.5771484 L60.3320312,11.4189453 L60.3320312,10.6279297 C60.3320312,9.45019531 59.5585938,8.79980469 58.1611328,8.79980469 C57.0625,8.79980469 56.2451172,9.36230469 56.0605469,10.2587891 L54.5927734,10.2587891 C54.6367188,8.65917969 56.1923828,7.4375 58.1787109,7.4375 C60.4199219,7.4375 61.8613281,8.6328125 61.8613281,10.4960938 L61.8613281,17 L60.4111328,17 L60.4111328,15.3564453 L60.3759766,15.3564453 C59.8398438,16.4111328 58.6533203,17.0878906 57.3261719,17.0878906 Z M63.8916016,17 L63.8916016,7.52539062 L65.3330078,7.52539062 L65.3330078,9.06347656 L65.3681641,9.06347656 C65.6494141,8.0703125 66.5546875,7.4375 67.6621094,7.4375 C67.9345703,7.4375 68.1630859,7.46386719 68.2949219,7.49023438 L68.2949219,8.99316406 C68.171875,8.94921875 67.8378906,8.90527344 67.4599609,8.90527344 C66.2294922,8.90527344 65.4208984,9.80175781 65.4208984,11.1376953 L65.4208984,17 L63.8916016,17 Z M71.2128906,11.7617188 L75.4580078,7.52539062 L77.3212891,7.52539062 L73.1816406,11.6210938 L77.4443359,17 L75.6689453,17 L72.109375,12.5615234 L71.2128906,13.4052734 L71.2128906,17 L69.6835938,17 L69.6835938,3.76367188 L71.2128906,3.76367188 L71.2128906,11.7617188 Z M79.1142578,5.38964844 L80.6435547,5.38964844 L80.6435547,7.52539062 L82.4892578,7.52539062 L82.4892578,8.79101562 L80.6435547,8.79101562 L80.6435547,14.4775391 C80.6435547,15.3476562 81.0126953,15.7431641 81.8212891,15.7431641 C82.0058594,15.7431641 82.375,15.7167969 82.4804688,15.6992188 L82.4804688,16.9912109 C82.2958984,17.0351562 81.8564453,17.0703125 81.4960938,17.0703125 C79.7822266,17.0703125 79.1142578,16.3583984 79.1142578,14.5390625 L79.1142578,8.79101562 L77.7958984,8.79101562 L77.7958984,7.52539062 L79.1142578,7.52539062 L79.1142578,5.38964844 Z M87.9648438,8.78222656 C86.4794922,8.78222656 85.4072266,9.86328125 85.3017578,11.4628906 L90.5136719,11.4628906 C90.4785156,9.85449219 89.4589844,8.78222656 87.9648438,8.78222656 Z M90.4785156,14.2929688 L91.9902344,14.2929688 C91.7265625,15.9189453 90.0830078,17.0878906 88.0615234,17.0878906 C85.3984375,17.0878906 83.7197266,15.2333984 83.7197266,12.2978516 C83.7197266,9.36230469 85.4072266,7.4375 87.9912109,7.4375 C90.5224609,7.4375 92.1044922,9.22167969 92.1044922,12.0869141 L92.1044922,12.6845703 L85.3017578,12.6845703 L85.3017578,12.7724609 C85.3017578,14.5742188 86.4091797,15.7431641 88.0966797,15.7431641 C89.2832031,15.7431641 90.2060547,15.1806641 90.4785156,14.2929688 Z M93.7128906,17 L93.7128906,7.52539062 L95.1542969,7.52539062 L95.1542969,9.06347656 L95.1894531,9.06347656 C95.7871094,7.99121094 96.7275391,7.4375 98.1953125,7.4375 C100.27832,7.4375 101.482422,8.7734375 101.482422,10.9267578 L101.482422,17 L99.953125,17 L99.953125,11.1904297 C99.953125,9.64355469 99.2324219,8.79980469 97.7382812,8.79980469 C96.1826172,8.79980469 95.2421875,9.87207031 95.2421875,11.4980469 L95.2421875,17 L93.7128906,17 Z M104.013672,5.38964844 L105.542969,5.38964844 L105.542969,7.52539062 L107.388672,7.52539062 L107.388672,8.79101562 L105.542969,8.79101562 L105.542969,14.4775391 C105.542969,15.3476562 105.912109,15.7431641 106.720703,15.7431641 C106.905273,15.7431641 107.274414,15.7167969 107.379883,15.6992188 L107.379883,16.9912109 C107.195312,17.0351562 106.755859,17.0703125 106.395508,17.0703125 C104.681641,17.0703125 104.013672,16.3583984 104.013672,14.5390625 L104.013672,8.79101562 L102.695312,8.79101562 L102.695312,7.52539062 L104.013672,7.52539062 L104.013672,5.38964844 Z M112.864258,8.78222656 C111.378906,8.78222656 110.306641,9.86328125 110.201172,11.4628906 L115.413086,11.4628906 C115.37793,9.85449219 114.358398,8.78222656 112.864258,8.78222656 Z M115.37793,14.2929688 L116.889648,14.2929688 C116.625977,15.9189453 114.982422,17.0878906 112.960938,17.0878906 C110.297852,17.0878906 108.619141,15.2333984 108.619141,12.2978516 C108.619141,9.36230469 110.306641,7.4375 112.890625,7.4375 C115.421875,7.4375 117.003906,9.22167969 117.003906,12.0869141 L117.003906,12.6845703 L110.201172,12.6845703 L110.201172,12.7724609 C110.201172,14.5742188 111.308594,15.7431641 112.996094,15.7431641 C114.182617,15.7431641 115.105469,15.1806641 115.37793,14.2929688 Z M118.454102,10.1708984 C118.454102,8.57128906 119.904297,7.44628906 121.960938,7.44628906 C123.885742,7.44628906 125.344727,8.59765625 125.40625,10.1533203 L123.938477,10.1533203 C123.841797,9.265625 123.068359,8.71191406 121.908203,8.71191406 C120.739258,8.71191406 119.957031,9.265625 119.957031,10.0917969 C119.957031,10.7333984 120.466797,11.1640625 121.556641,11.4365234 L122.998047,11.796875 C124.914062,12.2802734 125.599609,12.9482422 125.599609,14.328125 C125.599609,15.9453125 124.043945,17.0878906 121.855469,17.0878906 C119.816406,17.0878906 118.339844,15.9804688 118.19043,14.3369141 L119.728516,14.3369141 C119.886719,15.3037109 120.668945,15.8222656 121.960938,15.8222656 C123.25293,15.8222656 124.061523,15.2861328 124.061523,14.4335938 C124.061523,13.765625 123.666016,13.4140625 122.584961,13.1328125 L120.923828,12.7021484 C119.262695,12.2714844 118.454102,11.4365234 118.454102,10.1708984 Z" id=":marktentes" fill="#273D54"></path>
                            <circle id="Oval-2" fill="url(#linearGradient-3)" cx="12" cy="12" r="12"></circle>
                        </g>
                        <path d="M1.42218543,32.5 L255.691401,32.5" id="Line-2" stroke="#F6F8FE" stroke-linecap="square"></path>
                    </g>
                    <g id="Group-11" transform="translate(0.000000, 79.000000)">
                        <g id="Group-8">
                            <path d="M36.2851562,17.0878906 C35.7226562,17.0878906 35.2832031,16.6484375 35.2832031,16.0859375 C35.2832031,15.5146484 35.7226562,15.0839844 36.2851562,15.0839844 C36.8564453,15.0839844 37.2871094,15.5146484 37.2871094,16.0859375 C37.2871094,16.6484375 36.8564453,17.0878906 36.2851562,17.0878906 Z M36.2851562,10.6191406 C35.7226562,10.6191406 35.2832031,10.1796875 35.2832031,9.6171875 C35.2832031,9.04589844 35.7226562,8.61523438 36.2851562,8.61523438 C36.8564453,8.61523438 37.2871094,9.04589844 37.2871094,9.6171875 C37.2871094,10.1796875 36.8564453,10.6191406 36.2851562,10.6191406 Z M39.6074219,17 L39.6074219,7.52539062 L41.0488281,7.52539062 L41.0488281,9.06347656 L41.0839844,9.06347656 C41.5322266,8.05273438 42.5429688,7.4375 43.7734375,7.4375 C45.0566406,7.4375 46.0146484,8.08789062 46.4277344,9.23046875 L46.4628906,9.23046875 C46.9990234,8.10546875 48.1152344,7.4375 49.4423828,7.4375 C51.3144531,7.4375 52.5273438,8.65039062 52.5273438,10.53125 L52.5273438,17 L50.9980469,17 L50.9980469,10.8828125 C50.9980469,9.57324219 50.2685547,8.79980469 49.0029297,8.79980469 C47.7373047,8.79980469 46.8320312,9.74023438 46.8320312,11.0410156 L46.8320312,17 L45.3027344,17 L45.3027344,10.6982422 C45.3027344,9.55566406 44.5205078,8.79980469 43.3339844,8.79980469 C42.0683594,8.79980469 41.1367188,9.79296875 41.1367188,11.1201172 L41.1367188,17 L39.6074219,17 Z M57.6513672,15.7607422 C59.1982422,15.7607422 60.3320312,14.7587891 60.3320312,13.3964844 L60.3320312,12.6318359 L57.8535156,12.7900391 C56.4296875,12.8779297 55.6914062,13.3964844 55.6914062,14.3105469 C55.6914062,15.1894531 56.4560547,15.7607422 57.6513672,15.7607422 Z M57.3261719,17.0878906 C55.4013672,17.0878906 54.1269531,15.9804688 54.1269531,14.3017578 C54.1269531,12.6757812 55.375,11.7177734 57.6777344,11.5771484 L60.3320312,11.4189453 L60.3320312,10.6279297 C60.3320312,9.45019531 59.5585938,8.79980469 58.1611328,8.79980469 C57.0625,8.79980469 56.2451172,9.36230469 56.0605469,10.2587891 L54.5927734,10.2587891 C54.6367188,8.65917969 56.1923828,7.4375 58.1787109,7.4375 C60.4199219,7.4375 61.8613281,8.6328125 61.8613281,10.4960938 L61.8613281,17 L60.4111328,17 L60.4111328,15.3564453 L60.3759766,15.3564453 C59.8398438,16.4111328 58.6533203,17.0878906 57.3261719,17.0878906 Z M63.8916016,17 L63.8916016,7.52539062 L65.3330078,7.52539062 L65.3330078,9.06347656 L65.3681641,9.06347656 C65.6494141,8.0703125 66.5546875,7.4375 67.6621094,7.4375 C67.9345703,7.4375 68.1630859,7.46386719 68.2949219,7.49023438 L68.2949219,8.99316406 C68.171875,8.94921875 67.8378906,8.90527344 67.4599609,8.90527344 C66.2294922,8.90527344 65.4208984,9.80175781 65.4208984,11.1376953 L65.4208984,17 L63.8916016,17 Z M71.2128906,11.7617188 L75.4580078,7.52539062 L77.3212891,7.52539062 L73.1816406,11.6210938 L77.4443359,17 L75.6689453,17 L72.109375,12.5615234 L71.2128906,13.4052734 L71.2128906,17 L69.6835938,17 L69.6835938,3.76367188 L71.2128906,3.76367188 L71.2128906,11.7617188 Z M81.7070312,15.7607422 C83.2539062,15.7607422 84.3876953,14.7587891 84.3876953,13.3964844 L84.3876953,12.6318359 L81.9091797,12.7900391 C80.4853516,12.8779297 79.7470703,13.3964844 79.7470703,14.3105469 C79.7470703,15.1894531 80.5117188,15.7607422 81.7070312,15.7607422 Z M81.3818359,17.0878906 C79.4570312,17.0878906 78.1826172,15.9804688 78.1826172,14.3017578 C78.1826172,12.6757812 79.4306641,11.7177734 81.7333984,11.5771484 L84.3876953,11.4189453 L84.3876953,10.6279297 C84.3876953,9.45019531 83.6142578,8.79980469 82.2167969,8.79980469 C81.1181641,8.79980469 80.3007812,9.36230469 80.1162109,10.2587891 L78.6484375,10.2587891 C78.6923828,8.65917969 80.2480469,7.4375 82.234375,7.4375 C84.4755859,7.4375 85.9169922,8.6328125 85.9169922,10.4960938 L85.9169922,17 L84.4667969,17 L84.4667969,15.3564453 L84.4316406,15.3564453 C83.8955078,16.4111328 82.7089844,17.0878906 81.3818359,17.0878906 Z M87.9472656,17 L87.9472656,7.52539062 L89.3886719,7.52539062 L89.3886719,9.06347656 L89.4238281,9.06347656 C90.0214844,7.99121094 90.9619141,7.4375 92.4296875,7.4375 C94.5126953,7.4375 95.7167969,8.7734375 95.7167969,10.9267578 L95.7167969,17 L94.1875,17 L94.1875,11.1904297 C94.1875,9.64355469 93.4667969,8.79980469 91.9726562,8.79980469 C90.4169922,8.79980469 89.4765625,9.87207031 89.4765625,11.4980469 L89.4765625,17 L87.9472656,17 Z M101.579102,15.6376953 C103.240234,15.6376953 104.365234,14.2578125 104.365234,12.2275391 C104.365234,10.1884766 103.240234,8.79980469 101.579102,8.79980469 C99.9267578,8.79980469 98.8457031,10.1533203 98.8457031,12.2275391 C98.8457031,14.2929688 99.9267578,15.6376953 101.579102,15.6376953 Z M101.605469,20.3837891 C99.4609375,20.3837891 97.9052734,19.3466797 97.6855469,17.7734375 L99.2763672,17.7734375 C99.5048828,18.5644531 100.445312,19.0566406 101.693359,19.0566406 C103.328125,19.0566406 104.365234,18.2041016 104.365234,16.859375 L104.365234,15.3740234 L104.330078,15.3740234 C103.732422,16.4023438 102.616211,17 101.289062,17 C98.8896484,17 97.28125,15.0927734 97.28125,12.2275391 C97.28125,9.3359375 98.8896484,7.4375 101.324219,7.4375 C102.660156,7.4375 103.776367,8.02636719 104.40918,9.06347656 L104.435547,9.06347656 L104.435547,7.52539062 L105.894531,7.52539062 L105.894531,16.7363281 C105.894531,19.0039062 104.268555,20.3837891 101.605469,20.3837891 Z M108.056641,17 L108.056641,3.76367188 L109.585938,3.76367188 L109.585938,17 L108.056641,17 Z M115.527344,8.78222656 C114.041992,8.78222656 112.969727,9.86328125 112.864258,11.4628906 L118.076172,11.4628906 C118.041016,9.85449219 117.021484,8.78222656 115.527344,8.78222656 Z M118.041016,14.2929688 L119.552734,14.2929688 C119.289062,15.9189453 117.645508,17.0878906 115.624023,17.0878906 C112.960938,17.0878906 111.282227,15.2333984 111.282227,12.2978516 C111.282227,9.36230469 112.969727,7.4375 115.553711,7.4375 C118.084961,7.4375 119.666992,9.22167969 119.666992,12.0869141 L119.666992,12.6845703 L112.864258,12.6845703 L112.864258,12.7724609 C112.864258,14.5742188 113.97168,15.7431641 115.65918,15.7431641 C116.845703,15.7431641 117.768555,15.1806641 118.041016,14.2929688 Z" id=":markangle" fill="#273D54"></path>
                            <circle id="Oval-2" fill="url(#linearGradient-4)" cx="12" cy="12" r="12"></circle>
                        </g>
                        <path d="M1.42218543,32.5 L255.691401,32.5" id="Line-2" stroke="#F6F8FE" stroke-linecap="square"></path>
                    </g>
                    <g id="Group-9" transform="translate(0.000000, 122.000000)">
                        <g id="Group-8">
                            <path d="M36.2851562,17.0878906 C35.7226562,17.0878906 35.2832031,16.6484375 35.2832031,16.0859375 C35.2832031,15.5146484 35.7226562,15.0839844 36.2851562,15.0839844 C36.8564453,15.0839844 37.2871094,15.5146484 37.2871094,16.0859375 C37.2871094,16.6484375 36.8564453,17.0878906 36.2851562,17.0878906 Z M36.2851562,10.6191406 C35.7226562,10.6191406 35.2832031,10.1796875 35.2832031,9.6171875 C35.2832031,9.04589844 35.7226562,8.61523438 36.2851562,8.61523438 C36.8564453,8.61523438 37.2871094,9.04589844 37.2871094,9.6171875 C37.2871094,10.1796875 36.8564453,10.6191406 36.2851562,10.6191406 Z M39.6074219,17 L39.6074219,7.52539062 L41.0488281,7.52539062 L41.0488281,9.06347656 L41.0839844,9.06347656 C41.5322266,8.05273438 42.5429688,7.4375 43.7734375,7.4375 C45.0566406,7.4375 46.0146484,8.08789062 46.4277344,9.23046875 L46.4628906,9.23046875 C46.9990234,8.10546875 48.1152344,7.4375 49.4423828,7.4375 C51.3144531,7.4375 52.5273438,8.65039062 52.5273438,10.53125 L52.5273438,17 L50.9980469,17 L50.9980469,10.8828125 C50.9980469,9.57324219 50.2685547,8.79980469 49.0029297,8.79980469 C47.7373047,8.79980469 46.8320312,9.74023438 46.8320312,11.0410156 L46.8320312,17 L45.3027344,17 L45.3027344,10.6982422 C45.3027344,9.55566406 44.5205078,8.79980469 43.3339844,8.79980469 C42.0683594,8.79980469 41.1367188,9.79296875 41.1367188,11.1201172 L41.1367188,17 L39.6074219,17 Z M57.6513672,15.7607422 C59.1982422,15.7607422 60.3320312,14.7587891 60.3320312,13.3964844 L60.3320312,12.6318359 L57.8535156,12.7900391 C56.4296875,12.8779297 55.6914062,13.3964844 55.6914062,14.3105469 C55.6914062,15.1894531 56.4560547,15.7607422 57.6513672,15.7607422 Z M57.3261719,17.0878906 C55.4013672,17.0878906 54.1269531,15.9804688 54.1269531,14.3017578 C54.1269531,12.6757812 55.375,11.7177734 57.6777344,11.5771484 L60.3320312,11.4189453 L60.3320312,10.6279297 C60.3320312,9.45019531 59.5585938,8.79980469 58.1611328,8.79980469 C57.0625,8.79980469 56.2451172,9.36230469 56.0605469,10.2587891 L54.5927734,10.2587891 C54.6367188,8.65917969 56.1923828,7.4375 58.1787109,7.4375 C60.4199219,7.4375 61.8613281,8.6328125 61.8613281,10.4960938 L61.8613281,17 L60.4111328,17 L60.4111328,15.3564453 L60.3759766,15.3564453 C59.8398438,16.4111328 58.6533203,17.0878906 57.3261719,17.0878906 Z M63.8916016,17 L63.8916016,7.52539062 L65.3330078,7.52539062 L65.3330078,9.06347656 L65.3681641,9.06347656 C65.6494141,8.0703125 66.5546875,7.4375 67.6621094,7.4375 C67.9345703,7.4375 68.1630859,7.46386719 68.2949219,7.49023438 L68.2949219,8.99316406 C68.171875,8.94921875 67.8378906,8.90527344 67.4599609,8.90527344 C66.2294922,8.90527344 65.4208984,9.80175781 65.4208984,11.1376953 L65.4208984,17 L63.8916016,17 Z M77.4267578,10.6103516 L75.9238281,10.6103516 C75.7304688,9.59960938 74.8867188,8.79980469 73.4628906,8.79980469 C71.8105469,8.79980469 70.6855469,10.1708984 70.6855469,12.2626953 C70.6855469,14.4160156 71.828125,15.7255859 73.4804688,15.7255859 C74.7988281,15.7255859 75.6777344,15.1103516 75.9414062,13.9677734 L77.4443359,13.9677734 C77.1894531,15.8134766 75.6337891,17.0878906 73.4716797,17.0878906 C70.8701172,17.0878906 69.1298828,15.2421875 69.1298828,12.2626953 C69.1298828,9.35351562 70.8613281,7.4375 73.4541016,7.4375 C75.8007812,7.4375 77.2333984,8.94921875 77.4267578,10.6103516 Z M86.6376953,7.52539062 L86.6376953,17 L85.1962891,17 L85.1962891,15.4355469 L85.1611328,15.4355469 C84.5722656,16.5253906 83.5966797,17.0878906 82.1464844,17.0878906 C80.0722656,17.0878906 78.8681641,15.7519531 78.8681641,13.5986328 L78.8681641,7.52539062 L80.3974609,7.52539062 L80.3974609,13.3349609 C80.3974609,14.890625 81.1269531,15.7255859 82.6123047,15.7255859 C84.1679688,15.7255859 85.1083984,14.6533203 85.1083984,13.0273438 L85.1083984,7.52539062 L86.6376953,7.52539062 Z M88.5537109,10.1708984 C88.5537109,8.57128906 90.0039062,7.44628906 92.0605469,7.44628906 C93.9853516,7.44628906 95.4443359,8.59765625 95.5058594,10.1533203 L94.0380859,10.1533203 C93.9414062,9.265625 93.1679688,8.71191406 92.0078125,8.71191406 C90.8388672,8.71191406 90.0566406,9.265625 90.0566406,10.0917969 C90.0566406,10.7333984 90.5664062,11.1640625 91.65625,11.4365234 L93.0976562,11.796875 C95.0136719,12.2802734 95.6992188,12.9482422 95.6992188,14.328125 C95.6992188,15.9453125 94.1435547,17.0878906 91.9550781,17.0878906 C89.9160156,17.0878906 88.4394531,15.9804688 88.2900391,14.3369141 L89.828125,14.3369141 C89.9863281,15.3037109 90.7685547,15.8222656 92.0605469,15.8222656 C93.3525391,15.8222656 94.1611328,15.2861328 94.1611328,14.4335938 C94.1611328,13.765625 93.765625,13.4140625 92.6845703,13.1328125 L91.0234375,12.7021484 C89.3623047,12.2714844 88.5537109,11.4365234 88.5537109,10.1708984 Z" id=":marcus" fill="#273D54"></path>
                            <circle id="Oval-2" fill="url(#linearGradient-5)" cx="12" cy="12" r="12"></circle>
                        </g>
                        <path d="M1.42218543,32.5 L255.691401,32.5" id="Line-2" stroke="#F6F8FE" stroke-linecap="square"></path>
                    </g>
                    <g id="Group-9-Copy-3" transform="translate(0.000000, 167.000000)">
                        <g id="Group-8">
                            <path d="M36.2851562,17.0878906 C35.7226562,17.0878906 35.2832031,16.6484375 35.2832031,16.0859375 C35.2832031,15.5146484 35.7226562,15.0839844 36.2851562,15.0839844 C36.8564453,15.0839844 37.2871094,15.5146484 37.2871094,16.0859375 C37.2871094,16.6484375 36.8564453,17.0878906 36.2851562,17.0878906 Z M36.2851562,10.6191406 C35.7226562,10.6191406 35.2832031,10.1796875 35.2832031,9.6171875 C35.2832031,9.04589844 35.7226562,8.61523438 36.2851562,8.61523438 C36.8564453,8.61523438 37.2871094,9.04589844 37.2871094,9.6171875 C37.2871094,10.1796875 36.8564453,10.6191406 36.2851562,10.6191406 Z M39.6074219,17 L39.6074219,7.52539062 L41.0488281,7.52539062 L41.0488281,9.06347656 L41.0839844,9.06347656 C41.5322266,8.05273438 42.5429688,7.4375 43.7734375,7.4375 C45.0566406,7.4375 46.0146484,8.08789062 46.4277344,9.23046875 L46.4628906,9.23046875 C46.9990234,8.10546875 48.1152344,7.4375 49.4423828,7.4375 C51.3144531,7.4375 52.5273438,8.65039062 52.5273438,10.53125 L52.5273438,17 L50.9980469,17 L50.9980469,10.8828125 C50.9980469,9.57324219 50.2685547,8.79980469 49.0029297,8.79980469 C47.7373047,8.79980469 46.8320312,9.74023438 46.8320312,11.0410156 L46.8320312,17 L45.3027344,17 L45.3027344,10.6982422 C45.3027344,9.55566406 44.5205078,8.79980469 43.3339844,8.79980469 C42.0683594,8.79980469 41.1367188,9.79296875 41.1367188,11.1201172 L41.1367188,17 L39.6074219,17 Z M57.6513672,15.7607422 C59.1982422,15.7607422 60.3320312,14.7587891 60.3320312,13.3964844 L60.3320312,12.6318359 L57.8535156,12.7900391 C56.4296875,12.8779297 55.6914062,13.3964844 55.6914062,14.3105469 C55.6914062,15.1894531 56.4560547,15.7607422 57.6513672,15.7607422 Z M57.3261719,17.0878906 C55.4013672,17.0878906 54.1269531,15.9804688 54.1269531,14.3017578 C54.1269531,12.6757812 55.375,11.7177734 57.6777344,11.5771484 L60.3320312,11.4189453 L60.3320312,10.6279297 C60.3320312,9.45019531 59.5585938,8.79980469 58.1611328,8.79980469 C57.0625,8.79980469 56.2451172,9.36230469 56.0605469,10.2587891 L54.5927734,10.2587891 C54.6367188,8.65917969 56.1923828,7.4375 58.1787109,7.4375 C60.4199219,7.4375 61.8613281,8.6328125 61.8613281,10.4960938 L61.8613281,17 L60.4111328,17 L60.4111328,15.3564453 L60.3759766,15.3564453 C59.8398438,16.4111328 58.6533203,17.0878906 57.3261719,17.0878906 Z M63.8916016,17 L63.8916016,7.52539062 L65.3330078,7.52539062 L65.3330078,9.06347656 L65.3681641,9.06347656 C65.6494141,8.0703125 66.5546875,7.4375 67.6621094,7.4375 C67.9345703,7.4375 68.1630859,7.46386719 68.2949219,7.49023438 L68.2949219,8.99316406 C68.171875,8.94921875 67.8378906,8.90527344 67.4599609,8.90527344 C66.2294922,8.90527344 65.4208984,9.80175781 65.4208984,11.1376953 L65.4208984,17 L63.8916016,17 Z M73.1904297,17.0878906 C70.8085938,17.0878906 69.1298828,15.1542969 69.1298828,12.2626953 C69.1298828,9.37109375 70.7998047,7.4375 73.1552734,7.4375 C74.5087891,7.4375 75.5986328,8.02636719 76.1787109,9.06347656 L76.2138672,9.06347656 L76.2138672,3.76367188 L77.7431641,3.76367188 L77.7431641,17 L76.2841797,17 L76.2841797,15.4003906 L76.2578125,15.4003906 C75.6425781,16.4902344 74.5615234,17.0878906 73.1904297,17.0878906 Z M73.4628906,8.79980469 C71.8017578,8.79980469 70.6943359,10.1708984 70.6943359,12.2626953 C70.6943359,14.3632812 71.8017578,15.7255859 73.4628906,15.7255859 C75.1064453,15.7255859 76.2226562,14.328125 76.2226562,12.2626953 C76.2226562,10.2060547 75.1064453,8.79980469 73.4628906,8.79980469 Z M87.6308594,7.52539062 L87.6308594,17 L86.1894531,17 L86.1894531,15.4355469 L86.1542969,15.4355469 C85.5654297,16.5253906 84.5898438,17.0878906 83.1396484,17.0878906 C81.0654297,17.0878906 79.8613281,15.7519531 79.8613281,13.5986328 L79.8613281,7.52539062 L81.390625,7.52539062 L81.390625,13.3349609 C81.390625,14.890625 82.1201172,15.7255859 83.6054688,15.7255859 C85.1611328,15.7255859 86.1015625,14.6533203 86.1015625,13.0273438 L86.1015625,7.52539062 L87.6308594,7.52539062 Z M89.546875,10.1708984 C89.546875,8.57128906 90.9970703,7.44628906 93.0537109,7.44628906 C94.9785156,7.44628906 96.4375,8.59765625 96.4990234,10.1533203 L95.03125,10.1533203 C94.9345703,9.265625 94.1611328,8.71191406 93.0009766,8.71191406 C91.8320312,8.71191406 91.0498047,9.265625 91.0498047,10.0917969 C91.0498047,10.7333984 91.5595703,11.1640625 92.6494141,11.4365234 L94.0908203,11.796875 C96.0068359,12.2802734 96.6923828,12.9482422 96.6923828,14.328125 C96.6923828,15.9453125 95.1367188,17.0878906 92.9482422,17.0878906 C90.9091797,17.0878906 89.4326172,15.9804688 89.2832031,14.3369141 L90.8212891,14.3369141 C90.9794922,15.3037109 91.7617188,15.8222656 93.0537109,15.8222656 C94.3457031,15.8222656 95.1542969,15.2861328 95.1542969,14.4335938 C95.1542969,13.765625 94.7587891,13.4140625 93.6777344,13.1328125 L92.0166016,12.7021484 C90.3554688,12.2714844 89.546875,11.4365234 89.546875,10.1708984 Z" id=":mardus" fill="#273D54"></path>
                            <circle id="Oval-2" fill="url(#linearGradient-6)" cx="12" cy="12" r="12"></circle>
                        </g>
                    </g>
                    <path d="M3.70898438,6.39160156 L3.70898438,10.4345703 L6.03808594,10.4345703 C7.37402344,10.4345703 8.15625,9.66992188 8.15625,8.41308594 C8.15625,7.18261719 7.33007812,6.39160156 6.01171875,6.39160156 L3.70898438,6.39160156 Z M3.70898438,12.359375 L3.70898438,17 L1.0546875,17 L1.0546875,4.31738281 L6.29296875,4.31738281 C9.2109375,4.31738281 10.8808594,5.85546875 10.8808594,8.36035156 C10.8808594,9.98632812 10.0371094,11.3925781 8.578125,11.9638672 L11.25,17 L8.24414062,17 L5.87988281,12.359375 L3.70898438,12.359375 Z M16.7519531,9.07226562 C15.5830078,9.07226562 14.7216797,9.92480469 14.6337891,11.1640625 L18.8085938,11.1640625 C18.7646484,9.8984375 17.9384766,9.07226562 16.7519531,9.07226562 Z M18.84375,14.046875 L21.2080078,14.046875 C20.9267578,15.9189453 19.1777344,17.1669922 16.8222656,17.1669922 C13.8779297,17.1669922 12.0761719,15.2773438 12.0761719,12.2011719 C12.0761719,9.125 13.8867188,7.15625 16.7255859,7.15625 C19.5117188,7.15625 21.2871094,9.01953125 21.2871094,11.9638672 L21.2871094,12.7548828 L14.6074219,12.7548828 L14.6074219,12.9130859 C14.6074219,14.3105469 15.5126953,15.2509766 16.8662109,15.2509766 C17.8330078,15.2509766 18.5976562,14.7939453 18.84375,14.046875 Z M22.5,10.1708984 C22.5,8.3515625 24.0996094,7.15625 26.5517578,7.15625 C28.9423828,7.15625 30.5332031,8.37792969 30.5683594,10.2236328 L28.1953125,10.2236328 C28.1425781,9.45898438 27.5009766,8.97558594 26.5166016,8.97558594 C25.59375,8.97558594 24.9785156,9.38867188 24.9785156,10.0126953 C24.9785156,10.4960938 25.4003906,10.8212891 26.2705078,11.0234375 L28.0898438,11.4189453 C30.0322266,11.8583984 30.8056641,12.6054688 30.8056641,14.046875 C30.8056641,15.9277344 29.0742188,17.1669922 26.5429688,17.1669922 C23.9941406,17.1669922 22.3945312,15.9365234 22.2626953,14.0732422 L24.7675781,14.0732422 C24.890625,14.890625 25.5498047,15.3476562 26.6132812,15.3476562 C27.6328125,15.3476562 28.2568359,14.9521484 28.2568359,14.3193359 C28.2568359,13.8183594 27.9228516,13.5546875 27.0439453,13.34375 L25.2597656,12.9394531 C23.4404297,12.5263672 22.5,11.5859375 22.5,10.1708984 Z M41.0097656,7.32324219 L41.0097656,17 L38.53125,17 L38.53125,15.2509766 L38.4785156,15.2509766 C37.9863281,16.4638672 37.0371094,17.140625 35.5693359,17.140625 C33.4775391,17.140625 32.0976562,15.7783203 32.0976562,13.5283203 L32.0976562,7.32324219 L34.6640625,7.32324219 L34.6640625,12.9921875 C34.6640625,14.3017578 35.3144531,15.0048828 36.5009766,15.0048828 C37.6962891,15.0048828 38.4433594,14.1435547 38.4433594,12.8339844 L38.4433594,7.32324219 L41.0097656,7.32324219 Z M42.8203125,17 L42.8203125,3.7109375 L45.3867188,3.7109375 L45.3867188,17 L42.8203125,17 Z M47.8740234,5.16992188 L50.4404297,5.16992188 L50.4404297,7.32324219 L52.2333984,7.32324219 L52.2333984,9.265625 L50.4404297,9.265625 L50.4404297,13.9677734 C50.4404297,14.7148438 50.8095703,15.0751953 51.5917969,15.0751953 C51.8203125,15.0751953 52.0751953,15.0576172 52.2333984,15.03125 L52.2333984,16.9296875 C51.9697266,16.9824219 51.5126953,17.0351562 50.9941406,17.0351562 C48.7529297,17.0351562 47.8740234,16.2792969 47.8740234,14.3896484 L47.8740234,9.265625 L46.5644531,9.265625 L46.5644531,7.32324219 L47.8740234,7.32324219 L47.8740234,5.16992188 Z M53.5341797,10.1708984 C53.5341797,8.3515625 55.1337891,7.15625 57.5859375,7.15625 C59.9765625,7.15625 61.5673828,8.37792969 61.6025391,10.2236328 L59.2294922,10.2236328 C59.1767578,9.45898438 58.5351562,8.97558594 57.5507812,8.97558594 C56.6279297,8.97558594 56.0126953,9.38867188 56.0126953,10.0126953 C56.0126953,10.4960938 56.4345703,10.8212891 57.3046875,11.0234375 L59.1240234,11.4189453 C61.0664062,11.8583984 61.8398438,12.6054688 61.8398438,14.046875 C61.8398438,15.9277344 60.1083984,17.1669922 57.5771484,17.1669922 C55.0283203,17.1669922 53.4287109,15.9365234 53.296875,14.0732422 L55.8017578,14.0732422 C55.9248047,14.890625 56.5839844,15.3476562 57.6474609,15.3476562 C58.6669922,15.3476562 59.2910156,14.9521484 59.2910156,14.3193359 C59.2910156,13.8183594 58.9570312,13.5546875 58.078125,13.34375 L56.2939453,12.9394531 C54.4746094,12.5263672 53.5341797,11.5859375 53.5341797,10.1708984 Z M67.0869141,17 L67.0869141,7.32324219 L69.6533203,7.32324219 L69.6533203,17 L67.0869141,17 Z M68.3701172,6.26855469 C67.6142578,6.26855469 66.9902344,5.68847656 66.9902344,4.92382812 C66.9902344,4.15917969 67.6142578,3.58789062 68.3701172,3.58789062 C69.1347656,3.58789062 69.7587891,4.15917969 69.7587891,4.92382812 C69.7587891,5.68847656 69.1347656,6.26855469 68.3701172,6.26855469 Z M71.4375,17 L71.4375,7.32324219 L73.9160156,7.32324219 L73.9160156,9.0546875 L73.96875,9.0546875 C74.5224609,7.83300781 75.5068359,7.18261719 76.9921875,7.18261719 C79.1367188,7.18261719 80.3496094,8.53613281 80.3496094,10.7949219 L80.3496094,17 L77.7832031,17 L77.7832031,11.3310547 C77.7832031,10.0478516 77.1855469,9.31835938 75.9726562,9.31835938 C74.7421875,9.31835938 74.0039062,10.1972656 74.0039062,11.4804688 L74.0039062,17 L71.4375,17 Z M94.6582031,10.8916016 L92.2675781,10.8916016 C92.1269531,9.88964844 91.4238281,9.17773438 90.3076172,9.17773438 C88.9892578,9.17773438 88.1542969,10.3027344 88.1542969,12.1572266 C88.1542969,14.046875 88.9892578,15.1367188 90.3164062,15.1367188 C91.3974609,15.1367188 92.109375,14.5478516 92.2763672,13.484375 L94.6669922,13.484375 C94.5175781,15.734375 92.8300781,17.1669922 90.2900391,17.1669922 C87.3984375,17.1669922 85.5527344,15.2685547 85.5527344,12.1572266 C85.5527344,9.08984375 87.3984375,7.15625 90.2724609,7.15625 C92.8740234,7.15625 94.5351562,8.73828125 94.6582031,10.8916016 Z M100.362305,17.1669922 C97.4267578,17.1669922 95.5898438,15.2861328 95.5898438,12.1572266 C95.5898438,9.06347656 97.453125,7.15625 100.362305,7.15625 C103.280273,7.15625 105.134766,9.0546875 105.134766,12.1572266 C105.134766,15.2949219 103.297852,17.1669922 100.362305,17.1669922 Z M100.362305,15.1894531 C101.71582,15.1894531 102.524414,14.0820312 102.524414,12.1572266 C102.524414,10.25 101.707031,9.125 100.362305,9.125 C99.0087891,9.125 98.1914062,10.2587891 98.1914062,12.1572266 C98.1914062,14.0820312 99.0087891,15.1894531 100.362305,15.1894531 Z M106.576172,17 L106.576172,3.7109375 L109.142578,3.7109375 L109.142578,17 L106.576172,17 Z M115.356445,17.1669922 C112.420898,17.1669922 110.583984,15.2861328 110.583984,12.1572266 C110.583984,9.06347656 112.447266,7.15625 115.356445,7.15625 C118.274414,7.15625 120.128906,9.0546875 120.128906,12.1572266 C120.128906,15.2949219 118.291992,17.1669922 115.356445,17.1669922 Z M115.356445,15.1894531 C116.709961,15.1894531 117.518555,14.0820312 117.518555,12.1572266 C117.518555,10.25 116.701172,9.125 115.356445,9.125 C114.00293,9.125 113.185547,10.2587891 113.185547,12.1572266 C113.185547,14.0820312 114.00293,15.1894531 115.356445,15.1894531 Z M121.5,17 L121.5,7.32324219 L123.978516,7.32324219 L123.978516,9.0546875 L124.03125,9.0546875 C124.584961,7.83300781 125.569336,7.18261719 127.054688,7.18261719 C129.199219,7.18261719 130.412109,8.53613281 130.412109,10.7949219 L130.412109,17 L127.845703,17 L127.845703,11.3310547 C127.845703,10.0478516 127.248047,9.31835938 126.035156,9.31835938 C124.804688,9.31835938 124.066406,10.1972656 124.066406,11.4804688 L124.066406,17 L121.5,17 Z M131.941406,10.1708984 C131.941406,8.3515625 133.541016,7.15625 135.993164,7.15625 C138.383789,7.15625 139.974609,8.37792969 140.009766,10.2236328 L137.636719,10.2236328 C137.583984,9.45898438 136.942383,8.97558594 135.958008,8.97558594 C135.035156,8.97558594 134.419922,9.38867188 134.419922,10.0126953 C134.419922,10.4960938 134.841797,10.8212891 135.711914,11.0234375 L137.53125,11.4189453 C139.473633,11.8583984 140.24707,12.6054688 140.24707,14.046875 C140.24707,15.9277344 138.515625,17.1669922 135.984375,17.1669922 C133.435547,17.1669922 131.835938,15.9365234 131.704102,14.0732422 L134.208984,14.0732422 C134.332031,14.890625 134.991211,15.3476562 136.054688,15.3476562 C137.074219,15.3476562 137.698242,14.9521484 137.698242,14.3193359 C137.698242,13.8183594 137.364258,13.5546875 136.485352,13.34375 L134.701172,12.9394531 C132.881836,12.5263672 131.941406,11.5859375 131.941406,10.1708984 Z" id="Results-in-colons" fill="#273D54"></path>
                </g>
            </g>
        </g>
    </g>
</svg>