<svg xmlns="http://www.w3.org/2000/svg" width="169" height="35" viewBox="0 0 169 35"><g fill="none" fill-rule="evenodd"><path fill="#C0C0C0" d="M51.182 0c.246.153.537.13.805.195 2.986.73 5.009 3.299 5.009 6.372v21.788c0 3.366-2.257 6.019-5.58 6.56-.081.014-.188-.03-.234.085h-.156c-.146-.078-.305-.038-.457-.038-10.55-.002-21.1-.002-31.648-.002-.043 0-.087 0-.13.002-.15-.035-.09-.13-.046-.203.087-.146.217-.256.338-.371 1.38-1.311 2.575-2.782 3.7-4.312.085-.115.16-.234.219-.364.655-.929 1.305-1.86 1.886-2.84 1.792-3.021 3.238-6.203 4.433-9.503 1.495-4.131 2.557-8.374 3.306-12.698.057-.33.042-.672.152-.994a61.13 61.13 0 0 0 .432-3.175c.017-.154.033-.308.157-.424a.207.207 0 0 1 .137-.038c5.715 0 11.428 0 17.142-.002.152 0 .31.04.457-.038h.078z"/><path fill="#999" d="M23.057 29.796c-.421.71-.964 1.332-1.465 1.983-.868 1.127-1.886 2.116-2.878 3.128l-.037.008-.02-.003c-.028.03-.068.049-.131.049-4.082-.002-8.163 0-12.245 0-.126 0-.258-.034-.378.039h-.156c-1.216-.088-2.297-.527-3.255-1.27a6.7 6.7 0 0 1-2.297-3.225C.083 30.173.092 29.823 0 29.49V5.51c.117-1.104.541-2.091 1.213-2.958C2.103 1.404 3.237.582 4.65.171 5.037.058 5.439.089 5.825 0h.078c.12.072.253.038.38.038C14.677.04 23.073.041 31.468.04c.07.01.117.027.146.05l1.765.004-.45 3.384c-.012.087.005.182-.072.25-.435 3.154-1.16 6.246-2.028 9.305a63.217 63.217 0 0 1-3.06 8.47c-1.116 2.506-2.405 4.916-3.924 7.2-.249.374-.525.73-.789 1.094zM169 6.596c-.625.837-1.146 1.741-1.708 2.619-2.398 3.752-4.786 7.51-7.184 11.264-.118.186-.158.37-.157.582.003 2.56-.004 5.12.01 7.681.001.32-.078.417-.405.408a46.918 46.918 0 0 0-2.484-.001c-.3.007-.392-.068-.39-.382.013-2.534.004-5.069.011-7.603.001-.281-.059-.523-.204-.767-2.693-4.539-5.38-9.082-8.068-13.624-.038-.065-.07-.134-.11-.212.093-.09.2-.053.294-.053.79-.004 1.58.025 2.367-.013.415-.02.638.111.848.474 2.089 3.606 4.199 7.2 6.303 10.798.058.1.119.199.183.305.156-.073.2-.23.278-.352 2.309-3.61 4.618-7.22 6.912-10.84.183-.29.373-.392.71-.382.93.028 1.862.017 2.794.02v.078zm-46.926 5.588c-1.025-1.334-2.352-2.092-3.91-2.441-1.616-.362-3.24-.358-4.83.128-1.946.595-2.578 2.291-2.239 3.997.117.589.477 1.02.968 1.35.93.625 1.998.887 3.062 1.155 1.64.413 3.311.697 4.914 1.25 1.21.416 2.337.974 3.218 1.935 1.15 1.254 1.411 2.773 1.282 4.4-.211 2.671-2.05 4.595-4.716 5.23-4.655 1.11-8.919.31-12.64-2.836-.201-.17-.25-.287-.095-.528.432-.673.84-1.362 1.237-2.056.14-.244.199-.271.42-.053 2.855 2.828 6.287 3.573 10.137 2.747.262-.056.513-.172.76-.282 1.095-.487 1.67-1.322 1.718-2.534.046-1.159-.428-2.015-1.416-2.605-1.092-.653-2.314-.939-3.527-1.245-1.476-.373-2.971-.676-4.412-1.177-1.237-.43-2.376-1.02-3.194-2.089-.926-1.211-1.085-2.616-.887-4.054.403-2.94 2.196-4.813 5.352-5.509 3.714-.819 7.135-.209 10.097 2.328.228.195.229.323.08.563-.462.744-.895 1.505-1.379 2.326m-20.083 16.958c-.44 0-.88-.015-1.32.005-.248.012-.355-.076-.446-.306-.773-1.955-1.566-3.901-2.338-5.856-.097-.245-.212-.32-.473-.318-2.782.01-5.564.01-8.346 0-.261-.001-.377.073-.473.318-.765 1.942-1.551 3.876-2.318 5.817-.099.25-.216.355-.501.348a58.493 58.493 0 0 0-2.562-.003c-.305.005-.413-.027-.274-.37 1.962-4.837 3.913-9.68 5.866-14.52.998-2.474 2.002-4.946 2.987-7.425.106-.267.24-.34.508-.332.633.019 1.268.019 1.902 0 .257-.008.38.065.48.315 2.88 7.137 5.768 14.269 8.655 21.402.014.035.029.072.04.108.084.265.372.575.236.762-.101.14-.527.049-.808.054-.272.005-.544 0-.815 0m35.943-9.661c0 3.09-.006 6.181.008 9.272.002.329-.086.408-.406.398a35.37 35.37 0 0 0-2.368 0c-.374.014-.495-.063-.494-.475.016-6.155.006-12.31.021-18.466.001-.399-.102-.481-.485-.478-2.317.019-4.633.004-6.95.016-.29.002-.37-.068-.362-.362.022-.827.023-1.655 0-2.482-.01-.314.06-.407.393-.406 3.804.014 7.61.009 11.414.009 2.213 0 4.426.005 6.639-.007.283-.001.373.056.364.355-.023.84-.025 1.682.001 2.521.01.326-.107.372-.392.371-2.33-.01-4.66.001-6.989-.014-.32-.002-.404.071-.402.398.013 3.117.008 6.233.008 9.35m-62.819-.045c0 3.103-.004 6.206.008 9.309 0 .317-.074.416-.401.406a33.921 33.921 0 0 0-2.445.002c-.384.016-.43-.13-.43-.46.01-4.938.006-9.877.006-14.815 0-1.267-.008-2.534.007-3.801.003-.271-.071-.343-.343-.342-2.341.011-4.683 0-7.025.014-.313.001-.423-.064-.413-.397a40.86 40.86 0 0 0 0-2.443c-.01-.317.067-.413.397-.41 1.811.017 3.622.008 5.434.008 4.179 0 8.358.006 12.537-.01.37-.001.44.11.43.448-.024.813-.023 1.629 0 2.443.008.296-.077.362-.364.36-2.316-.012-4.632.003-6.948-.016-.385-.004-.46.109-.458.473.015 3.077.008 6.154.008 9.231"/><path fill="#FEFEFE" d="M33.033 29.055c-.62-.841-1.17-1.68-1.49-2.645-.124-.376.047-.736.185-1.086.985-2.487 2.1-4.917 3.256-7.327.91-1.898 1.77-3.823 2.899-5.608 1.25-1.975 2.7-3.769 4.72-5.008 2.395-1.469 4.958-1.768 7.635-.93.916.288 1.63.839 1.833 1.865.065.33.003.642-.084.954-.393 1.397-1.25 2.51-2.192 3.568-1.283 1.441-2.724 2.725-4.085 4.088-.466.466-.925.942-1.254 1.522-.443.782-.338 1.448.319 2.057.41.38.905.644 1.345.984.351.27.665.574.916.94.84 1.233.722 2.526-.33 3.587-1.137 1.147-2.52 1.825-4.09 2.155-1.522.32-3.064.464-4.615.542-.955.049-1.91.088-2.865.13-.44.019-.465-.02-.392-.448.299-1.767 1.353-2.834 3.07-3.24 1.244-.294 2.505-.515 3.752-.796a7.627 7.627 0 0 0 1.954-.735c.429-.232.465-.477.085-.795-.327-.274-.684-.51-1.019-.774a6.249 6.249 0 0 1-1.07-1.065c-.919-1.18-.986-2.348-.212-3.63.489-.808 1.17-1.444 1.868-2.061 1.182-1.044 2.402-2.045 3.491-3.19.72-.757 1.286-1.618 1.8-2.517.086-.15.232-.325.116-.501-.13-.197-.366-.174-.57-.144-.97.138-1.813.583-2.616 1.116-1.424.946-2.51 2.228-3.516 3.58-2.412 3.246-4.438 6.73-6.336 10.292-.844 1.585-1.612 3.207-2.367 4.837-.037.08-.078.157-.141.283m-20.72-9.09c-1.513 2.175-2.787 4.448-3.54 6.985-.187.63-.37 1.262-.547 1.896-.051.184-.114.252-.312.152-.568-.287-1.102-.618-1.578-1.044-.832-.742-.964-1.645-.707-2.683.435-1.753 1.26-3.32 2.218-4.831a26.41 26.41 0 0 1 2.027-2.788c.198-.238.183-.367-.063-.536-.401-.276-.786-.577-1.195-.881a16.58 16.58 0 0 1 1.566-1.002c.355-.198.666-.037.932.167.321.248.501.16.741-.126 2.493-2.96 5.274-5.61 8.468-7.811a20.378 20.378 0 0 1 1.746-1.078c1.107-.608 2.219-.482 3.319-.001.483.211.607.598.409 1.093a2.122 2.122 0 0 1-.234.444c-1.568 2.197-2.623 4.648-3.486 7.182-1.162 3.417-2.274 6.852-3.233 10.333-.11.397-.167.808-.27 1.207-.128.498-.36.711-.867.735-.94.046-1.82-.173-2.603-.717-.209-.146-.315-.339-.365-.605-.398-2.114-1.207-4.072-2.302-5.917-.033-.055-.074-.104-.124-.174m84.792.106h-7.729l3.866-9.002 3.863 9.002"/><path fill="#999" d="M21.71 9.618c-2.515 3.368-4.454 7.001-5.175 11.176-.18-.006-.188-.115-.229-.184a15.5 15.5 0 0 0-2.143-2.838c-.103-.107-.184-.176-.057-.343 2.176-2.891 4.588-5.557 7.433-7.812.03-.023.063-.04.095-.059l.075.06z"/></g></svg>