<svg xmlns="http://www.w3.org/2000/svg" xmlns:xlink="http://www.w3.org/1999/xlink" viewBox="0 0 560.837 471.057">
  <defs>
    <style>
      .cls-1 {
        fill: #2b68b3;
      }

      .cls-2 {
        fill: #f7f8f9;
      }

      .cls-3, .cls-5 {
        opacity: 0.2;
      }

      .cls-3 {
        fill: url(#linear-gradient);
      }

      .cls-4 {
        fill: #bce6fb;
      }

      .cls-5 {
        fill: url(#linear-gradient-2);
      }

      .cls-6 {
        fill: #c5e5f8;
      }

      .cls-7 {
        fill: #70b7dd;
      }

      .cls-8 {
        fill: #2d2b6f;
      }

      .cls-15, .cls-16, .cls-17, .cls-9 {
        fill: none;
        stroke-miterlimit: 10;
      }

      .cls-9 {
        stroke: #fafcfd;
      }

      .cls-17, .cls-9 {
        stroke-width: 7px;
      }

      .cls-10 {
        fill: #ea7200;
      }

      .cls-11 {
        fill: #a3d0f0;
      }

      .cls-12 {
        fill: #f7a1a1;
      }

      .cls-13 {
        fill: #f9c910;
      }

      .cls-14 {
        fill: #f9ec08;
      }

      .cls-15 {
        stroke: #2d2b6f;
      }

      .cls-15, .cls-16 {
        stroke-width: 3px;
      }

      .cls-16 {
        stroke: #ea7200;
      }

      .cls-17 {
        stroke: #2b68b3;
      }

      .cls-18, .cls-19 {
        opacity: 0.1;
      }

      .cls-18 {
        fill: url(#linear-gradient-3);
      }

      .cls-19 {
        fill: url(#linear-gradient-4);
      }

      .cls-20 {
        fill: #4383c4;
      }

      .cls-21 {
        fill: #56a545;
      }
    </style>
    <linearGradient id="linear-gradient" x1="0.416" y1="0.953" x2="0.285" y2="1.299" gradientUnits="objectBoundingBox">
      <stop offset="0" stop-color="#fff" stop-opacity="0"/>
      <stop offset="0.092" stop-color="#f9fcfe" stop-opacity="0.09"/>
      <stop offset="0.217" stop-color="#e7f2fa" stop-opacity="0.216"/>
      <stop offset="0.363" stop-color="#cae2f5" stop-opacity="0.361"/>
      <stop offset="0.523" stop-color="#a2cbed" stop-opacity="0.522"/>
      <stop offset="0.695" stop-color="#6eaee3" stop-opacity="0.694"/>
      <stop offset="0.874" stop-color="#308cd7" stop-opacity="0.875"/>
      <stop offset="1" stop-color="#0071ce"/>
    </linearGradient>
    <linearGradient id="linear-gradient-2" x1="0.329" y1="0.099" x2="0.615" y2="0.928" xlink:href="#linear-gradient"/>
    <linearGradient id="linear-gradient-3" x1="0.053" y1="0.224" x2="0.79" y2="0.792" gradientUnits="objectBoundingBox">
      <stop offset="0" stop-color="#3084d6" stop-opacity="0.2"/>
      <stop offset="0.178" stop-color="#2580d4" stop-opacity="0.341"/>
      <stop offset="0.696" stop-color="#0a75cf" stop-opacity="0.757"/>
      <stop offset="1" stop-color="#0071ce"/>
    </linearGradient>
    <linearGradient id="linear-gradient-4" x1="-0.004" y1="0.255" x2="0.901" y2="0.785" xlink:href="#linear-gradient-3"/>
  </defs>
  <g id="cloud_engineers" data-name="cloud engineers" transform="translate(-406.163 -281)">
    <g id="Group_154" data-name="Group 154" transform="translate(131 112)">
      <path id="Path_12" data-name="Path 12" class="cls-1" d="M576.065,819.935h0a37,37,0,0,1,68.76-12.325,29.429,29.429,0,0,1,12.325-2.595c15.964,0,28.542,13.228,28.542,29.191a28.289,28.289,0,0,1-28.542,28.542H576.065a21.406,21.406,0,0,1,0-42.813Z" transform="translate(-279.496 -463.373)"/>
      <path id="Path_14" data-name="Path 14" class="cls-2" d="M848.037,538.468h0a110.55,110.55,0,0,1,108.329-92.112c41.047,0,77.2,23.051,96,56.435,10.969-5.1,22.784-8.433,35.677-8.433a85.906,85.906,0,0,1,84.977,74.6,49.9,49.9,0,0,1,12.325-1.3,49.3,49.3,0,0,1,0,98.6c-1.384,0-2.537.112-3.892,0H848.037c-35.154,0-63.57-29.066-63.57-64.219A63.513,63.513,0,0,1,848.037,538.468Z" transform="translate(-432.759 -235.097)"/>
      <path id="Path_15" data-name="Path 15" class="cls-3" d="M1234.648,616.955a49.271,49.271,0,0,1-49.3,49.3c-1.382,0-2.54.11-3.892,0H848.036c-35.156,0-63.57-29.066-63.57-64.219a63.512,63.512,0,0,1,63.57-63.57h0a110.55,110.55,0,0,1,108.329-92.112,110.9,110.9,0,0,1,96,56.435c10.969-5.1,22.786-8.433,35.677-8.433a86.668,86.668,0,0,1,33.731,7.135s0,0,0,0a85.377,85.377,0,0,1,51.245,67.463,49.91,49.91,0,0,1,12.325-1.3A49.269,49.269,0,0,1,1234.648,616.955Z" transform="translate(-432.759 -235.094)"/>
      <path id="Path_16" data-name="Path 16" class="cls-4" d="M1667.846,919.5a36.5,36.5,0,0,0-14.271,3.243,55.879,55.879,0,0,0-52.543-36.975,54.905,54.905,0,0,0-55.138,55.138c0,30.635,24.5,55.786,55.138,55.786a55.317,55.317,0,0,0,7.784-.649h52.543a38.366,38.366,0,0,0,6.487.649,39.248,39.248,0,0,0,38.921-38.921C1706.767,936.53,1689.089,919.5,1667.846,919.5Z" transform="translate(-940.554 -527.911)"/>
      <path id="Path_17" data-name="Path 17" class="cls-5" d="M1667.846,919.5a36.5,36.5,0,0,0-14.271,3.243,55.879,55.879,0,0,0-52.543-36.975,54.905,54.905,0,0,0-55.138,55.138c0,30.635,24.5,55.786,55.138,55.786a55.317,55.317,0,0,0,7.784-.649h52.543a38.366,38.366,0,0,0,6.487.649,39.248,39.248,0,0,0,38.921-38.921C1706.767,936.53,1689.089,919.5,1667.846,919.5Z" transform="translate(-940.554 -527.911)"/>
      <g id="Group_54" data-name="Group 54" transform="translate(257 361.103)">
        <path id="Path_18" data-name="Path 18" class="cls-6" d="M997.447,1191.89h4.541V925.283H996.8l.649,24.65H946.2v-24.65h-5.189l.649,266.607H946.2v-32.434h51.245Zm0-155.683v36.975H946.2v-36.975Zm-51.245-5.189V997.286h51.245v33.731Zm51.245,46.7v35.029H946.2v-35.029Zm0-122.6V992.1H946.2V955.122ZM946.2,1154.267v-36.975h51.245v36.975Z" transform="translate(-794.411 -915.553)"/>
        <path id="Path_20" data-name="Path 20" class="cls-7" d="M997.859,1105.952v6.487H946.613v-6.487h-4.541v206.28h4.541V1279.8h51.245v32.434h4.541v-206.28Zm-51.245,11.676h51.245v33.731H946.613Zm0,38.921h51.245v36.975H946.613Zm0,41.515h51.245v35.029H946.613Zm0,76.544v-36.975h51.245v36.975Z" transform="translate(-794.822 -1035.895)"/>
        <path id="Path_21" data-name="Path 21" class="cls-2" d="M876.147,920.346c.359-1.522-1.073-2.883-2.595-3.243a2.57,2.57,0,0,0-3.243,1.946l-5.838,25.3H814.523l5.838-24c.359-1.522-1.073-2.883-2.595-3.243a2.571,2.571,0,0,0-3.243,1.946l-25.3,107.681c-.142.316.017.933,0,1.3l-9.73,40.218a5.654,5.654,0,0,0-.649,1.946c0,.045,0-.044,0,0L751.6,1185.655a2.572,2.572,0,0,0,1.946,3.243,2.726,2.726,0,0,0,.649,0c1.283,0,2.936-.643,3.243-1.946l7.135-32.434h49.948l-7.135,31.137a2.572,2.572,0,0,0,1.946,3.243,2.726,2.726,0,0,0,.649,0c1.283,0,2.936-.643,3.243-1.946l56.435-238.714c.117-.278-.023-.333,0-.649Zm-12.974,29.839-8.433,36.326H804.793l8.433-36.326Zm-17.514,74.6H795.711L803.5,991.7h49.948Zm-10.379,42.164H785.333l8.433-36.326h50.6Zm-9.082,39.569H776.251l7.784-33.731h49.948Zm-59.678,42.164,8.433-36.326H824.9l-8.433,36.326Z" transform="translate(-667.922 -909.967)"/>
        <g id="Group_53" data-name="Group 53" transform="translate(70.68 0)">
          <g id="Group_45" data-name="Group 45" transform="translate(25.252 219.902)">
            <path id="Path_22" data-name="Path 22" class="cls-2" d="M793.521,1555.96l-2.595,11.028s.748,3.243,5.189,3.243,5.838-5.189,5.838-5.189l1.3-7.135Z" transform="translate(-790.206 -1555.96)"/>
            <path id="Path_23" data-name="Path 23" class="cls-8" d="M788.963,1585.4s-1.622,5.784,0,7.135,9.08,0,12.325,0,10.324-.108,11.676-.649a10.193,10.193,0,0,1,2.595-.649s-1.129-4.74-4.541-5.189c-5.057-.666-8.715-3.784-11.028-3.243s.217,2.324-1.946,2.595S793.828,1587.3,788.963,1585.4Z" transform="translate(-788.242 -1573.728)"/>
          </g>
          <path id="Path_24" data-name="Path 24" class="cls-8" d="M818.191,1141.41s3.476,30.682,1.3,46.056-15.568,96-15.568,96-10.692,3.259-15.568-1.946c0,0,10.089-72.283,7.784-94.707s0-38.272,0-38.272Z" transform="translate(-763.028 -1059.677)"/>
          <path id="Path_25" data-name="Path 25" class="cls-2" d="M920.046,1327.043l-1.3,7.784s.1,2.595,4.541,2.595,5.838-5.189,5.838-5.189l1.946-6.487Z" transform="translate(-849.963 -1182.388)"/>
          <path id="Path_26" data-name="Path 26" class="cls-8" d="M779.4,1157s-5.138,19.513,1.946,29.839,25.28,7.6,40.218-5.189c6.318-5.411,6.487-5.838,6.487-5.838l-3.892,37.623s8.362,2.7,14.271-1.3c0,0,14.107-47.16,5.189-54.489s-33.791,10.116-36.975,7.784-5.838-12.974-5.838-12.974Z" transform="translate(-756.024 -1066.83)"/>
          <path id="Path_27" data-name="Path 27" class="cls-9" d="M812.67,1263.366s10.984,4.745,23.352-4.541" transform="translate(-779.237 -1137.847)"/>
          <path id="Path_28" data-name="Path 28" class="cls-8" d="M915.785,1348.92s-1.622,5.135,0,6.487,9.08,0,12.325,0,10.973.54,12.325,0a19.983,19.983,0,0,0,2.595-1.3s-1.129-4.74-4.541-5.189c-5.057-.666-9.364-3.784-11.676-3.243s.217,2.324-1.946,2.595S920.651,1350.812,915.785,1348.92Z" transform="translate(-847.648 -1195.832)"/>
          <g id="Group_50" data-name="Group 50" transform="translate(2.621 124.546)">
            <g id="Group_49" data-name="Group 49" transform="translate(0 1.946)">
              <path id="Path_29" data-name="Path 29" class="cls-10" d="M724.338,1301.754l6.487-5.189,3.243,3.892-1.946,3.243Z" transform="translate(-723.041 -1289.43)"/>
              <g id="Group_46" data-name="Group 46" transform="translate(0 5.838)">
                <path id="Path_30" data-name="Path 30" class="cls-10" d="M786.238,1314.908a2.6,2.6,0,0,1-2.595,2.595H744.074a2.605,2.605,0,0,1-2.595-2.595V1296.1a2.6,2.6,0,0,1,2.595-2.595h39.569a2.605,2.605,0,0,1,2.595,2.595Z" transform="translate(-734.344 -1293.502)"/>
                <path id="Path_31" data-name="Path 31" class="cls-10" d="M853.131,1302.4l7.135-5.838v22.055l-6.487,5.189Z" transform="translate(-809.021 -1295.268)"/>
                <path id="Path_32" data-name="Path 32" class="cls-1" d="M765.671,1333.016a2.605,2.605,0,0,1-2.595,2.595H722.858a2.605,2.605,0,0,1-2.595-2.595v-18.163a2.6,2.6,0,0,1,2.595-2.595h40.218a2.605,2.605,0,0,1,2.595,2.595Z" transform="translate(-720.264 -1305.772)"/>
              </g>
              <g id="Group_47" data-name="Group 47" transform="translate(0 23.352)">
                <rect id="Rectangle_24" data-name="Rectangle 24" class="cls-11" width="45.407" height="2.595"/>
              </g>
              <g id="Group_48" data-name="Group 48" transform="translate(18.163 12.325)">
                <path id="Path_33" data-name="Path 33" class="cls-11" d="M778.966,1312.258v2.595h6.487v-2.595" transform="translate(-777.668 -1312.258)"/>
                <path id="Path_34" data-name="Path 34" class="cls-11" d="M784.588,1316.15h-9.081v-3.892H778.1v1.3h3.892v-1.3h2.595Z" transform="translate(-775.506 -1312.258)"/>
              </g>
              <path id="Path_35" data-name="Path 35" class="cls-1" d="M741.264,1284.34c0,.912-.386,1.3-1.3,1.3h0c-.912,0-1.946-.385-1.946-1.3v-7.784c0-.912,1.034-1.3,1.946-1.3h0c.912,0,1.3.386,1.3,1.3Z" transform="translate(-732.182 -1275.258)"/>
              <path id="Path_36" data-name="Path 36" class="cls-1" d="M851.425,1284.34c0,.912-1.034,1.3-1.946,1.3h0c-.912,0-1.946-.385-1.946-1.3v-7.784c0-.912,1.034-1.3,1.946-1.3h0c.912,0,1.946.386,1.946,1.3Z" transform="translate(-805.369 -1275.258)"/>
            </g>
            <path id="Path_37" data-name="Path 37" class="cls-1" d="M777.4,1271.772c0,.912-.385,1.3-1.3,1.3H738.48c-.912,0-1.946-.386-1.946-1.3h0a2.2,2.2,0,0,1,1.946-1.946H776.1c.912,0,1.3,1.034,1.3,1.946Z" transform="translate(-731.344 -1269.826)"/>
          </g>
          <path id="Path_38" data-name="Path 38" class="cls-12" d="M716.742,1072.619s-4.29,19.55-3.892,27.893,15.177,26.57,19.46,31.136c0,0,1.946,3.8,1.946,5.189s-.081,6.235,3.892,5.838,7.837-.9,8.433-1.3,0-3.892,0-3.892h2.595s-2.547-5.494-4.541-6.487-5.893-2.632-7.135-4.541-8.644-21.974-11.028-25.947c0,0,2.006-14.318,4.541-22.055S719.078,1068.188,716.742,1072.619Z" transform="translate(-712.824 -1012.292)"/>
          <g id="Group_52" data-name="Group 52" transform="translate(1.07)">
            <path id="Path_39" data-name="Path 39" class="cls-12" d="M914.934,1000.1s15.252,5.78,27.244,1.946a67.123,67.123,0,0,0,19.46-9.73s.264-4.984,3.243-5.838,2.945.614,1.946,2.595-2.595,12.325-2.595,12.325-29.214,23.768-58.381,11.028Z" transform="translate(-842.677 -955.988)"/>
            <path id="Path_40" data-name="Path 40" class="cls-10" d="M891.946,1038.56a3.361,3.361,0,0,0,4.541,0c2.436-2.017,7.89-5.525,9.081-12.325,0,0-.3-1.938-2.595-.649S891.946,1038.56,891.946,1038.56Z" transform="translate(-833.312 -982.124)"/>
            <path id="Path_41" data-name="Path 41" class="cls-13" d="M840.033,988.036s.064-2.308,3.243-2.595,12.778,6.864,16.217,9.73a22.031,22.031,0,0,0,8.433,3.892s-4.131,13.4-12.974,12.974S837.311,1001.219,840.033,988.036Z" transform="translate(-798.264 -955.602)"/>
            <path id="Path_42" data-name="Path 42" class="cls-10" d="M718.976,1111.841h-2.595s-.884,3.628.649,5.189,6.167,8.458,11.676,8.433c0,0,3.254-.859,1.3-5.189S718.976,1111.841,718.976,1111.841Z" transform="translate(-716.128 -1039.838)"/>
            <path id="Path_43" data-name="Path 43" class="cls-14" d="M735.158,1001.676c1.506-2.089,27.211-15.644,38.272-16.217,0,0,3.394,4.52,4.541,16.217s2.353,30.942,4.541,35.677c0,0-29.876,10.439-31.785,8.433s-9.24-18.556-11.676-24S733.751,1003.628,735.158,1001.676Z" transform="translate(-728.418 -955.62)"/>
            <g id="Group_51" data-name="Group 51" transform="translate(8.038)">
              <path id="Path_44" data-name="Path 44" class="cls-8" d="M777.378,937.282s3.43-2.475,5.189-8.433,3.724-10.764-1.3-14.271-16.467-7.034-18.163,5.189S777.378,937.282,777.378,937.282Z" transform="translate(-755.323 -906.145)"/>
              <path id="Path_45" data-name="Path 45" class="cls-12" d="M758.488,931.834s-1.892,15.144.649,17.514,7.893.166,9.082,2.595,6.945,6.633,7.784,2.595-1.149-6.971-.649-10.379c0,0,3.778-1.647,3.243-5.189s-5.159-1.911-5.838-.649-1.5,1.258-1.3.649a19.4,19.4,0,0,0,1.3-9.73C772.011,924.28,760.59,920.793,758.488,931.834Z" transform="translate(-752.002 -914.968)"/>
              <path id="Path_46" data-name="Path 46" class="cls-15" d="M767.421,966.742s-1.483,5.489,1.3,5.189" transform="translate(-758.016 -943.066)"/>
              <path id="Path_47" data-name="Path 47" class="cls-15" d="M771.737,987.09s1.852,2.976,4.541-.649" transform="translate(-761.034 -956.277)"/>
              <path id="Path_48" data-name="Path 48" class="cls-8" d="M747.333,911.113s-5.62-1.271-7.135-8.433l9.081-6.487s3.842,3.514,11.676,5.838S765.5,913.06,765.5,913.06l-4.541-2.595A12.14,12.14,0,0,1,747.333,911.113Z" transform="translate(-740.197 -896.194)"/>
            </g>
            <path id="Path_49" data-name="Path 49" class="cls-10" d="M805.986,994.96a43.856,43.856,0,0,0-2.595,7.784c-.554,3.146-.944,5.763.649,5.189S811.777,992.882,805.986,994.96Z" transform="translate(-773.947 -961.877)"/>
            <path id="Path_50" data-name="Path 50" class="cls-10" d="M784.631,1005.294s4.346,2.828,5.189,4.541,1.433,6.715,0,5.189S780.476,1005.581,784.631,1005.294Z" transform="translate(-761.025 -968.968)"/>
            <path id="Path_51" data-name="Path 51" class="cls-16" d="M803.714,1034.766s-.072,9.965,2.595,12.974" transform="translate(-774.595 -988.385)"/>
            <path id="Path_52" data-name="Path 52" class="cls-13" d="M720.3,1033.375s-3.268,16.546-3.243,22.055c0,0,6.975,12.179,14.271,11.028,0,0,2.679-12.093,2.595-16.866C733.254,1011.706,720.3,1033.375,720.3,1033.375Z" transform="translate(-716.806 -983.426)"/>
          </g>
        </g>
      </g>
      <g id="Group_58" data-name="Group 58" transform="translate(520.039 251.801)">
        <g id="Group_55" data-name="Group 55" transform="translate(0 0)">
          <ellipse id="Ellipse_3" data-name="Ellipse 3" class="cls-17" cx="5.189" cy="5.514" rx="5.189" ry="5.514"/>
          <line id="Line_5" data-name="Line 5" class="cls-17" y2="27.244" transform="translate(5.189 11.028)"/>
        </g>
        <g id="Group_56" data-name="Group 56" transform="translate(11.028 38.921)">
          <circle id="Ellipse_4" data-name="Ellipse 4" class="cls-17" cx="5.189" cy="5.189" r="5.189" transform="translate(27.244 0)"/>
          <line id="Line_6" data-name="Line 6" class="cls-17" x1="27.244" transform="translate(0 5.189)"/>
        </g>
        <ellipse id="Ellipse_5" data-name="Ellipse 5" class="cls-17" cx="5.189" cy="5.514" rx="5.189" ry="5.514" transform="translate(0 38.272)"/>
        <g id="Group_57" data-name="Group 57" transform="translate(38.272 49.3)">
          <ellipse id="Ellipse_6" data-name="Ellipse 6" class="cls-17" cx="5.189" cy="5.514" rx="5.189" ry="5.514" transform="translate(0 27.244)"/>
          <line id="Line_7" data-name="Line 7" class="cls-17" y1="27.244" transform="translate(5.189 0)"/>
        </g>
      </g>
      <g id="Group_62" data-name="Group 62" transform="translate(556.365 313.425)">
        <g id="Group_59" data-name="Group 59" transform="translate(38.272 0)">
          <ellipse id="Ellipse_7" data-name="Ellipse 7" class="cls-17" cx="5.189" cy="5.514" rx="5.189" ry="5.514" transform="translate(0)"/>
          <line id="Line_8" data-name="Line 8" class="cls-17" y2="27.244" transform="translate(5.189 11.028)"/>
        </g>
        <g id="Group_60" data-name="Group 60" transform="translate(0 38.921)">
          <circle id="Ellipse_8" data-name="Ellipse 8" class="cls-17" cx="5.189" cy="5.189" r="5.189" transform="translate(0 0)"/>
          <line id="Line_9" data-name="Line 9" class="cls-17" x2="27.893" transform="translate(10.379 5.189)"/>
        </g>
        <ellipse id="Ellipse_9" data-name="Ellipse 9" class="cls-17" cx="5.189" cy="5.514" rx="5.189" ry="5.514" transform="translate(38.272 38.272)"/>
        <g id="Group_61" data-name="Group 61" transform="translate(0 49.3)">
          <ellipse id="Ellipse_10" data-name="Ellipse 10" class="cls-17" cx="5.189" cy="5.514" rx="5.189" ry="5.514" transform="translate(0 27.244)"/>
          <line id="Line_10" data-name="Line 10" class="cls-17" y1="27.244" transform="translate(5.189 0)"/>
        </g>
      </g>
      <g id="Group_68" data-name="Group 68" transform="translate(442.198 275.802)">
        <g id="Group_63" data-name="Group 63" transform="translate(45.407 0)">
          <circle id="Ellipse_11" data-name="Ellipse 11" class="cls-17" cx="5.189" cy="5.189" r="5.189" transform="translate(0)"/>
          <line id="Line_11" data-name="Line 11" class="cls-17" y2="27.244" transform="translate(5.189 10.379)"/>
        </g>
        <g id="Group_64" data-name="Group 64" transform="translate(55.786 38.272)">
          <ellipse id="Ellipse_12" data-name="Ellipse 12" class="cls-17" cx="5.189" cy="5.514" rx="5.189" ry="5.514" transform="translate(27.893 0)"/>
          <line id="Line_12" data-name="Line 12" class="cls-17" x1="27.893" transform="translate(0 5.189)"/>
        </g>
        <g id="Group_65" data-name="Group 65" transform="translate(0 57.732)">
          <circle id="Ellipse_13" data-name="Ellipse 13" class="cls-17" cx="5.189" cy="5.189" r="5.189" transform="translate(0 0)"/>
          <line id="Line_13" data-name="Line 13" class="cls-17" x2="53.84" transform="translate(10.379 5.189)"/>
        </g>
        <g id="Group_66" data-name="Group 66" transform="translate(18.163 75.895)">
          <ellipse id="Ellipse_14" data-name="Ellipse 14" class="cls-17" cx="5.189" cy="5.514" rx="5.189" ry="5.514" transform="translate(0 0)"/>
          <line id="Line_14" data-name="Line 14" class="cls-17" x2="54.489" transform="translate(10.379 5.189)"/>
        </g>
        <circle id="Ellipse_15" data-name="Ellipse 15" class="cls-17" cx="5.189" cy="5.189" r="5.189" transform="translate(45.407 38.272)"/>
        <ellipse id="Ellipse_16" data-name="Ellipse 16" class="cls-17" cx="5.514" cy="5.189" rx="5.514" ry="5.189" transform="translate(64.219 58.381)"/>
        <g id="Group_67" data-name="Group 67" transform="translate(83.679 48.651)">
          <circle id="Ellipse_17" data-name="Ellipse 17" class="cls-17" cx="5.189" cy="5.189" r="5.189" transform="translate(0 27.893)"/>
          <line id="Line_15" data-name="Line 15" class="cls-17" y1="27.893" transform="translate(5.189 0)"/>
        </g>
      </g>
      <g id="Group_82" data-name="Group 82" transform="translate(504.146 211.907)">
        <g id="Group_69" data-name="Group 69" transform="translate(7.135 0)">
          <rect id="Rectangle_25" data-name="Rectangle 25" class="cls-8" width="28.542" height="42.813" transform="translate(0)"/>
        </g>
        <g id="Group_70" data-name="Group 70" transform="translate(7.135 5.838)">
          <rect id="Rectangle_26" data-name="Rectangle 26" class="cls-1" width="28.542" height="43.461" transform="translate(0 0)"/>
        </g>
        <g id="Group_71" data-name="Group 71" transform="translate(18.163 0)">
          <rect id="Rectangle_27" data-name="Rectangle 27" class="cls-13" width="7.135" height="37.623" transform="translate(0)"/>
        </g>
        <g id="Group_76" data-name="Group 76" transform="translate(35.677 12.974)">
          <g id="Group_72" data-name="Group 72" transform="translate(0 30.488)">
            <rect id="Rectangle_28" data-name="Rectangle 28" class="cls-1" width="7.784" height="2.595" transform="translate(0 0)"/>
          </g>
          <g id="Group_73" data-name="Group 73" transform="translate(0 0)">
            <rect id="Rectangle_29" data-name="Rectangle 29" class="cls-1" width="7.784" height="2.595"/>
          </g>
          <g id="Group_74" data-name="Group 74" transform="translate(0 20.758)">
            <rect id="Rectangle_30" data-name="Rectangle 30" class="cls-1" width="7.784" height="1.946" transform="translate(0 0)"/>
          </g>
          <g id="Group_75" data-name="Group 75" transform="translate(0 9.73)">
            <rect id="Rectangle_31" data-name="Rectangle 31" class="cls-1" width="7.784" height="2.595" transform="translate(0 0)"/>
          </g>
        </g>
        <g id="Group_81" data-name="Group 81" transform="translate(0 12.974)">
          <g id="Group_77" data-name="Group 77" transform="translate(0 30.488)">
            <rect id="Rectangle_32" data-name="Rectangle 32" class="cls-1" width="7.135" height="2.595" transform="translate(0 0)"/>
          </g>
          <g id="Group_78" data-name="Group 78" transform="translate(0 0)">
            <rect id="Rectangle_33" data-name="Rectangle 33" class="cls-1" width="7.135" height="2.595"/>
          </g>
          <g id="Group_79" data-name="Group 79" transform="translate(0 20.758)">
            <rect id="Rectangle_34" data-name="Rectangle 34" class="cls-1" width="7.135" height="1.946" transform="translate(0 0)"/>
          </g>
          <g id="Group_80" data-name="Group 80" transform="translate(0 9.73)">
            <rect id="Rectangle_35" data-name="Rectangle 35" class="cls-1" width="7.135" height="2.595" transform="translate(0 0)"/>
          </g>
        </g>
      </g>
      <path id="Path_53" data-name="Path 53" class="cls-18" d="M1477.3,517.964s-16.564,10.338-20.109,16.217,0-3.243,0-3.243-9.3-38.716-35.677-61.624A110.759,110.759,0,0,1,1477.3,517.964Z" transform="translate(-857.688 -250.271)"/>
      <path id="Path_54" data-name="Path 54" class="cls-19" d="M1848.717,678.831S1835.5,685.108,1832.5,693.1c0,0,5-48.279-35.029-81.733A85.375,85.375,0,0,1,1848.717,678.831Z" transform="translate(-1108.452 -344.973)"/>
      <g id="Group_83" data-name="Group 83" transform="translate(832.5 172.433) rotate(90)">
        <path id="Path_55" data-name="Path 55" class="cls-9" d="M790.287,559.823c5.92,0,11,4.079,11,10a11.2,11.2,0,0,1-11,11c-5.92,0-10-5.08-10-11S784.366,559.823,790.287,559.823Z" transform="translate(-707.22 -488.823)"/>
        <path id="Path_56" data-name="Path 56" class="cls-9" d="M681.49,504.023a42.645,42.645,0,0,1,43-43" transform="translate(-641.423 -423.023)"/>
        <path id="Path_57" data-name="Path 57" class="cls-9" d="M561.887,439.6a92.056,92.056,0,0,1,92-92" transform="translate(-561.82 -347.604)"/>
      </g>
      <path id="Path_128" data-name="Path 128" class="cls-8" d="M1356.855,1097.45c0,2.208-1.092,3.892-2.595,3.892h-38.921c-1.5,0-2.595-1.685-2.595-3.892v-7.135c0-2.208,1.093-3.892,2.595-3.892h38.921c1.5,0,2.595,1.684,2.595,3.892Z" transform="translate(-785.246 -661.75)"/>
      <g id="Group_147" data-name="Group 147" transform="translate(557.311 439.593)">
        <path id="Path_129" data-name="Path 129" class="cls-10" d="M1457.527,1215.279h-27.893c-3.07,0-5.441-.8-7.135-2.595a10.917,10.917,0,0,1-2.595-7.135V1182.2c0-2.45-.323-4.323-1.3-5.189a2.969,2.969,0,0,0-1.946-.649h-9.082a5.33,5.33,0,0,1-4.541-1.946,6.37,6.37,0,0,1-1.3-4.541V1131.6h1.946v38.272h0c0,.009-.292,2.171.649,3.243.645.736,1.75.649,3.243.649h9.082a4.754,4.754,0,0,1,3.243,1.3c1.55,1.331,2.595,3.91,2.595,7.135v23.352a8.1,8.1,0,0,0,1.946,5.189,6.562,6.562,0,0,0,5.189,1.946h27.893Z" transform="translate(-1401.713 -1131.6)"/>
      </g>
      <g id="Group_148" data-name="Group 148" transform="translate(552.121 436.998)">
        <path id="Path_130" data-name="Path 130" class="cls-20" d="M1448.506,1214.2h-34.38c-3.07,0-5.441-.8-7.135-2.595a10.916,10.916,0,0,1-2.595-7.135v-49.3c0-2.479-.3-4.333-1.3-5.189a3.217,3.217,0,0,0-1.946-.649h-9.082a5.33,5.33,0,0,1-4.541-1.946,6.37,6.37,0,0,1-1.3-4.541v-19.46h1.946v20.109a3.337,3.337,0,0,0,.649,2.595c.645.736,1.75.649,3.243.649h9.082a4.753,4.753,0,0,1,3.243,1.3c1.55,1.331,2.595,3.91,2.595,7.135v49.948a8.1,8.1,0,0,0,1.946,5.189,6.561,6.561,0,0,0,5.189,1.946h34.38Z" transform="translate(-1386.206 -1123.383)"/>
      </g>
      <g id="Group_149" data-name="Group 149" transform="translate(546.852 439.593)">
        <path id="Path_131" data-name="Path 131" class="cls-14" d="M1422.783,1197.116h-46.056a5.734,5.734,0,0,1-4.541-1.946c-2.568-2.942-2.038-7.673-1.946-8.433V1131.6h1.946v55.138h0c-.182,1.363-.376,5.223,1.3,7.135a4.612,4.612,0,0,0,3.243,1.3h46.056Z" transform="translate(-1370.133 -1131.6)"/>
      </g>
      <g id="Group_150" data-name="Group 150" transform="translate(541.77 439.593)">
        <path id="Path_132" data-name="Path 132" class="cls-21" d="M1418.571,1206.846h-33.083c-3.654,0-6.147-.576-7.784-2.595a9.293,9.293,0,0,1-1.946-6.487c-.036-7.727-4.162-9.032-4.541-9.082h-4.541c-8.033,0-11.18-5.836-11.676-9.082h0v-48h1.946v48a9.555,9.555,0,0,0,9.73,7.135h5.189c.269.02,6.487.714,6.487,11.028h0a4.942,4.942,0,0,0,.649,4.541,8.5,8.5,0,0,0,6.487,2.595h33.083Z" transform="translate(-1355.001 -1131.6)"/>
      </g>
      <g id="Group_153" data-name="Group 153" transform="translate(590.405 436.998)">
        <path id="Path_133" data-name="Path 133" class="cls-1" d="M1603.051,1148.682l-50.6-25.3h0l-51.246,25.3s-2.373,56.654,51.246,89.517h0C1606.073,1205.336,1603.051,1148.682,1603.051,1148.682Z" transform="translate(-1501.193 -1123.384)"/>
        <path id="Path_134" data-name="Path 134" class="cls-20" d="M1611.275,1172.086l-42.813-21.406h0L1525,1172.086s-1.688,47.574,43.461,75.247h0C1613.612,1219.659,1611.275,1172.086,1611.275,1172.086Z" transform="translate(-1517.201 -1141.598)"/>
        <g id="Group_152" data-name="Group 152" transform="translate(32.125 29.515)">
          <path id="Path_135" data-name="Path 135" class="cls-9" d="M1627.915,1246.963a19.523,19.523,0,1,1-30.488,16.217c0-6.544,2.839-12.679,7.784-16.217" transform="translate(-1597.427 -1235.286)"/>
          <g id="Group_151" data-name="Group 151" transform="translate(7.784 0)">
            <path id="Path_136" data-name="Path 136" class="cls-9" d="M1644.06,1281.3c0,1.273-.673,2.595-1.946,2.595H1623.95a2.83,2.83,0,0,1-2.595-2.595v-14.92c0-1.274,1.322-1.946,2.595-1.946h18.163a1.74,1.74,0,0,1,1.946,1.946Z" transform="translate(-1621.356 -1246.916)"/>
            <path id="Path_137" data-name="Path 137" class="cls-9" d="M1636.372,1230.336v-12.325s1.3-5.838,6.487-5.838,6.487,5.838,6.487,5.838v12.325" transform="translate(-1631.182 -1212.173)"/>
            <line id="Line_22" data-name="Line 22" class="cls-9" y2="4.541" transform="translate(11.676 25.298)"/>
          </g>
        </g>
      </g>
    </g>
  </g>
</svg>
