<?xml version="1.0" encoding="UTF-8"?>
<svg width="392px" height="218px" viewBox="0 0 392 218" version="1.1" xmlns="http://www.w3.org/2000/svg" xmlns:xlink="http://www.w3.org/1999/xlink">
    <!-- Generator: Sketch 50.2 (55047) - http://www.bohemiancoding.com/sketch -->
    <title>Group 7</title>
    <desc>Created with Sketch.</desc>
    <defs>
        <linearGradient x1="100%" y1="50%" x2="1.56597737%" y2="65.6459263%" id="linearGradient-1">
            <stop stop-color="#7FF1A4" offset="0%"></stop>
            <stop stop-color="#2FBCA4" offset="55.4395378%"></stop>
            <stop stop-color="#2F7DA4" offset="100%"></stop>
        </linearGradient>
        <rect id="path-2" x="0" y="0" width="39" height="39" rx="19.5"></rect>
        <linearGradient x1="100.000012%" y1="56.4260602%" x2="0%" y2="56.4260602%" id="linearGradient-4">
            <stop stop-color="#208CA3" offset="0%"></stop>
            <stop stop-color="#3C4178" offset="42.22%"></stop>
            <stop stop-color="#241B3C" offset="100%"></stop>
        </linearGradient>
        <rect id="path-5" x="0" y="0" width="39" height="39" rx="19.5"></rect>
        <rect id="path-7" x="0" y="0" width="370.700008" height="73.7000016" rx="13.2000008"></rect>
        <filter x="-5.9%" y="-14.9%" width="111.9%" height="159.7%" filterUnits="objectBoundingBox" id="filter-8">
            <feOffset dx="0" dy="11" in="SourceAlpha" result="shadowOffsetOuter1"></feOffset>
            <feGaussianBlur stdDeviation="5.5" in="shadowOffsetOuter1" result="shadowBlurOuter1"></feGaussianBlur>
            <feColorMatrix values="0 0 0 0 0.352941176   0 0 0 0 0.333333333   0 0 0 0 0.650980392  0 0 0 0.609233469 0" type="matrix" in="shadowBlurOuter1"></feColorMatrix>
        </filter>
        <linearGradient x1="49.9587118%" y1="126.502749%" x2="49.9587118%" y2="-9.84507746%" id="linearGradient-9">
            <stop stop-color="#EDD7AD" offset="0%"></stop>
            <stop stop-color="#FF9661" offset="52%"></stop>
            <stop stop-color="#E74A69" offset="100%"></stop>
        </linearGradient>
        <rect id="path-10" x="0" y="0" width="51.4290812" height="51.3267868" rx="25.6633934"></rect>
        <linearGradient x1="86.8069689%" y1="150.168347%" x2="15.9377181%" y2="-31.8493902%" id="linearGradient-12">
            <stop stop-color="#F29E93" offset="0%"></stop>
            <stop stop-color="#C1463D" offset="52%"></stop>
            <stop stop-color="#AD1D24" offset="100%"></stop>
        </linearGradient>
        <rect id="path-13" x="0" y="0" width="39" height="39" rx="19.5"></rect>
    </defs>
    <g id="Page-1" stroke="none" stroke-width="1" fill="none" fill-rule="evenodd">
        <g id="home_1" transform="translate(-418.000000, -4415.000000)">
            <g id="Group-7" transform="translate(429.000000, 4415.000000)">
                <g id="Group-6" transform="translate(17.000000, 0.000000)">
                    <rect id="Rectangle-9" fill="url(#linearGradient-1)" x="0" y="0" width="337" height="56" rx="10"></rect>
                    <g id="Group-4" transform="translate(67.000000, 12.000000)" opacity="0.200000003">
                        <rect id="Rectangle-10" fill="#FFFFFF" x="0" y="0" width="221" height="9" rx="4.5"></rect>
                        <rect id="Rectangle-10-Copy" fill="#FFFFFF" x="0" y="14" width="135" height="5" rx="2.5"></rect>
                        <rect id="Rectangle-10-Copy-2" fill="#E9E9E9" x="0" y="24" width="161" height="9" rx="4.5"></rect>
                    </g>
                    <g id="if_male3_403019" transform="translate(12.000000, 9.000000)">
                        <mask id="mask-3" fill="white">
                            <use xlink:href="#path-2"></use>
                        </mask>
                        <use id="Mask" fill="#FFFFFF" opacity="0.200000003" xlink:href="#path-2"></use>
                    </g>
                </g>
                <g id="Group-6-Copy" transform="translate(17.000000, 95.000000)">
                    <rect id="Rectangle-9" fill="url(#linearGradient-4)" x="0" y="0" width="337" height="56" rx="10"></rect>
                    <g id="Group-4" transform="translate(67.000000, 12.000000)" opacity="0.200000003">
                        <rect id="Rectangle-10" fill="#EBEBEB" x="0" y="0" width="221" height="9" rx="4.5"></rect>
                        <rect id="Rectangle-10-Copy" fill="#D3D3D3" x="0" y="14" width="135" height="5" rx="2.5"></rect>
                        <rect id="Rectangle-10-Copy-2" fill="#E2BDFF" x="0" y="24" width="161" height="9" rx="4.5"></rect>
                    </g>
                    <g id="if_male3_403019" transform="translate(12.000000, 9.000000)">
                        <mask id="mask-6" fill="white">
                            <use xlink:href="#path-5"></use>
                        </mask>
                        <use id="Mask" fill="#FFFFFF" opacity="0.200000003" xlink:href="#path-5"></use>
                    </g>
                </g>
                <g id="Group-6-Copy-3" transform="translate(0.000000, 49.000000)">
                    <g id="Rectangle-9">
                        <use fill="black" fill-opacity="1" filter="url(#filter-8)" xlink:href="#path-7"></use>
                        <use fill="#FFFFFF" fill-rule="evenodd" xlink:href="#path-7"></use>
                    </g>
                    <g id="Group-28" transform="translate(15.400000, 11.000000)">
                        <g id="if_male3_403019" transform="translate(0.424332, 0.844643)">
                            <mask id="mask-11" fill="white">
                                <use xlink:href="#path-10"></use>
                            </mask>
                            <use id="Mask" fill="url(#linearGradient-9)" xlink:href="#path-10"></use>
                            <g id="if_Avatar_boy_man_people_account_client_male_person_user_work_sport_beard_team_glasses_384723" mask="url(#mask-11)">
                                <g transform="translate(-4.400000, 2.200000)">
                                    <path d="M30.2634808,0.124690984 C13.621487,0.124690984 0.12998674,13.6166727 0.12998674,30.258506 C0.12998674,46.9009811 13.621487,60.3924814 30.2634808,60.3924814 C46.9057954,60.3924814 60.3968143,46.9009811 60.3968143,30.258506 C60.3968143,13.6166727 46.9057954,0.124690984 30.2634808,0.124690984 Z" id="Shape" fill="#E5534D" fill-rule="nonzero"></path>
                                    <path d="M30.2912434,60.3924814 C36.6835419,60.3924814 42.6069253,58.3946976 47.4835143,55.0002784 C47.1944944,52.8587067 46.7725992,50.6473274 46.1568472,48.7516072 C44.199985,42.7325792 36.0750114,43.2032596 34.4957527,41.7352118 C32.9144079,40.2678059 35.1158376,33.1029689 35.1158376,33.1029689 L30.2910829,32.4259145 L25.467291,33.1029689 C25.467291,33.1029689 27.6677579,40.2678059 26.0880178,41.7352118 C24.5074753,43.2030991 16.3825017,42.7325792 14.4266024,48.7516072 C13.810048,50.6473274 13.3879923,52.8587067 13.0994539,55.0002784 C17.9760428,58.3946976 23.8994262,60.3924814 30.2912434,60.3924814 Z" id="Shape" fill="#F1D1AB" fill-rule="nonzero"></path>
                                    <path d="M30.2912434,32.4337779 L30.2352367,32.426075 L25.4108029,33.1031294 C25.4108029,33.1031294 27.6112698,40.2679664 26.0315297,41.7353723 C24.4516292,43.2032596 16.326495,42.7327397 14.3702748,48.7517676 C13.7537205,50.6474878 13.3319857,52.8588672 13.0431263,55.0004389 C17.9200362,58.3946976 23.8432591,60.3926419 30.2350763,60.3926419 C30.2533707,60.3926419 30.2719861,60.3897533 30.2910829,60.3897533 L30.2910829,32.4337779 L30.2912434,32.4337779 Z" id="Shape" fill="#E2BE9A" fill-rule="nonzero"></path>
                                    <path d="M44.1654824,26.9984064 C43.9416163,28.8185417 41.7071282,31.642945 40.2015287,31.4579145 C38.6970526,31.2736864 39.0963205,28.222047 39.3195446,26.4035165 C39.5434107,24.5838626 40.6250287,23.2199647 42.1304678,23.4053162 C43.6344625,23.5898652 44.3887065,25.1795549 44.1654824,26.9984064 Z" id="Shape" fill="#D3A685" fill-rule="nonzero"></path>
                                    <path d="M40.6948364,29.2795935 C40.6948364,29.2795935 42.8267794,27.5507698 41.2489651,26.8621611 C40.7951348,26.6642924 40.2406852,26.4930629 40.8456852,25.6534449 C41.4505248,24.8139873 42.157428,25.0277432 42.3053882,25.1497061 C42.943928,25.6693321 42.7495898,27.1559953 42.3897993,27.8526279 C41.6828961,29.2224635 41.3154028,29.2303269 40.6948364,29.2795935 Z" id="Shape" fill="#C19980" fill-rule="nonzero"></path>
                                    <path d="M37.7330645,54.6422532 L23.004283,54.6422532 L23.004283,45.4385501 C23.004283,45.4385501 28.4191133,47.1625594 30.2915643,47.1668923 C32.2014065,47.1712252 37.733225,45.4385501 37.733225,45.4385501 L37.733225,54.6422532 L37.7330645,54.6422532 Z" id="Shape" fill="#FFFFFF" fill-rule="nonzero"></path>
                                    <path d="M25.6125231,33.4378853 L26.5057406,37.7118815 C26.5057406,37.7118815 29.8630895,41.548737 34.077388,37.7118815 C34.7664782,33.5911413 35.1161586,32.938319 35.1161586,32.938319 L25.6125231,33.4378853 Z" id="Shape" fill="#D3A685" fill-rule="nonzero"></path>
                                    <path d="M42.2036455,19.5191941 C42.274416,19.0127272 42.1660938,18.7073386 42.1660938,18.7073386 C41.6878709,12.5669897 36.5564438,7.73003863 30.2912434,7.73003863 C24.0270058,7.73003863 18.8957391,12.5669897 18.4162325,18.7073386 C18.4162325,18.7073386 18.309194,19.0125667 18.3799646,19.5191941 C18.3794832,19.5612392 18.3759527,19.6031238 18.3759527,19.6448479 C18.3759527,20.8887087 18.5680442,22.0869938 18.9202922,23.2137061 C19.5865946,27.5366478 20.6338705,33.5266294 21.4290363,34.3415339 C23.7991278,36.7671507 29.1030683,39.024908 29.9776704,39.024908 C30.0097659,39.024908 30.0375285,39.024908 30.065933,39.024908 C30.1084595,39.024908 30.1471346,39.024908 30.1824396,39.024908 C30.2779237,39.024908 30.3499781,39.024908 30.4005285,39.024908 C30.4902354,39.024908 30.5191214,39.024908 30.5171956,39.024908 C30.546242,39.024908 30.5736837,39.024908 30.6054582,39.024908 C31.4797394,39.024908 36.7848032,36.7673111 39.1547343,34.3415339 C39.9489372,33.5266294 40.9958921,27.5366478 41.6628364,23.2137061 C42.0162078,22.0869938 42.206855,20.8887087 42.206855,19.6448479 C42.2066945,19.6031238 42.2036455,19.5612392 42.2036455,19.5191941 Z" id="Shape" fill="#F1D1AB" fill-rule="nonzero"></path>
                                    <path d="M16.4178067,26.9984064 C16.6415123,28.8185417 18.8764818,31.642945 20.3817604,31.4579145 C21.8862365,31.2736864 21.4868082,28.222047 21.2624607,26.4035165 C21.0392365,24.5838626 19.9582604,23.2199647 18.4536237,23.4053162 C16.9488266,23.5898652 16.1941011,25.1795549 16.4178067,26.9984064 Z" id="Shape" fill="#D3A685" fill-rule="nonzero"></path>
                                    <path d="M19.8886132,29.2795935 C19.8886132,29.2795935 17.7571516,27.5507698 19.3351264,26.8621611 C19.7876728,26.6642924 20.3424434,26.4930629 19.7376039,25.6534449 C19.1335667,24.8139873 18.4252192,25.0277432 18.2770985,25.1497061 C17.6382378,25.6693321 17.8330574,27.1559953 18.1930084,27.8526279 C18.8994301,29.2224635 19.2674049,29.2303269 19.8886132,29.2795935 Z" id="Shape" fill="#C19980" fill-rule="nonzero"></path>
                                    <path d="M30.2912434,7.73003863 C24.0270058,7.73068054 18.8957391,12.5669897 18.4162325,18.7073386 C18.4162325,18.7073386 18.309194,19.0125667 18.3799646,19.5191941 C18.3794832,19.5612392 18.3759527,19.6031238 18.3759527,19.6448479 C18.3759527,20.8887087 18.5680442,22.0869938 18.9202922,23.2137061 C19.5865946,27.5366478 20.6338705,33.5266294 21.4290363,34.3415339 C23.7991278,36.7671507 29.1030683,39.024908 29.9776704,39.024908 C30.0097659,39.024908 30.0375285,39.024908 30.065933,39.024908 C30.1084595,39.024908 30.1471346,39.024908 30.1824396,39.024908 C30.2236824,39.024908 30.2589874,39.024908 30.2914038,39.024908 L30.2914038,7.73003863 L30.2912434,7.73003863 Z" id="Shape" fill="#E2BE9A" fill-rule="nonzero"></path>
                                    <polygon id="Shape" fill="#222222" fill-rule="nonzero" points="18.5503916 22.3360549 18.7514699 23.1968559 20.9585164 22.3360549 20.7693134 21.5479501"></polygon>
                                    <path d="M41.651603,23.5192552 C41.4298232,22.4108374 39.8629213,12.0516965 30.4414503,13.1230441 C30.4047009,14.0098425 30.4047009,14.0098425 30.4047009,14.0098425 C30.4047009,14.0098425 28.7421545,12.4950958 25.9711902,13.5666037 C23.2000655,14.6377908 23.1625138,15.3400401 23.1625138,15.3400401 L23.2000655,14.6377908 C23.2000655,14.6377908 19.4352643,18.1090786 19.1396649,23.8729475 C18.0310866,24.0945668 16.9555667,17.9262948 17.5095349,16.5591874 C17.1402762,16.633007 16.9554062,16.5962577 16.9554062,16.5962577 C16.9554062,16.5962577 20.2809805,10.0192496 20.872019,9.94575088 C21.463218,9.87161029 21.463218,9.87161029 21.463218,9.87161029 L21.4999673,8.72628268 C21.4999673,8.72628268 24.6034409,7.72875481 23.605913,7.69168452 C22.6083851,7.65461422 22.3866053,7.69168452 22.3866053,7.69168452 C22.3866053,7.69168452 24.8992008,6.54635691 25.6385204,6.65692587 C26.3771982,6.76797627 27.3487287,6.73106646 26.3272897,6.17677732 C27.4121173,5.95531843 30.293811,5.51175874 30.7372102,5.99206777 C31.1807699,6.47253728 32.2407235,6.61391792 31.7719689,5.80735822 C32.7691758,5.91808766 36.7596082,7.50697496 38.4964557,10.5738596 C39.0504239,9.61308111 39.715603,9.50235166 39.6417834,8.68937287 C40.1957515,9.64983045 40.4547622,10.4258994 40.3068019,11.7928464 C41.8218696,10.9800281 42.0438099,10.906048 42.0438099,10.906048 L41.1192993,13.0123146 C41.1192993,13.0123146 40.4176919,14.0835016 42.7454174,13.4926236 C42.2278776,14.2314618 41.4153802,14.8595706 42.7454174,15.3028094 C42.4868882,16.337568 42.1535765,16.2263571 42.4496574,17.3721662 C42.7454174,18.5174938 42.5422529,20.416263 42.5422529,20.416263 C42.5422529,20.416263 42.0938789,21.292149 42.0938789,22.7651716 C42.0938789,22.9835814 41.651603,23.5192552 41.651603,23.5192552 Z" id="Shape" fill="#222222" fill-rule="nonzero"></path>
                                    <path d="M34.9872952,35.7014199 C34.7770697,34.5180591 33.8830498,32.5453097 32.0154132,32.0197461 C31.3316187,32.6241042 31.3112381,32.703701 30.3218946,32.7296983 C29.3327115,32.703701 29.3124914,32.6241042 28.628376,32.0197461 C26.7610603,32.5453097 25.8668799,34.5180591 25.6564939,35.7014199 C25.446108,36.8847806 25.8933587,38.989282 28.3391956,40.4355049 C27.2871054,39.6465977 27.5766067,40.409347 26.2351756,36.8847806 C24.893905,33.3608562 30.3217341,33.0973522 30.3217341,33.0973522 C30.3217341,33.0973522 35.7498841,33.3608562 34.408453,36.8847806 C33.0675034,40.409347 33.3566837,39.6465977 32.3045935,40.4355049 C34.7505909,38.989282 35.1980021,36.8847806 34.9872952,35.7014199 Z" id="Shape" fill="#222222" fill-rule="nonzero"></path>
                                    <path d="M40.1113404,21.584218 L39.0127117,21.4152352 C39.0127117,21.4152352 34.9041679,21.4152352 33.9836692,21.4152352 C33.0631705,21.4152352 30.9735935,22.2299793 30.9735935,22.2299793 L30.3217341,22.2299793 L29.6698746,22.2299793 C29.6698746,22.2299793 27.5804582,21.4152352 26.6599595,21.4152352 C25.7391398,21.4152352 21.6310774,21.4152352 21.6310774,21.4152352 L20.5321278,21.584218 L20.2500084,21.8746822 L20.2500084,22.5838321 C20.2500084,22.5838321 20.6396477,22.8316092 20.7813493,23.4337207 C20.9232113,24.0356716 21.099897,27.7539343 24.2165297,27.8248653 C27.332681,27.8957964 28.4308282,26.7981306 29.563799,23.3274846 C29.8825073,23.3274846 30.3217341,23.3274846 30.3217341,23.3274846 C30.3217341,23.3274846 30.7608004,23.3274846 31.0796691,23.3274846 C32.2132819,26.7981306 33.3109477,27.8957964 36.4275804,27.8248653 C39.5435711,27.7539343 39.7207383,24.0356716 39.8622794,23.4337207 C40.0041415,22.8316092 40.3932993,22.5838321 40.3932993,22.5838321 L40.3932993,21.8746822 L40.1113404,21.584218 Z" id="Shape" fill="#222222" fill-rule="nonzero"></path>
                                    <polygon id="Shape" fill="#222222" fill-rule="nonzero" points="42.0938789 22.3360549 41.8926402 23.1968559 39.6851123 22.3360549 39.8751176 21.5479501"></polygon>
                                    <path d="M46.1289241,48.7512862 C44.5876986,44.0115845 40.2092316,43.5433113 37.2270791,42.7356282 C37.6277913,44.2884081 30.2634808,52.5284441 30.2634808,52.5284441 C30.2634808,52.5284441 22.8988493,44.2882476 23.3000429,42.7356282 C20.3174089,43.5423484 15.938621,44.0115845 14.3983584,48.7512862 C13.7816435,50.6473274 13.3597483,52.8588672 13.0712098,55.0002784 C17.9474778,58.3950185 23.8708613,60.3924814 30.2628389,60.3924814 C36.6554584,60.3924814 42.5781999,58.395179 47.4547888,55.0002784 C47.1662504,52.8588672 46.7448366,50.6473274 46.1289241,48.7512862 Z" id="Shape" fill="#337379" fill-rule="nonzero"></path>
                                    <g id="Group" stroke-width="1" fill="none" fill-rule="evenodd" transform="translate(21.503979, 21.664457)" opacity="0.2">
                                        <path d="M6.75529855,2.14991649 C6.75529855,1.05064591 5.27104255,0.159996025 3.44015525,0.159996025 C1.60974937,0.159996025 0.125653849,1.05064591 0.125653849,2.14991649 C0.125653849,2.51676796 0.125653849,5.61093381 3.44015525,5.61093381 C7.27813411,5.61093381 6.75529855,2.51676796 6.75529855,2.14991649 Z" id="Shape" fill="#FFFFFF" fill-rule="nonzero"></path>
                                        <path d="M10.8813345,2.14991649 C10.8813345,1.05064591 12.3646276,0.159996025 14.1955149,0.159996025 C16.0265627,0.159996025 17.5108187,1.05064591 17.5108187,2.14991649 C17.5108187,2.51676796 17.5108187,5.61093381 14.1955149,5.61093381 C10.3580175,5.61093381 10.8813345,2.51676796 10.8813345,2.14991649 Z" id="Shape" fill="#FFFFFF" fill-rule="nonzero"></path>
                                    </g>
                                    <path d="M30.332807,6.12558501 C23.9819117,6.12558501 18.8333134,12.8261608 18.8333134,21.0917127 C18.8333134,23.0193679 18.8333134,41.6317038 30.332807,41.6317038 C41.8319797,41.6317038 41.8319797,23.0196888 41.8319797,21.0917127 C41.8319797,12.8261608 36.6837024,6.12558501 30.332807,6.12558501 Z M30.332807,38.1559226 C19.9908373,38.1559226 19.9908373,23.1878692 19.9908373,21.6374965 C19.9908373,14.9900388 24.6210934,9.60120578 30.332807,9.60120578 C36.0443602,9.60120578 40.6746163,14.9900388 40.6746163,21.6374965 C40.6746163,23.1880297 40.6746163,38.1559226 30.332807,38.1559226 Z" id="Shape" fill="#222222" fill-rule="nonzero"></path>
                                    <rect id="Rectangle-path" fill="#222222" fill-rule="nonzero" x="29.0427287" y="35.4464212" width="2.5584921" height="4.4363993"></rect>
                                </g>
                            </g>
                        </g>
                        <g id="Group-27" transform="translate(36.300001, 36.300001)">
                            <circle id="Oval-5" fill="#2FE7B1" cx="7.70000017" cy="7.70000017" r="7.70000017"></circle>
                            <text id="check---material" font-family="material" font-size="12.4739996" font-weight="normal" fill="#FFFFFF">
                                <tspan x="1.10000002" y="12.1"></tspan>
                            </text>
                        </g>
                    </g>
                    <circle id="Oval-3" fill="#2FE7B1" cx="352.550008" cy="12.6500003" r="2.75000006"></circle>
                    <g id="Group-4" transform="translate(73.682916, 15.792857)">
                        <rect id="Rectangle-10" fill="url(#linearGradient-4)" x="0" y="0" width="243.043649" height="11.8446431" rx="5.92232156"></rect>
                        <rect id="Rectangle-10-Copy" fill="url(#linearGradient-4)" opacity="0.300000012" x="0" y="18.4250004" width="148.465577" height="6.58035729" rx="3.29017864"></rect>
                        <rect id="Rectangle-10-Copy-2" fill="#FAAA78" opacity="0.200000003" x="0" y="31.585715" width="177.058948" height="11.8446431" rx="5.92232156"></rect>
                    </g>
                </g>
                <g id="Group-6-Copy-2" transform="translate(17.000000, 162.000000)">
                    <rect id="Rectangle-9" fill="url(#linearGradient-12)" x="0" y="0" width="337" height="56" rx="10"></rect>
                    <g id="Group-4" transform="translate(67.000000, 12.000000)" opacity="0.200000003">
                        <rect id="Rectangle-10" fill="#EBEBEB" x="0" y="0" width="221" height="9" rx="4.5"></rect>
                        <rect id="Rectangle-10-Copy" fill="#B8EAC8" x="0" y="26" width="135" height="5" rx="2.5"></rect>
                        <rect id="Rectangle-10-Copy-2" fill="#B8EAC8" x="0" y="13" width="161" height="9" rx="4.5"></rect>
                    </g>
                    <g id="if_male3_403019" transform="translate(12.000000, 9.000000)">
                        <mask id="mask-14" fill="white">
                            <use xlink:href="#path-13"></use>
                        </mask>
                        <use id="Mask" fill="#FFFFFF" opacity="0.200000003" xlink:href="#path-13"></use>
                    </g>
                </g>
            </g>
        </g>
    </g>
</svg>